<svg width="50" height="50" viewBox="0 0 50 50" fill="none" xmlns="http://www.w3.org/2000/svg">
<circle cx="25" cy="25" r="24.5" fill="#FDFBF3" stroke="#88BB18"/>
<path fill-rule="evenodd" clip-rule="evenodd" d="M24.4083 10L24.3724 10.036H24.0138L23.9779 10.0719H23.691L23.6552 10.1079H23.44L23.4041 10.1439H23.2607L23.2248 10.1799H23.0455L23.0097 10.2158H22.9021L22.8662 10.2518H22.7228L22.6869 10.2878H22.6152L22.5793 10.3237H22.4717L22.4359 10.3597H22.3283L22.2924 10.3957H22.2207L22.1848 10.4317H22.1131L22.0772 10.4676H22.0055L21.9697 10.5036H21.9338L21.8979 10.5396H21.8262L21.7903 10.5755H21.7545L21.7186 10.6115H21.6469L21.611 10.6475H21.5752L21.5393 10.6835H21.5034L21.4676 10.7194H21.4317L21.3959 10.7554H21.3241L21.2883 10.7914H21.2524L21.2166 10.8273H21.1807L21.109 10.8993H21.0731L21.0372 10.9353H21.0014L20.9655 10.9712H20.9297L20.8938 11.0072H20.8579L20.7862 11.0791H20.7503L20.7145 11.1151H20.6786L20.6069 11.1871H20.571L20.4634 11.295H20.4276L20.3559 11.3669H20.32L20.2124 11.4748H20.1766L19.9614 11.6906H19.9255L19.6028 12.0144V12.0504L19.3517 12.3022V12.3381L19.2441 12.446V12.482L19.1724 12.554V12.5899L19.0648 12.6978V12.7338L18.9931 12.8058V12.8417L18.9214 12.9137V12.9496L18.8855 12.9856V13.0216L18.8138 13.0935V13.1295L18.7779 13.1655V13.2014L18.7421 13.2374V13.2734L18.7062 13.3094V13.3453L18.6703 13.3813V13.4173L18.6345 13.4532V13.4892L18.5986 13.5252V13.5612L18.5628 13.5971V13.6331L18.5269 13.6691V13.705L18.491 13.741V13.8129L18.4552 13.8489V13.9209L18.4193 13.9568V13.9928L18.3834 14.0288V14.1007L18.3476 14.1367V14.2086L18.3117 14.2446V14.3165L18.2759 14.3525V14.4245L18.24 14.4604V14.5683L18.2041 14.6043V14.7122L18.1683 14.7482V14.8561L18.1324 14.8921V15.036L18.0966 15.0719V15.1799L18.0607 15.2158V15.3957L18.0248 15.4317V15.6475L17.989 15.6835V15.9353L17.9531 15.9712V16.295L17.9172 16.3309V16.8705L17.8814 16.9065V17.8777L17.6662 18.0935V18.1295L17.6303 18.1655V18.2014L17.5586 18.2734V18.3453L17.5228 18.3813V18.4173L17.4869 18.4532V18.5252L17.451 18.5612V18.6331L17.4152 18.6691V18.8129L17.3793 18.8489V19.0288L17.3434 19.0647V19.7842L17.3793 19.8201V20L17.4152 20.036V20.1799L17.451 20.2158V20.3237L17.4869 20.3597V20.4317L17.5228 20.4676V20.5396L17.5586 20.5755V20.6115L17.5945 20.6475V20.6835L17.6303 20.7194V20.7914L17.6662 20.8273V20.8633L17.7379 20.9353V20.9712L17.8097 21.0432V21.0791L18.0607 21.3309H18.0966L18.1683 21.4029H18.2041L18.24 21.4388H18.2759L18.3117 21.4748H18.3476L18.3834 21.5108H18.491L18.5269 21.5468H18.5628L18.5986 21.5827V21.6187L18.6345 21.6547V21.7626L18.6703 21.7986V21.9065L18.7062 21.9424V22.0144L18.7421 22.0504V22.1583L18.7779 22.1942V22.2662L18.8138 22.3022V22.3741L18.8497 22.4101V22.482L18.8855 22.518V22.5899L18.9214 22.6259V22.6978L18.9572 22.7338V22.7698L18.9931 22.8058V22.8777L19.029 22.9137V22.9496L19.0648 22.9856V23.0216L19.1007 23.0576V23.1295L19.1366 23.1655V23.2014L19.1724 23.2374V23.2734L19.2083 23.3094V23.3453L19.2441 23.3813V23.4173L19.28 23.4532V23.5252L19.3159 23.5612V23.5971L19.3876 23.6691V23.705L19.4234 23.741V23.777L19.4593 23.813V23.8489L19.4952 23.8849V23.9209L19.531 23.9568V23.9928L19.5669 24.0288V24.0647L19.6386 24.1367V24.1727L19.6745 24.2086V24.2446L19.7462 24.3165V24.3525L19.8179 24.4245V24.4604L19.8897 24.5324V24.5683L19.9614 24.6403V24.6763L20.0331 24.7482V24.7842L20.1407 24.8921V24.9281L20.2841 25.0719V25.1079L20.4276 25.2518V25.2878L20.6786 25.5396V25.5755L20.8938 25.7914V26.5468L20.8579 26.5827V26.6906L20.8221 26.7266V26.7986L20.7862 26.8345V26.8705L20.7503 26.9065V26.9424L20.7145 26.9784V27.0144L20.6428 27.0863V27.1223L20.4276 27.3381H20.3917L20.2841 27.446H20.2483L20.2124 27.482H20.1766L20.1048 27.554H20.069L20.0331 27.5899H19.9972L19.9614 27.6259H19.9255L19.8897 27.6619H19.8179L19.7821 27.6978H19.7103L19.6745 27.7338H19.6028L19.5669 27.7698H19.4593L19.4234 27.8058H19.3159L19.28 27.8417H19.1724L19.1366 27.8777H18.9931L18.9572 27.9137H18.8497L18.8138 27.9496H18.6703L18.6345 27.9856H18.491L18.4552 28.0216H18.3117L18.2759 28.0576H18.0966L18.0607 28.0935H17.9172L17.8814 28.1295H17.7021L17.6662 28.1655H17.5228L17.4869 28.2014H17.3076L17.2717 28.2374H17.1283L17.0924 28.2734H16.949L16.9131 28.3094H16.7697L16.7338 28.3453H16.6262L16.5903 28.3813H16.4828L16.4469 28.4173H16.3752L16.3393 28.4532H16.2676L16.2317 28.4892H16.16L16.1241 28.5252H16.0524L16.0166 28.5612H15.9448L15.909 28.5971H15.8731L15.8372 28.6331H15.8014L15.7655 28.6691H15.6938L15.6579 28.705H15.6221L15.5862 28.741H15.5503L15.5145 28.777H15.4786L15.4428 28.813H15.4069L15.3352 28.8849H15.2993L15.2634 28.9209H15.2276L15.1559 28.9928H15.12L15.0483 29.0647H15.0124L14.9407 29.1367H14.9048L14.7972 29.2446H14.7614L14.6179 29.3885H14.5821L14.08 29.8921V29.9281L13.9007 30.1079V30.1439L13.7931 30.2518V30.2878L13.6855 30.3957V30.4317L13.6138 30.5036V30.5396L13.5062 30.6475V30.6835L13.4703 30.7194V30.7554L13.3986 30.8273V30.8633L13.3628 30.8993V30.9353L13.291 31.0072V31.0432L13.2552 31.0791V31.1151L13.2193 31.1511V31.1871L13.1476 31.259V31.295L13.1117 31.3309V31.3669L13.0759 31.4029V31.4388L13.04 31.4748V31.5108L13.0041 31.5468V31.5827L12.9683 31.6187V31.6547L12.9324 31.6906V31.7266L12.8966 31.7626V31.7986L12.8607 31.8345V31.8705L12.8248 31.9065V31.9784L12.789 32.0144V32.0504L12.7531 32.0863V32.1223L12.7172 32.1583V32.1942L12.6814 32.2302V32.3022L12.6455 32.3381V32.3741L12.6097 32.4101V32.482L12.5738 32.518V32.554L12.5379 32.5899V32.6619L12.5021 32.6978V32.7698L12.4662 32.8058V32.8417L12.4303 32.8777V32.9496L12.3945 32.9856V33.0576L12.3586 33.0935V33.1655L12.3228 33.2014V33.2734L12.2869 33.3094V33.3813L12.251 33.4173V33.4892L12.2152 33.5252V33.6331L12.1793 33.6691V33.777L12.1434 33.813V33.8849L12.1076 33.9209V34.0288L12.0717 34.0647V34.2086L12.0359 34.2446V34.4245L12 34.4604V35.3597L12.0359 35.3957V35.5755L12.0717 35.6115V35.6835L12.1076 35.7194V35.8273L12.1434 35.8633V35.8993L12.1793 35.9353V36.0072L12.2152 36.0432V36.0791L12.251 36.1151V36.1511L12.2869 36.1871V36.223L12.3228 36.259V36.295L12.3945 36.3669V36.4029L12.4662 36.4748V36.5108L12.5738 36.6187V36.6547L13.0041 37.0863H13.04L13.1834 37.2302H13.2193L13.3269 37.3381H13.3628L13.4345 37.4101H13.4703L13.5421 37.482H13.5779L13.6497 37.554H13.6855L13.7572 37.6259H13.7931L13.829 37.6619H13.8648L13.9366 37.7338H13.9724L14.0083 37.7698H14.0441L14.1159 37.8417H14.1517L14.1876 37.8777H14.2234L14.2593 37.9137H14.2952L14.331 37.9496H14.3669L14.4028 37.9856H14.4386L14.4745 38.0216H14.5103L14.5462 38.0576H14.5821L14.6179 38.0935H14.6538L14.6897 38.1295H14.7255L14.7614 38.1655H14.8331L14.869 38.2014H14.9048L14.9407 38.2374H14.9766L15.0124 38.2734H15.0483L15.0841 38.3094H15.1559L15.1917 38.3453H15.2276L15.2634 38.3813H15.3352L15.371 38.4173H15.4069L15.4428 38.4532H15.5145L15.5503 38.4892H15.5862L15.6221 38.5252H15.6938L15.7297 38.5612H15.8014L15.8372 38.5971H15.8731L15.909 38.6331H15.9807L16.0166 38.6691H16.0883L16.1241 38.705H16.1959L16.2317 38.741H16.3034L16.3393 38.777H16.411L16.4469 38.813H16.5186L16.5545 38.8489H16.6262L16.6621 38.8849H16.7338L16.7697 38.9209H16.8772L16.9131 38.9568H16.9848L17.0207 38.9928H17.1283L17.1641 39.0288H17.2717L17.3076 39.0647H17.3793L17.4152 39.1007H17.5228L17.5586 39.1367H17.6662L17.7021 39.1727H17.8097L17.8455 39.2086H17.9531L17.989 39.2446H18.0966L18.1324 39.2806H18.2759L18.3117 39.3165H18.4193L18.4552 39.3525H18.5986L18.6345 39.3885H18.7779L18.8138 39.4245H18.9572L18.9931 39.4604H19.1724L19.2083 39.4964H19.3517L19.3876 39.5324H19.5669L19.6028 39.5683H19.7821L19.8179 39.6043H20.0331L20.069 39.6403H20.2483L20.2841 39.6763H20.4634L20.4993 39.7122H20.7503L20.7862 39.7482H21.0372L21.0731 39.7842H21.36L21.3959 39.8201H21.7186L21.7545 39.8561H22.1131L22.149 39.8921H22.5434L22.5793 39.9281H23.1172L23.1531 39.964L23.189 39.9281L23.2248 39.964H24.1931L24.229 40H25.771L25.8069 39.964H26.6676L26.7034 39.9281L26.7393 39.964L26.7752 39.9281H27.2772L27.3131 39.8921H27.7434L27.7793 39.8561H28.1379L28.1738 39.8201H28.5324L28.5683 39.7842H28.8552L28.891 39.7482H29.1421L29.1779 39.7122H29.429L29.4648 39.6763H29.68L29.7159 39.6403H29.8952L29.931 39.6043H30.1462L30.1821 39.5683H30.3614L30.3972 39.5324H30.5766L30.6124 39.4964H30.7917L30.8276 39.4604H31.0069L31.0428 39.4245H31.1862L31.2221 39.3885H31.3655L31.4014 39.3525H31.5448L31.5807 39.3165H31.7241L31.76 39.2806H31.8676L31.9034 39.2446H32.011L32.0469 39.2086H32.1903L32.2262 39.1727H32.3338L32.3697 39.1367H32.4772L32.5131 39.1007H32.5848L32.6207 39.0647H32.7283L32.7641 39.0288H32.8717L32.9076 38.9928H33.0152L33.051 38.9568H33.1228L33.1586 38.9209H33.2303L33.2662 38.8849H33.3738L33.4097 38.8489H33.4814L33.5172 38.813H33.589L33.6248 38.777H33.6966L33.7324 38.741H33.8041L33.84 38.705H33.9117L33.9476 38.6691H34.0193L34.0552 38.6331H34.1269L34.1628 38.5971H34.2345L34.2703 38.5612H34.3421L34.3779 38.5252H34.4138L34.4497 38.4892H34.5214L34.5572 38.4532H34.5931L34.629 38.4173H34.7007L34.7366 38.3813H34.7724L34.8083 38.3453H34.88L34.9159 38.3094H34.9517L34.9876 38.2734H35.0234L35.0593 38.2374H35.131L35.1669 38.2014H35.2028L35.2386 38.1655H35.2745L35.3103 38.1295H35.3462L35.3821 38.0935H35.4179L35.4538 38.0576H35.4897L35.5255 38.0216H35.5614L35.5972 37.9856H35.6331L35.669 37.9496H35.7048L35.7407 37.9137H35.7766L35.8124 37.8777H35.8483L35.92 37.8058H35.9559L35.9917 37.7698H36.0276L36.0634 37.7338H36.0993L36.171 37.6619H36.2069L36.2786 37.5899H36.3145L36.3862 37.518H36.4221L36.4938 37.446H36.5297L36.6014 37.3741H36.6372L36.7807 37.2302H36.8166L37.0317 37.0144H37.0676L37.3186 36.7626V36.7266L37.4621 36.5827V36.5468L37.5697 36.4388V36.4029L37.6414 36.3309V36.295L37.6772 36.259V36.223L37.7131 36.1871V36.1511L37.749 36.1151V36.0791L37.7848 36.0432V36.0072L37.8207 35.9712V35.8993L37.8566 35.8633V35.7914L37.8924 35.7554V35.6475L37.9283 35.6115V35.5036L37.9641 35.4676V35.2518L38 35.2158V34.6403L37.9641 34.6043V34.3885L37.9283 34.3525V34.1727L37.8924 34.1367V34.0288L37.8566 33.9928V33.8849L37.8207 33.8489V33.741L37.7848 33.705V33.6331L37.749 33.5971V33.4892L37.7131 33.4532V33.3813L37.6772 33.3453V33.2734L37.6414 33.2374V33.1655L37.6055 33.1295V33.0576L37.5697 33.0216V32.9496L37.5338 32.9137V32.8417L37.4979 32.8058V32.7338L37.4621 32.6978V32.6259L37.4262 32.5899V32.554L37.3903 32.518V32.446L37.3545 32.4101V32.3741L37.3186 32.3381V32.2662L37.2828 32.2302V32.1942L37.2469 32.1583V32.0863L37.211 32.0504V32.0144L37.1752 31.9784V31.9424L37.1393 31.9065V31.8705L37.1034 31.8345V31.7986L37.0676 31.7626V31.6906L37.0317 31.6547V31.6187L36.9959 31.5827V31.5468L36.96 31.5108V31.4748L36.9241 31.4388V31.4029L36.8883 31.3669V31.3309L36.8524 31.295V31.259L36.8166 31.223V31.1871L36.7448 31.1151V31.0791L36.709 31.0432V31.0072L36.6731 30.9712V30.9353L36.6014 30.8633V30.8273L36.5655 30.7914V30.7554L36.4938 30.6835V30.6475L36.4221 30.5755V30.5396L36.3503 30.4676V30.4317L36.2428 30.3237V30.2878L36.1352 30.1799V30.1439L35.9917 30V29.964L35.4179 29.3885H35.3821L35.2386 29.2446H35.2028L35.0952 29.1367H35.0593L34.9876 29.0647H34.9517L34.88 28.9928H34.8441L34.8083 28.9568H34.7724L34.7007 28.8849H34.6648L34.629 28.8489H34.5931L34.5572 28.813H34.5214L34.4855 28.777H34.4497L34.4138 28.741H34.3779L34.3421 28.705H34.3062L34.2703 28.6691H34.2345L34.1986 28.6331H34.1269L34.091 28.5971H34.0552L34.0193 28.5612H33.9476L33.9117 28.5252H33.84L33.8041 28.4892H33.7324L33.6966 28.4532H33.6248L33.589 28.4173H33.4814L33.4455 28.3813H33.3379L33.3021 28.3453H33.1945L33.1586 28.3094H33.0152L32.9793 28.2734H32.8359L32.8 28.2374H32.6566L32.6207 28.2014H32.4772L32.4414 28.1655H32.2621L32.2262 28.1295H32.0828L32.0469 28.0935H31.8676L31.8317 28.0576H31.6883L31.6524 28.0216H31.509L31.4731 27.9856H31.3297L31.2938 27.9496H31.1862L31.1503 27.9137H31.0069L30.971 27.8777H30.8634L30.8276 27.8417H30.6841L30.6483 27.8058H30.5766L30.5407 27.7698H30.469L30.4331 27.7338H30.3255L30.2897 27.6978H30.2538L30.2179 27.6619H30.1462L30.1103 27.6259H30.0386L30.0028 27.5899H29.9669L29.931 27.554H29.8952L29.8234 27.482H29.7876L29.7517 27.446H29.7159L29.6441 27.3741H29.6083L29.3214 27.0863V27.0504L29.2497 26.9784V26.9424L29.2138 26.9065V26.8705L29.1779 26.8345V26.7626L29.1421 26.7266V26.6187L29.1062 26.5827V26.259L29.0703 26.223L29.1062 26.1871V25.7914L29.3214 25.5755V25.5396L29.5366 25.3237V25.2878L29.7159 25.1079V25.0719L29.8593 24.9281V24.8921L29.931 24.8201V24.7842L30.0386 24.6763V24.6403L30.1103 24.5683V24.5324L30.1821 24.4604V24.4245L30.2538 24.3525V24.3165L30.3255 24.2446V24.2086L30.3614 24.1727V24.1367L30.4331 24.0647V24.0288L30.469 23.9928V23.9568L30.5048 23.9209V23.8849L30.5407 23.8489V23.813L30.6124 23.741V23.705L30.6483 23.6691V23.6331L30.6841 23.5971V23.5612L30.72 23.5252V23.4892L30.7559 23.4532V23.4173L30.7917 23.3813V23.3453L30.8276 23.3094V23.2734L30.8634 23.2374V23.1655L30.8993 23.1295V23.0935L30.9352 23.0576V23.0216L30.971 22.9856V22.9137L31.0069 22.8777V22.8058L31.0428 22.7698V22.7338L31.0786 22.6978V22.6259L31.1145 22.5899V22.518L31.1503 22.482V22.4101L31.1862 22.3741V22.3022L31.2221 22.2662V22.1942L31.2579 22.1583V22.0863L31.2938 22.0504V21.9424L31.3297 21.9065V21.7986L31.3655 21.7626V21.6906L31.4014 21.6547V21.5827L31.4372 21.5468H31.4731L31.509 21.5108H31.6166L31.6524 21.4748H31.6883L31.7241 21.4388H31.76L31.7959 21.4029H31.8317L31.9034 21.3309H31.9393L32.1545 21.1151V21.0791L32.2621 20.9712V20.9353L32.2979 20.8993V20.8633L32.3697 20.7914V20.7194L32.4055 20.6835V20.6475L32.4414 20.6115V20.5755L32.4772 20.5396V20.4676L32.5131 20.4317V20.3237L32.549 20.2878V20.2158L32.5848 20.1799V20.036L32.6207 20V19.8201L32.6566 19.7842V19.0647L32.6207 19.0288V18.8129L32.5848 18.777V18.6691L32.549 18.6331V18.5252L32.5131 18.4892V18.4532L32.4772 18.4173V18.3813L32.4414 18.3453V18.2734L32.4055 18.2374V18.2014L32.3338 18.1295V18.0935L32.1186 17.8777V17.0863L32.0828 17.0504V17.0144L32.1186 16.9784L32.0828 16.9424V16.295L32.0469 16.259V15.9353L32.011 15.8993V15.6475L31.9752 15.6115V15.4317L31.9393 15.3957V15.2158L31.9034 15.1799V15.036L31.8676 15V14.8921L31.8317 14.8561V14.7482L31.7959 14.7122V14.6043L31.76 14.5683V14.4964L31.7241 14.4604V14.3885L31.6883 14.3525V14.2446L31.6524 14.2086V14.1727L31.6166 14.1367V14.0647L31.5807 14.0288V13.9568L31.5448 13.9209V13.8849L31.509 13.8489V13.8129L31.4731 13.777V13.705L31.4372 13.6691V13.6331L31.4014 13.5971V13.5612L31.3655 13.5252V13.4892L31.3297 13.4532V13.4173L31.2938 13.3813V13.3453L31.2579 13.3094V13.2734L31.2221 13.2374V13.2014L31.1503 13.1295V13.0935L31.1145 13.0576V13.0216L31.0428 12.9496V12.9137L30.971 12.8417V12.8058L30.8993 12.7338V12.6978L30.8276 12.6259V12.5899L30.72 12.482V12.446L30.5766 12.3022V12.2662L29.8952 11.5827H29.8593L29.7159 11.4388H29.68L29.5724 11.3309H29.5366L29.4648 11.259H29.429L29.3214 11.1511H29.2855L29.2497 11.1151H29.2138L29.1421 11.0432H29.1062L29.0703 11.0072H29.0345L28.9628 10.9353H28.9269L28.891 10.8993H28.8552L28.8193 10.8633H28.7834L28.7476 10.8273H28.7117L28.6759 10.7914H28.64L28.6041 10.7554H28.5683L28.5324 10.7194H28.4966L28.4607 10.6835H28.4248L28.389 10.6475H28.3172L28.2814 10.6115H28.2455L28.2097 10.5755H28.1738L28.1379 10.5396H28.0662L28.0303 10.5036H27.9586L27.9228 10.4676H27.851L27.8152 10.4317H27.7434L27.7076 10.3957H27.6359L27.6 10.3597H27.5283L27.4924 10.3237H27.4207L27.3848 10.2878H27.2772L27.2414 10.2518H27.1338L27.0979 10.2158H26.9545L26.9186 10.1799H26.7752L26.7393 10.1439H26.5959L26.56 10.1079H26.3448L26.309 10.0719H26.0221L25.9862 10.036H25.5559L25.52 10H24.4083ZM19.4593 28.4892L19.4952 28.4532H19.531L19.6028 28.5252V28.5612L19.6386 28.5971V28.6691L19.6745 28.705V28.741L19.7103 28.777V28.813L19.7462 28.8489V28.8849L19.7821 28.9209V28.9568L19.8179 28.9928V29.0288L19.8538 29.0647V29.1007L19.9255 29.1727V29.2086L19.9972 29.2806V29.3165L20.069 29.3885V29.4245L20.1766 29.5324V29.5683L20.4276 29.8201V29.8561L20.4634 29.8921H20.4993L20.5352 29.9281V29.964L20.571 30H20.6069L20.8938 30.2878H20.9297L21.0372 30.3957H21.0731L21.1807 30.5036H21.2166L21.2883 30.5755H21.3241L21.3959 30.6475H21.4317L21.4676 30.6835H21.5034L21.5752 30.7554H21.611L21.6469 30.7914H21.6828L21.7545 30.8633H21.7903L21.8262 30.8993H21.8621L21.8979 30.9353H21.9338L21.9697 30.9712H22.0055L22.0414 31.0072H22.0772L22.1131 31.0432H22.149L22.1848 31.0791H22.2566L22.2924 31.1151H22.3283L22.3641 31.1511H22.4L22.4359 31.1871H22.5076L22.5434 31.223H22.6152L22.651 31.259H22.6869L22.7228 31.295H22.7945L22.8303 31.3309H22.9021L22.9379 31.3669H23.0097L23.0455 31.4029H23.1531L23.189 31.4388H23.2607L23.2966 31.4748H23.4041L23.44 31.5108H23.5834L23.6193 31.5468H23.7628L23.7986 31.5827H23.9779L24.0138 31.6187H24.2648L24.3007 31.6547H24.8386L24.8745 31.6906H25.0179L25.0538 31.6547H25.1614L25.1972 31.6906L25.2331 31.6547H25.7352L25.771 31.6187H26.0221L26.0579 31.5827H26.2372L26.2731 31.5468H26.4166L26.4524 31.5108H26.56L26.5959 31.4748H26.7393L26.7752 31.4388H26.8469L26.8828 31.4029H26.9545L26.9903 31.3669H27.0979L27.1338 31.3309H27.2055L27.2414 31.295H27.2772L27.3131 31.259H27.3848L27.4207 31.223H27.4924L27.5283 31.1871H27.5641L27.6 31.1511H27.6717L27.7076 31.1151H27.7434L27.7793 31.0791H27.8152L27.851 31.0432H27.8869L27.9228 31.0072H27.9586L27.9945 30.9712H28.0303L28.0662 30.9353H28.1021L28.1379 30.8993H28.1738L28.2097 30.8633H28.2455L28.2814 30.8273H28.3172L28.389 30.7554H28.4248L28.4966 30.6835H28.5324L28.5683 30.6475H28.6041L28.7117 30.5396H28.7476L28.8193 30.4676H28.8552L28.9628 30.3597H28.9986L29.2497 30.1079H29.2855L29.5366 29.8561V29.8201L29.7517 29.6043V29.5683L29.8593 29.4604V29.4245L29.931 29.3525V29.3165L30.0028 29.2446V29.2086L30.0386 29.1727V29.1367L30.0745 29.1007V29.0647L30.1462 28.9928V28.9209L30.1821 28.8849V28.8489L30.2179 28.813V28.777L30.2538 28.741V28.705L30.2897 28.6691V28.5971L30.3255 28.5612V28.4892L30.3614 28.4532H30.469L30.5048 28.4892H30.6124L30.6483 28.5252H30.7917L30.8276 28.5612H30.9352L30.971 28.5971H31.1145L31.1503 28.6331H31.2579L31.2938 28.6691H31.4731L31.509 28.705H31.6524L31.6883 28.741H31.8676L31.9034 28.777H32.0828L32.1186 28.813H32.2621L32.2979 28.8489H32.5131L32.549 28.8849H32.6924L32.7283 28.9209H32.9076L32.9434 28.9568H33.051L33.0869 28.9928H33.2303L33.2662 29.0288H33.3379L33.3738 29.0647H33.4814L33.5172 29.1007H33.589L33.6248 29.1367H33.6966L33.7324 29.1727H33.7683L33.8041 29.2086H33.8759L33.9117 29.2446H33.9476L33.9834 29.2806H34.0193L34.0552 29.3165H34.091L34.1269 29.3525H34.1628L34.1986 29.3885H34.2345L34.2703 29.4245H34.3062L34.3421 29.4604H34.3779L34.4138 29.4964H34.4497L34.5214 29.5683H34.5572L34.6648 29.6763H34.7007L34.8083 29.7842H34.8441L34.9876 29.9281H35.0234L35.3821 30.2878V30.3237L35.5972 30.5396V30.5755L35.7048 30.6835V30.7194L35.8124 30.8273V30.8633L35.8841 30.9353V30.9712L35.9559 31.0432V31.0791L36.0276 31.1511V31.1871L36.0634 31.223V31.259L36.1352 31.3309V31.3669L36.171 31.4029V31.4388L36.2069 31.4748V31.5108L36.2428 31.5468V31.5827L36.3145 31.6547V31.6906L36.3503 31.7266V31.7626L36.3862 31.7986V31.8345L36.4221 31.8705V31.9065L36.4579 31.9424V32.0144L36.4938 32.0504V32.0863L36.5297 32.1223V32.1583L36.5655 32.1942V32.2302L36.6014 32.2662V32.3381L36.6372 32.3741V32.4101L36.6731 32.446V32.518L36.709 32.554V32.5899L36.7448 32.6259V32.6978L36.7807 32.7338V32.7698L36.8166 32.8058V32.8777L36.8524 32.9137V32.9856L36.8883 33.0216V33.0935L36.9241 33.1295V33.2014L36.96 33.2374V33.3094L36.9959 33.3453V33.4173L37.0317 33.4532V33.5252L37.0676 33.5612V33.6331L37.1034 33.6691V33.777L37.1393 33.813V33.8849L37.1752 33.9209V34.0288L37.211 34.0647V34.1727L37.2469 34.2086V34.3525L37.2828 34.3885V34.5324L37.3186 34.5683V35.3237L37.2828 35.3597V35.4676L37.2469 35.5036V35.5755L37.211 35.6115V35.6835L37.1752 35.7194V35.7554L37.1393 35.7914V35.8273L37.1034 35.8633V35.8993L37.0676 35.9353V35.9712L36.9959 36.0432V36.0791L36.8883 36.1871V36.223L36.4221 36.6906H36.3862L36.2428 36.8345H36.2069L36.1352 36.9065H36.0993L35.9917 37.0144H35.9559L35.8841 37.0863H35.8483L35.8124 37.1223H35.7766L35.7048 37.1942H35.669L35.6331 37.2302H35.5972L35.5255 37.3022H35.4897L35.4538 37.3381H35.4179L35.3821 37.3741H35.3462L35.3103 37.4101H35.2745L35.2386 37.446H35.2028L35.1669 37.482H35.131L35.0952 37.518H35.0593L35.0234 37.554H34.9876L34.9517 37.5899H34.9159L34.88 37.6259H34.8441L34.8083 37.6619H34.7724L34.7366 37.6978H34.6648L34.629 37.7338H34.5931L34.5572 37.7698H34.5214L34.4855 37.8058H34.4138L34.3779 37.8417H34.3421L34.3062 37.8777H34.2345L34.1986 37.9137H34.1628L34.1269 37.9496H34.0552L34.0193 37.9856H33.9476L33.9117 38.0216H33.8759L33.84 38.0576H33.7683L33.7324 38.0935H33.6607L33.6248 38.1295H33.5531L33.5172 38.1655H33.4455L33.4097 38.2014H33.3379L33.3021 38.2374H33.2303L33.1945 38.2734H33.0869L33.051 38.3094H32.9793L32.9434 38.3453H32.8359L32.8 38.3813H32.7283L32.6924 38.4173H32.5848L32.549 38.4532H32.4772L32.4414 38.4892H32.3338L32.2979 38.5252H32.1903L32.1545 38.5612H32.0469L32.011 38.5971H31.9034L31.8676 38.6331H31.76L31.7241 38.6691H31.5807L31.5448 38.705H31.4372L31.4014 38.741H31.2221L31.1862 38.777H31.0428L31.0069 38.813H30.8634L30.8276 38.8489H30.6483L30.6124 38.8849H30.4331L30.3972 38.9209H30.2179L30.1821 38.9568H30.0028L29.9669 38.9928H29.7876L29.7517 39.0288H29.5366L29.5007 39.0647H29.2497L29.2138 39.1007H28.9269L28.891 39.1367H28.64L28.6041 39.1727H28.2455L28.2097 39.2086H27.851L27.8152 39.2446H27.3131L27.2772 39.2806H26.6676L26.6317 39.3165H25.5559L25.52 39.3525L25.4841 39.3165H25.4124L25.3766 39.3525H24.3724L24.3366 39.3165H24.3007L24.2648 39.3525H24.229L24.1931 39.3165H23.2248L23.189 39.2806H22.5793L22.5434 39.2446H22.1131L22.0772 39.2086H21.7186L21.6828 39.1727H21.3959L21.36 39.1367H21.0731L21.0372 39.1007H20.8221L20.7862 39.0647H20.5352L20.4993 39.0288H20.32L20.2841 38.9928H20.069L20.0331 38.9568H19.8538L19.8179 38.9209H19.6028L19.5669 38.8849H19.4234L19.3876 38.8489H19.2083L19.1724 38.813H19.029L18.9931 38.777H18.8497L18.8138 38.741H18.6703L18.6345 38.705H18.5269L18.491 38.6691H18.3476L18.3117 38.6331H18.2041L18.1683 38.5971H18.0607L18.0248 38.5612H17.9172L17.8814 38.5252H17.7379L17.7021 38.4892H17.5945L17.5586 38.4532H17.4869L17.451 38.4173H17.3434L17.3076 38.3813H17.2L17.1641 38.3453H17.0924L17.0566 38.3094H16.949L16.9131 38.2734H16.8414L16.8055 38.2374H16.7338L16.6979 38.2014H16.6262L16.5903 38.1655H16.5186L16.4828 38.1295H16.411L16.3752 38.0935H16.3034L16.2676 38.0576H16.1959L16.16 38.0216H16.1241L16.0883 37.9856H16.0166L15.9807 37.9496H15.909L15.8731 37.9137H15.8372L15.8014 37.8777H15.7297L15.6938 37.8417H15.6579L15.6221 37.8058H15.5503L15.5145 37.7698H15.4786L15.4428 37.7338H15.4069L15.371 37.6978H15.3352L15.2993 37.6619H15.2276L15.1917 37.6259H15.1559L15.12 37.5899H15.0841L15.0483 37.554H15.0124L14.9766 37.518H14.9407L14.9048 37.482H14.869L14.8331 37.446H14.7972L14.7614 37.4101H14.7255L14.6897 37.3741H14.6538L14.6179 37.3381H14.5821L14.5462 37.3022H14.5103L14.4386 37.2302H14.4028L14.3669 37.1942H14.331L14.2952 37.1583H14.2593L14.1876 37.0863H14.1517L14.08 37.0144H14.0441L13.9724 36.9424H13.9366L13.8648 36.8705H13.829L13.7214 36.7626H13.6855L13.5779 36.6547H13.5421L13.0759 36.1871V36.1511L12.9683 36.0432V36.0072L12.8966 35.9353V35.8993L12.8607 35.8633V35.8273L12.8248 35.7914V35.7554L12.789 35.7194V35.6835L12.7531 35.6475V35.5755L12.7172 35.5396V35.4317L12.6814 35.3957V35.2518L12.6455 35.2158V34.7482L12.6814 34.7122V34.4604L12.7172 34.4245V34.2806L12.7531 34.2446V34.1007L12.789 34.0647V33.9568L12.8248 33.9209V33.8489L12.8607 33.813V33.705L12.8966 33.6691V33.5971L12.9324 33.5612V33.4892L12.9683 33.4532V33.3813L13.0041 33.3453V33.2734L13.04 33.2374V33.1655L13.0759 33.1295V33.0576L13.1117 33.0216V32.9496L13.1476 32.9137V32.8777L13.1834 32.8417V32.7698L13.2193 32.7338V32.6978L13.2552 32.6619V32.5899L13.291 32.554V32.518L13.3269 32.482V32.4101L13.3628 32.3741V32.3381L13.3986 32.3022V32.2662L13.4345 32.2302V32.1942L13.4703 32.1583V32.0863L13.5062 32.0504V32.0144L13.5421 31.9784V31.9424L13.5779 31.9065V31.8705L13.6138 31.8345V31.7986L13.6497 31.7626V31.7266L13.7214 31.6547V31.6187L13.7572 31.5827V31.5468L13.7931 31.5108V31.4748L13.829 31.4388V31.4029L13.9007 31.3309V31.295L13.9366 31.259V31.223L14.0083 31.1511V31.1151L14.08 31.0432V31.0072L14.1517 30.9353V30.8993L14.2234 30.8273V30.7914L14.331 30.6835V30.6475L14.4386 30.5396V30.5036L14.6897 30.2518V30.2158L14.7255 30.1799H14.7614V30.1439L14.7972 30.1079H14.8331V30.0719L14.869 30.036H14.9048L15.1559 29.7842H15.1917L15.2993 29.6763H15.3352L15.4428 29.5683H15.4786L15.5503 29.4964H15.5862L15.6221 29.4604H15.6579L15.7297 29.3885H15.7655L15.8014 29.3525H15.8372L15.8731 29.3165H15.909L15.9448 29.2806H15.9807L16.0166 29.2446H16.0883L16.1241 29.2086H16.16L16.1959 29.1727H16.2676L16.3034 29.1367H16.3393L16.3752 29.1007H16.4469L16.4828 29.0647H16.5903L16.6262 29.0288H16.6979L16.7338 28.9928H16.8414L16.8772 28.9568H17.0207L17.0566 28.9209H17.2L17.2359 28.8849H17.4152L17.451 28.8489H17.6662L17.7021 28.813H17.8814L17.9172 28.777H18.0966L18.1324 28.741H18.2759L18.3117 28.705H18.491L18.5269 28.6691H18.6345L18.6703 28.6331H18.8138L18.8497 28.5971H18.9931L19.029 28.5612H19.1724L19.2083 28.5252H19.3159L19.3517 28.4892H19.4593ZM21.5393 26.4388L21.5752 26.4029L21.611 26.4388H21.6469L21.7903 26.5827H21.8262L21.8979 26.6547H21.9338L22.0414 26.7626H22.0772L22.149 26.8345H22.1848L22.2566 26.9065H22.2924L22.3641 26.9784H22.4L22.4717 27.0504H22.5076L22.5434 27.0863H22.5793L22.6152 27.1223H22.651L22.7228 27.1942H22.7586L22.7945 27.2302H22.8303L22.8662 27.2662H22.9021L22.9379 27.3022H22.9738L23.0097 27.3381H23.0455L23.0814 27.3741H23.1172L23.1531 27.4101H23.2248L23.2607 27.446H23.2966L23.3324 27.482H23.4041L23.44 27.518H23.4759L23.5117 27.554H23.5834L23.6193 27.5899H23.691L23.7269 27.6259H23.7986L23.8345 27.6619H23.9421L23.9779 27.6978H24.1214L24.1572 27.7338H24.2648L24.3007 27.7698H24.5159L24.5517 27.8058H25.3766L25.4124 27.7698H25.6634L25.6993 27.7338H25.8786L25.9145 27.6978H26.0221L26.0579 27.6619H26.1297L26.1655 27.6259H26.2731L26.309 27.5899H26.3807L26.4166 27.554H26.4883L26.5241 27.518H26.56L26.5959 27.482H26.6676L26.7034 27.446H26.7393L26.7752 27.4101H26.8469L26.8828 27.3741H26.9186L26.9545 27.3381H26.9903L27.0262 27.3022H27.0621L27.0979 27.2662H27.1338L27.1697 27.2302H27.2055L27.2414 27.1942H27.2772L27.3131 27.1583H27.349L27.4207 27.0863H27.4566L27.4924 27.0504H27.5283L27.5641 27.0144H27.6L27.6717 26.9424H27.7076L27.7793 26.8705H27.8152L27.8869 26.7986H27.9228L27.9945 26.7266H28.0303L28.1738 26.5827H28.2097L28.3172 26.4748H28.3531L28.389 26.4388H28.4248L28.4607 26.4748V26.7266L28.4966 26.7626V26.9065L28.5324 26.9424V27.0144L28.5683 27.0504V27.1223L28.6041 27.1583V27.1942L28.64 27.2302V27.2662L28.6759 27.3022V27.3381L28.7476 27.4101V27.446L28.8193 27.518V27.554L29.0703 27.8058H29.1062L29.2138 27.9137H29.2497L29.3572 28.0216H29.3931L29.429 28.0576H29.4648L29.5007 28.0935H29.5366L29.5724 28.1295H29.6083L29.6441 28.1655H29.68L29.7159 28.2014V28.2374L29.68 28.2734V28.3453L29.6441 28.3813V28.4532L29.6083 28.4892V28.5612L29.5724 28.5971V28.6331L29.5366 28.6691V28.705L29.5007 28.741V28.777L29.4648 28.813V28.8489L29.3931 28.9209V28.9568L29.3214 29.0288V29.0647L29.2138 29.1727V29.2086L28.64 29.7842H28.6041L28.4607 29.9281H28.4248L28.3531 30H28.3172L28.2097 30.1079H28.1738L28.1379 30.1439H28.1021L28.0303 30.2158H27.9945L27.9228 30.2878H27.8869L27.851 30.3237H27.8152L27.7793 30.3597H27.7434L27.7076 30.3957H27.6717L27.6359 30.4317H27.6L27.5641 30.4676H27.5283L27.4924 30.5036H27.4566L27.4207 30.5396H27.349L27.3131 30.5755H27.2772L27.2414 30.6115H27.2055L27.1697 30.6475H27.0979L27.0621 30.6835H26.9903L26.9545 30.7194H26.8828L26.8469 30.7554H26.7752L26.7393 30.7914H26.6317L26.5959 30.8273H26.5241L26.4883 30.8633H26.3807L26.3448 30.8993H26.2014L26.1655 30.9353H26.0221L25.9862 30.9712H25.771L25.7352 31.0072H25.1255L25.0897 31.0432H25.0538L25.0179 31.0072H24.2648L24.229 30.9712H24.0138L23.9779 30.9353H23.7986L23.7628 30.8993H23.6552L23.6193 30.8633H23.5117L23.4759 30.8273H23.3683L23.3324 30.7914H23.2607L23.2248 30.7554H23.1172L23.0814 30.7194H23.0097L22.9738 30.6835H22.9379L22.9021 30.6475H22.8303L22.7945 30.6115H22.7586L22.7228 30.5755H22.651L22.6152 30.5396H22.5793L22.5434 30.5036H22.5076L22.4717 30.4676H22.4L22.3641 30.4317H22.3283L22.2566 30.3597H22.2207L22.1848 30.3237H22.149L22.1131 30.2878H22.0772L22.0414 30.2518H22.0055L21.9338 30.1799H21.8979L21.8621 30.1439H21.8262L21.7545 30.0719H21.7186L21.6469 30H21.611L21.5034 29.8921H21.4676L21.3241 29.7482H21.2883L20.7145 29.1727V29.1367L20.6069 29.0288V28.9928L20.5352 28.9209V28.8849L20.4634 28.813V28.777L20.4276 28.741V28.705L20.3917 28.6691V28.6331L20.3559 28.5971V28.5612L20.32 28.5252V28.4892L20.2841 28.4532V28.3813L20.2483 28.3453V28.3094L20.2124 28.2734V28.2374L20.2483 28.2014H20.2841L20.32 28.1655H20.3559L20.3917 28.1295H20.4276L20.4634 28.0935H20.4993L20.5352 28.0576H20.571L20.6428 27.9856H20.6786L20.7503 27.9137H20.7862L21.0372 27.6619H21.0731V27.6259L21.1807 27.518V27.482L21.2524 27.4101V27.3741L21.3241 27.3022V27.2662L21.36 27.2302V27.1942L21.3959 27.1583V27.1223L21.4317 27.0863V27.0144L21.4676 26.9784V26.9065L21.5034 26.8705V26.7266L21.5393 26.6906V26.4388ZM21.6828 16.0791L21.7186 16.0432L21.7545 16.0791H22.0055L22.0414 16.1151H22.149L22.1848 16.1511H22.2924L22.3283 16.1871H22.4359L22.4717 16.223H22.5434L22.5793 16.259H22.6869L22.7228 16.295H22.8303L22.8662 16.3309H22.9738L23.0097 16.3669H23.189L23.2248 16.4029H23.4041L23.44 16.4388H23.6193L23.6552 16.4748H23.9062L23.9421 16.5108H24.3724L24.4083 16.5468H25.52L25.5559 16.5108H25.9503L25.9862 16.4748H26.2731L26.309 16.4388H26.4883L26.5241 16.4029H26.7034L26.7393 16.3669H26.8469L26.8828 16.3309H27.0262L27.0621 16.295H27.1697L27.2055 16.259H27.2772L27.3131 16.223H27.4207L27.4566 16.1871H27.6L27.6359 16.1511H27.7076L27.7434 16.1151H27.8869L27.9228 16.0791H28.4607L28.4966 16.1151H28.5683L28.6041 16.1511H28.6759L28.7117 16.1871H28.7834L28.8193 16.223H28.8552L28.891 16.259H28.9269L28.9628 16.295H28.9986L29.0345 16.3309H29.0703L29.1062 16.3669H29.1421L29.2138 16.4388H29.2497L29.3572 16.5468H29.3931L29.8593 17.0144V17.0504L29.9669 17.1583V17.1942L30.0386 17.2662V17.3022L30.1103 17.3741V17.4101L30.1462 17.446V17.482L30.1821 17.518V17.554L30.2179 17.5899V17.6259L30.2538 17.6619V17.6978L30.2897 17.7338V17.8058L30.3255 17.8417V17.8777L30.3614 17.9137V17.9856L30.3972 18.0216V18.0935L30.4331 18.1295V18.2374L30.469 18.2734V18.3813L30.5048 18.4173V18.5252L30.5407 18.5612V18.6691L30.5766 18.705V18.8129L30.6483 18.8849V18.9209L30.6841 18.9568H30.72L30.7559 18.9928H30.7917L30.8276 19.0288H31.0428L31.0786 18.9928H31.1145L31.2579 18.8489H31.2938V18.8129L31.3297 18.777H31.3655L31.6166 18.5252H31.76L31.8676 18.6331V18.6691L31.9034 18.705V18.777L31.9393 18.8129V18.9209L31.9752 18.9568V19.1727L32.011 19.2086V19.5683L31.9752 19.6043V19.8561L31.9393 19.8921V20.036L31.9034 20.0719V20.1439L31.8676 20.1799V20.2518L31.8317 20.2878V20.3597L31.7959 20.3957V20.4317L31.76 20.4676V20.5036L31.7241 20.5396V20.5755L31.6524 20.6475V20.6835L31.4731 20.8633H31.4372L31.4014 20.8993H31.3655L31.3297 20.9353H30.971L30.9352 20.9712H30.8993L30.8634 21.0072V21.0432L30.8276 21.0791V21.1151L30.7917 21.1511V21.295L30.7559 21.3309V21.4748L30.72 21.5108V21.6547L30.6841 21.6906V21.7626L30.6483 21.7986V21.9065L30.6124 21.9424V22.0144L30.5766 22.0504V22.1223L30.5407 22.1583V22.2302L30.5048 22.2662V22.3381L30.469 22.3741V22.446L30.4331 22.482V22.518L30.3972 22.554V22.6259L30.3614 22.6619V22.6978L30.3255 22.7338V22.8058L30.2897 22.8417V22.8777L30.2538 22.9137V22.9496L30.2179 22.9856V23.0216L30.1821 23.0576V23.1295L30.1462 23.1655V23.2014L30.0745 23.2734V23.3094L30.0386 23.3453V23.3813L30.0028 23.4173V23.4532L29.9669 23.4892V23.5252L29.931 23.5612V23.5971L29.8593 23.6691V23.705L29.8234 23.741V23.777L29.7517 23.8489V23.8849L29.7159 23.9209V23.9568L29.6441 24.0288V24.0647L29.5724 24.1367V24.1727L29.5007 24.2446V24.2806L29.429 24.3525V24.3885L29.3214 24.4964V24.5324L29.1779 24.6763V24.7122L28.9986 24.8921V24.9281L28.7476 25.1799V25.2158L28.2814 25.6835H28.2455L28.0303 25.8993H27.9945L27.851 26.0432H27.8152L27.7076 26.1511H27.6717L27.6 26.223H27.5641L27.4924 26.295H27.4566L27.3848 26.3669H27.349L27.3131 26.4029H27.2772L27.2055 26.4748H27.1697L27.0979 26.5468H27.0621L27.0262 26.5827H26.9903L26.9545 26.6187H26.9186L26.8828 26.6547H26.8469L26.811 26.6906H26.7752L26.7393 26.7266H26.7034L26.6676 26.7626H26.6317L26.5959 26.7986H26.5241L26.4883 26.8345H26.4524L26.4166 26.8705H26.3448L26.309 26.9065H26.2731L26.2372 26.9424H26.1655L26.1297 26.9784H26.0221L25.9862 27.0144H25.9145L25.8786 27.0504H25.771L25.7352 27.0863H25.5917L25.5559 27.1223H25.3407L25.3048 27.1583H24.6952L24.6593 27.1223H24.4441L24.4083 27.0863H24.2648L24.229 27.0504H24.1214L24.0855 27.0144H24.0138L23.9779 26.9784H23.8703L23.8345 26.9424H23.7986L23.7628 26.9065H23.691L23.6552 26.8705H23.6193L23.5834 26.8345H23.5117L23.4759 26.7986H23.44L23.4041 26.7626H23.3683L23.3324 26.7266H23.2966L23.2607 26.6906H23.189L23.1172 26.6187H23.0455L22.9738 26.5468H22.9379L22.9021 26.5108H22.8662L22.7945 26.4388H22.7586L22.7228 26.4029H22.6869L22.6152 26.3309H22.5793L22.5076 26.259H22.4717L22.3641 26.1511H22.3283L22.2566 26.0791H22.2207L22.0772 25.9353H22.0414L21.8621 25.7554H21.8262L21.0372 24.964V24.9281L20.8221 24.7122V24.6763L20.7145 24.5683V24.5324L20.6069 24.4245V24.3885L20.4993 24.2806V24.2446L20.4634 24.2086V24.1727L20.3559 24.0647V24.0288L20.32 23.9928V23.9568L20.2483 23.8849V23.8489L20.2124 23.813V23.777L20.1407 23.705V23.6691L20.1048 23.6331V23.5971L20.069 23.5612V23.5252L19.9972 23.4532V23.4173L19.9614 23.3813V23.3453L19.9255 23.3094V23.2734L19.8897 23.2374V23.2014L19.8538 23.1655V23.1295L19.8179 23.0935V23.0576L19.7821 23.0216V22.9496L19.7462 22.9137V22.8777L19.7103 22.8417V22.8058L19.6745 22.7698V22.6978L19.6386 22.6619V22.6259L19.6028 22.5899V22.518L19.5669 22.482V22.446L19.531 22.4101V22.3381L19.4952 22.3022V22.2302L19.4593 22.1942V22.1223L19.4234 22.0863V22.0144L19.3876 21.9784V21.9065L19.3517 21.8705V21.7986L19.3159 21.7626V21.6547L19.28 21.6187V21.4748L19.2441 21.4388V21.295L19.2083 21.259V21.1151L19.1724 21.0791V21.0432L19.1007 20.9712H19.0648L19.029 20.9353H18.7062L18.6703 20.8993H18.6345L18.5986 20.8633H18.5628L18.491 20.7914H18.4552L18.4193 20.7554V20.7194L18.3117 20.6115V20.5755L18.24 20.5036V20.4676L18.2041 20.4317V20.3957L18.1683 20.3597V20.2878L18.1324 20.2518V20.1799L18.0966 20.1439V20.036L18.0607 20V19.8561L18.0248 19.8201V19.5324L17.989 19.4964V19.3885L18.0248 19.3525V19.3165L17.989 19.2806L18.0248 19.2446V18.9568L18.0607 18.9209V18.8129L18.0966 18.777V18.705L18.1324 18.6691V18.6331L18.24 18.5252H18.3834L18.8138 18.9568H18.8497L18.9214 19.0288H19.1366L19.1724 18.9928H19.2083L19.2441 18.9568H19.28L19.3517 18.8849V18.8489L19.3876 18.8129V18.741L19.4234 18.705V18.5612L19.4593 18.5252V18.4173L19.4952 18.3813V18.2734L19.531 18.2374V18.1655L19.5669 18.1295V18.0576L19.6028 18.0216V17.9496L19.6386 17.9137V17.8417L19.6745 17.8058V17.7698L19.7103 17.7338V17.6978L19.7462 17.6619V17.6259L19.7821 17.5899V17.554L19.8179 17.518V17.482L19.8538 17.446V17.4101L19.8897 17.3741V17.3381L19.9255 17.3022V17.2662L20.0331 17.1583V17.1223L20.069 17.0863V17.0504L20.2483 16.8705V16.8345L20.5352 16.5468H20.571L20.6786 16.4388H20.7145L20.7862 16.3669H20.8221L20.8579 16.3309H20.8938L20.9655 16.259H21.0014L21.0372 16.223H21.109L21.1448 16.1871H21.1807L21.2166 16.1511H21.2883L21.3241 16.1151H21.4317L21.4676 16.0791H21.6828ZM24.731 10.6835L24.7669 10.6475H25.1614L25.1972 10.6835H25.8428L25.8786 10.7194H26.1655L26.2014 10.7554H26.4166L26.4524 10.7914H26.5959L26.6317 10.8273H26.7752L26.811 10.8633H26.9186L26.9545 10.8993H27.0979L27.1338 10.9353H27.2055L27.2414 10.9712H27.349L27.3848 11.0072H27.4566L27.4924 11.0432H27.5283L27.5641 11.0791H27.6359L27.6717 11.1151H27.7434L27.7793 11.1511H27.8152L27.851 11.1871H27.9228L27.9586 11.223H27.9945L28.0303 11.259H28.0662L28.1021 11.295H28.1738L28.2097 11.3309H28.2455L28.2814 11.3669H28.3172L28.3531 11.4029H28.389L28.4248 11.4388H28.4607L28.4966 11.4748H28.5324L28.6041 11.5468H28.64L28.6759 11.5827H28.7117L28.7834 11.6547H28.8193L28.8552 11.6906H28.891L28.9628 11.7626H28.9986L29.1062 11.8705H29.1421L29.2138 11.9424H29.2497L29.429 12.1223H29.4648L30.1103 12.7698V12.8058L30.2538 12.9496V12.9856L30.3255 13.0576V13.0935L30.4331 13.2014V13.2374L30.469 13.2734V13.3094L30.5407 13.3813V13.4173L30.5766 13.4532V13.4892L30.6483 13.5612V13.5971L30.6841 13.6331V13.6691L30.72 13.705V13.741L30.7559 13.777V13.8129L30.7917 13.8489V13.8849L30.8276 13.9209V13.9568L30.8634 13.9928V14.0288L30.8993 14.0647V14.1367L30.9352 14.1727V14.2086L30.971 14.2446V14.3165L31.0069 14.3525V14.3885L31.0428 14.4245V14.5324L31.0786 14.5683V14.6403L31.1145 14.6763V14.7482L31.1503 14.7842V14.8921L31.1862 14.9281V15.036L31.2221 15.0719V15.1799L31.2579 15.2158V15.3597L31.2938 15.3957V15.5396L31.3297 15.5755V15.7914L31.3655 15.8273V16.0791L31.4014 16.1151V16.5108L31.4372 16.5468V17.8777L31.4014 17.9137H31.3297L31.2938 17.9496H31.2579L31.2221 17.9856H31.1862L31.1503 18.0216H31.1145L31.0786 17.9856V17.9137L31.0428 17.8777V17.8417L31.0069 17.8058V17.7698L30.971 17.7338V17.6619L30.9352 17.6259V17.5899L30.8993 17.554V17.518L30.8634 17.482V17.446L30.8276 17.4101V17.3741L30.7917 17.3381V17.3022L30.7559 17.2662V17.2302L30.72 17.1942V17.1583L30.6483 17.0863V17.0504L30.6124 17.0144V16.9784L30.5407 16.9065V16.8705L30.469 16.7986V16.7626L30.3614 16.6547V16.6187L30.1821 16.4388V16.4029L29.931 16.1511H29.8952L29.7159 15.9712H29.68L29.5724 15.8633H29.5366L29.4648 15.7914H29.429L29.3572 15.7194H29.3214L29.2855 15.6835H29.2497L29.2138 15.6475H29.1779L29.1421 15.6115H29.0703L29.0345 15.5755H28.9986L28.9628 15.5396H28.891L28.8552 15.5036H28.7476L28.7117 15.4676H28.5683L28.5324 15.4317H27.9228L27.8869 15.4676H27.7076L27.6717 15.5036H27.5283L27.4924 15.5396H27.3848L27.349 15.5755H27.2055L27.1697 15.6115H27.0979L27.0621 15.6475H26.9186L26.8828 15.6835H26.811L26.7752 15.7194H26.6317L26.5959 15.7554H26.4166L26.3807 15.7914H26.1655L26.1297 15.8273H25.9145L25.8786 15.8633H25.4841L25.4483 15.8993H24.48L24.4441 15.8633H24.0497L24.0138 15.8273H23.7628L23.7269 15.7914H23.4759L23.44 15.7554H23.2966L23.2607 15.7194H23.1172L23.0814 15.6835H22.9738L22.9379 15.6475H22.8303L22.7945 15.6115H22.6869L22.651 15.5755H22.5434L22.5076 15.5396H22.4L22.3641 15.5036H22.2207L22.1848 15.4676H22.0414L22.0055 15.4317H21.36L21.3241 15.4676H21.1807L21.1448 15.5036H21.0731L21.0372 15.5396H20.9655L20.9297 15.5755H20.8579L20.8221 15.6115H20.7862L20.7503 15.6475H20.7145L20.6786 15.6835H20.6428L20.6069 15.7194H20.571L20.4993 15.7914H20.4634L20.3917 15.8633H20.3559L20.2483 15.9712H20.2124L19.7462 16.4388V16.4748L19.6028 16.6187V16.6547L19.531 16.7266V16.7626L19.4593 16.8345V16.8705L19.3876 16.9424V16.9784L19.3517 17.0144V17.0504L19.28 17.1223V17.1583L19.2441 17.1942V17.2302L19.2083 17.2662V17.3022L19.1724 17.3381V17.3741L19.1366 17.4101V17.446L19.1007 17.482V17.518L19.0648 17.554V17.5899L19.029 17.6259V17.6978L18.9931 17.7338V17.7698L18.9572 17.8058V17.8417L18.9214 17.8777V17.9496L18.8855 17.9856V18.0216L18.8497 18.0576L18.7421 17.9496H18.7062L18.6703 17.9137H18.6345L18.5628 17.8417V16.6187L18.5986 16.5827V16.1871L18.6345 16.1511V15.8993L18.6703 15.8633V15.6475L18.7062 15.6115V15.4317L18.7421 15.3957V15.2518L18.7779 15.2158V15.1079L18.8138 15.0719V14.964L18.8497 14.9281V14.8201L18.8855 14.7842V14.6763L18.9214 14.6403V14.5683L18.9572 14.5324V14.4604L18.9931 14.4245V14.3525L19.029 14.3165V14.2446L19.0648 14.2086V14.1727L19.1007 14.1367V14.0647L19.1366 14.0288V13.9928L19.1724 13.9568V13.9209L19.2083 13.8849V13.8129L19.2441 13.777V13.741L19.28 13.705V13.6691L19.3159 13.6331V13.5971L19.3876 13.5252V13.4892L19.4234 13.4532V13.4173L19.4593 13.3813V13.3453L19.531 13.2734V13.2374L19.5669 13.2014V13.1655L19.6745 13.0576V13.0216L19.7462 12.9496V12.9137L19.8897 12.7698V12.7338L20.6069 12.0144H20.6428L20.7503 11.9065H20.7862L20.8938 11.7986H20.9297L21.0014 11.7266H21.0372L21.109 11.6547H21.1448L21.1807 11.6187H21.2166L21.2883 11.5468H21.3241L21.36 11.5108H21.3959L21.4317 11.4748H21.4676L21.5034 11.4388H21.5393L21.5752 11.4029H21.611L21.6469 11.3669H21.6828L21.7186 11.3309H21.7545L21.7903 11.295H21.8262L21.8621 11.259H21.8979L21.9338 11.223H21.9697L22.0055 11.1871H22.0772L22.1131 11.1511H22.1848L22.2207 11.1151H22.2566L22.2924 11.0791H22.3641L22.4 11.0432H22.4717L22.5076 11.0072H22.5793L22.6152 10.9712H22.7228L22.7586 10.9353H22.8662L22.9021 10.8993H23.0097L23.0455 10.8633H23.1531L23.189 10.8273H23.3324L23.3683 10.7914H23.5476L23.5834 10.7554H23.7986L23.8345 10.7194H24.1214L24.1572 10.6835H24.731Z" fill="#88BB18"/>
</svg>
