<svg width="1024" height="1024" viewBox="0 0 1024 1024" xmlns="http://www.w3.org/2000/svg"><path d="M486,47 L485,48 L471,48 L470,49 L462,49 L461,50 L455,50 L454,51 L449,51 L448,52 L444,52 L443,53 L440,53 L439,54 L436,54 L435,55 L432,55 L431,56 L429,56 L428,57 L425,57 L424,58 L422,58 L421,59 L419,59 L418,60 L417,60 L416,61 L414,61 L413,62 L411,62 L410,63 L409,63 L408,64 L407,64 L406,65 L404,65 L403,66 L402,66 L401,67 L400,67 L399,68 L398,68 L397,69 L396,69 L395,70 L394,70 L392,72 L391,72 L390,73 L389,73 L388,74 L387,74 L385,76 L384,76 L382,78 L381,78 L380,79 L379,79 L376,82 L375,82 L373,84 L372,84 L368,88 L367,88 L362,93 L361,93 L348,106 L348,107 L342,113 L342,114 L339,117 L339,118 L336,121 L336,122 L334,124 L334,125 L332,127 L332,128 L331,129 L331,130 L330,131 L330,132 L328,134 L328,135 L327,136 L327,137 L326,138 L326,139 L325,140 L325,141 L324,142 L324,143 L323,144 L323,145 L322,146 L322,148 L321,149 L321,150 L320,151 L320,153 L319,154 L319,155 L318,156 L318,158 L317,159 L317,161 L316,162 L316,164 L315,165 L315,168 L314,169 L314,172 L313,173 L313,176 L312,177 L312,180 L311,181 L311,186 L310,187 L310,193 L309,194 L309,203 L308,204 L308,228 L309,229 L309,240 L310,241 L310,247 L311,248 L311,255 L309,257 L308,257 L305,260 L305,261 L303,263 L303,264 L302,265 L302,266 L301,267 L301,269 L300,270 L300,272 L299,273 L299,276 L298,277 L298,282 L297,283 L297,302 L298,303 L298,310 L299,311 L299,315 L300,316 L300,318 L301,319 L301,322 L302,323 L302,324 L303,325 L303,327 L304,328 L304,329 L305,330 L305,331 L306,332 L306,333 L308,335 L308,336 L310,338 L310,339 L317,346 L318,346 L320,348 L321,348 L323,350 L324,350 L325,351 L326,351 L327,352 L329,352 L330,353 L333,353 L335,355 L335,356 L336,357 L336,360 L337,361 L337,363 L338,364 L338,366 L339,367 L339,369 L340,370 L340,372 L341,373 L341,375 L342,376 L342,377 L343,378 L343,380 L344,381 L344,382 L345,383 L345,385 L346,386 L346,387 L347,388 L347,390 L348,391 L348,392 L349,393 L349,394 L350,395 L350,396 L351,397 L351,398 L352,399 L352,400 L353,401 L353,402 L354,403 L354,404 L355,405 L355,406 L356,407 L356,408 L357,409 L357,410 L358,411 L358,412 L359,413 L359,414 L361,416 L361,417 L362,418 L362,419 L364,421 L364,422 L366,424 L366,425 L368,427 L368,428 L370,430 L370,431 L372,433 L372,434 L375,437 L375,438 L379,442 L379,443 L383,447 L383,448 L387,452 L387,458 L386,459 L386,465 L385,466 L385,470 L384,471 L384,473 L383,474 L383,475 L382,476 L382,477 L380,479 L380,480 L374,486 L373,486 L371,488 L370,488 L368,490 L367,490 L366,491 L365,491 L364,492 L362,492 L361,493 L360,493 L359,494 L357,494 L356,495 L354,495 L353,496 L350,496 L349,497 L346,497 L345,498 L341,498 L340,499 L337,499 L336,500 L333,500 L332,501 L328,501 L327,502 L324,502 L323,503 L319,503 L318,504 L315,504 L314,505 L311,505 L310,506 L306,506 L305,507 L302,507 L301,508 L298,508 L297,509 L294,509 L293,510 L290,510 L289,511 L287,511 L286,512 L283,512 L282,513 L280,513 L279,514 L276,514 L275,515 L273,515 L272,516 L270,516 L269,517 L267,517 L266,518 L264,518 L263,519 L261,519 L260,520 L259,520 L258,521 L256,521 L255,522 L253,522 L252,523 L251,523 L250,524 L248,524 L247,525 L246,525 L245,526 L243,526 L242,527 L241,527 L240,528 L239,528 L238,529 L237,529 L236,530 L235,530 L234,531 L233,531 L232,532 L231,532 L230,533 L229,533 L228,534 L227,534 L226,535 L225,535 L224,536 L223,536 L222,537 L221,537 L219,539 L218,539 L217,540 L216,540 L214,542 L213,542 L211,544 L210,544 L207,547 L206,547 L202,551 L201,551 L185,567 L185,568 L181,572 L181,573 L178,576 L178,577 L176,579 L176,580 L174,582 L174,583 L172,585 L172,586 L170,588 L170,589 L169,590 L169,591 L168,592 L168,593 L167,594 L167,595 L165,597 L165,598 L164,599 L164,600 L163,601 L163,602 L162,603 L162,604 L161,605 L161,607 L160,608 L160,609 L159,610 L159,611 L158,612 L158,613 L157,614 L157,616 L156,617 L156,618 L155,619 L155,621 L154,622 L154,623 L153,624 L153,626 L152,627 L152,629 L151,630 L151,632 L150,633 L150,635 L149,636 L149,638 L148,639 L148,641 L147,642 L147,645 L146,646 L146,649 L145,650 L145,653 L144,654 L144,657 L143,658 L143,661 L142,662 L142,665 L141,666 L141,670 L140,671 L140,675 L139,676 L139,680 L138,681 L138,686 L137,687 L137,692 L136,693 L136,698 L135,699 L135,704 L134,705 L134,711 L133,712 L133,719 L132,720 L132,727 L131,728 L131,737 L130,738 L130,749 L129,750 L129,778 L130,779 L130,787 L131,788 L131,792 L132,793 L132,796 L133,797 L133,799 L134,800 L134,802 L135,803 L135,805 L136,806 L136,807 L137,808 L137,810 L138,811 L138,812 L139,813 L139,814 L140,815 L140,816 L142,818 L142,819 L144,821 L144,822 L146,824 L146,825 L150,829 L150,830 L157,837 L158,837 L162,841 L163,841 L166,844 L167,844 L169,846 L170,846 L171,847 L172,847 L174,849 L175,849 L176,850 L177,850 L178,851 L179,851 L180,852 L181,852 L182,853 L183,853 L184,854 L185,854 L186,855 L188,855 L189,856 L190,856 L191,857 L192,857 L193,858 L195,858 L196,859 L198,859 L199,860 L201,860 L202,861 L204,861 L205,862 L207,862 L208,863 L210,863 L211,864 L214,864 L215,865 L218,865 L219,866 L222,866 L223,867 L226,867 L227,868 L230,868 L231,869 L235,869 L236,870 L240,870 L241,871 L245,871 L246,872 L250,872 L251,873 L256,873 L257,874 L262,874 L263,875 L268,875 L269,876 L274,876 L276,878 L276,919 L277,920 L277,922 L281,926 L282,926 L283,927 L286,927 L287,928 L296,928 L297,929 L305,929 L306,930 L315,930 L316,931 L326,931 L327,932 L336,932 L337,933 L348,933 L349,934 L359,934 L360,935 L371,935 L372,936 L382,936 L383,937 L393,937 L394,938 L405,938 L406,939 L416,939 L417,940 L428,940 L429,941 L441,941 L442,942 L453,942 L454,943 L465,943 L466,944 L477,944 L478,945 L502,945 L503,944 L515,944 L516,943 L529,943 L530,942 L541,942 L542,941 L553,941 L554,940 L564,940 L565,939 L577,939 L578,938 L588,938 L589,937 L600,937 L601,936 L611,936 L612,935 L623,935 L624,934 L634,934 L635,933 L645,933 L646,932 L656,932 L657,931 L667,931 L668,930 L678,930 L679,929 L688,929 L689,928 L696,928 L697,927 L699,927 L700,926 L701,926 L703,924 L703,923 L704,922 L704,921 L705,920 L705,879 L706,878 L709,878 L710,877 L716,877 L717,876 L723,876 L724,875 L730,875 L731,874 L736,874 L737,873 L742,873 L743,872 L747,872 L748,871 L752,871 L753,870 L757,870 L758,869 L762,869 L763,868 L767,868 L768,867 L771,867 L772,866 L775,866 L776,865 L779,865 L780,864 L783,864 L784,863 L786,863 L787,862 L789,862 L790,861 L792,861 L793,860 L795,860 L796,859 L798,859 L799,858 L800,858 L801,857 L803,857 L804,856 L805,856 L806,855 L807,855 L808,854 L810,854 L811,853 L812,853 L813,852 L814,852 L815,851 L816,851 L818,849 L819,849 L820,848 L821,848 L823,846 L824,846 L825,845 L826,845 L829,842 L830,842 L833,839 L834,839 L845,828 L845,827 L848,824 L848,823 L850,821 L850,820 L852,818 L852,817 L853,816 L853,815 L854,814 L854,813 L855,812 L855,811 L856,810 L856,809 L857,808 L857,806 L858,805 L858,804 L859,803 L859,801 L860,800 L860,797 L861,796 L861,793 L862,792 L862,788 L863,787 L863,780 L864,779 L864,750 L863,749 L863,738 L862,737 L862,728 L861,727 L861,720 L860,719 L860,712 L859,711 L859,705 L858,704 L858,699 L857,698 L857,692 L856,691 L856,686 L855,685 L855,681 L854,680 L854,676 L853,675 L853,671 L852,670 L852,666 L851,665 L851,662 L850,661 L850,658 L849,657 L849,654 L848,653 L848,650 L847,649 L847,646 L846,645 L846,643 L845,642 L845,640 L844,639 L844,636 L843,635 L843,633 L842,632 L842,630 L841,629 L841,628 L840,627 L840,625 L839,624 L839,622 L838,621 L838,619 L837,618 L837,617 L836,616 L836,614 L835,613 L835,612 L834,611 L834,610 L833,609 L833,608 L832,607 L832,605 L831,604 L831,603 L830,602 L830,601 L829,600 L829,599 L828,598 L828,597 L827,596 L827,595 L825,593 L825,591 L823,589 L823,588 L822,587 L822,586 L820,584 L820,583 L818,581 L818,580 L816,578 L816,577 L814,575 L814,574 L811,571 L811,570 L808,567 L808,566 L805,563 L805,561 L806,560 L806,558 L807,557 L807,556 L808,555 L808,554 L809,553 L809,551 L810,550 L810,549 L811,548 L811,547 L812,546 L812,544 L813,543 L813,542 L814,541 L814,540 L815,539 L815,537 L816,536 L816,535 L817,534 L817,533 L818,532 L818,530 L819,529 L819,528 L820,527 L820,526 L821,525 L821,524 L822,523 L822,521 L823,520 L823,519 L824,518 L824,517 L825,516 L825,514 L826,513 L826,512 L827,511 L827,510 L828,509 L828,507 L829,506 L829,505 L830,504 L830,503 L831,502 L831,501 L832,500 L832,498 L833,497 L833,496 L834,495 L834,493 L835,492 L835,491 L836,490 L836,489 L837,488 L837,487 L838,486 L838,484 L839,483 L839,482 L840,481 L840,480 L841,479 L841,477 L842,476 L842,475 L843,474 L843,473 L844,472 L844,470 L845,469 L845,468 L846,467 L846,466 L847,465 L847,464 L848,463 L848,461 L849,460 L849,459 L850,458 L850,457 L851,456 L851,454 L852,453 L852,452 L853,451 L853,450 L854,449 L854,447 L855,446 L855,445 L856,444 L856,443 L857,442 L857,440 L858,439 L858,438 L859,437 L859,436 L860,435 L860,434 L861,433 L861,431 L862,430 L862,429 L863,428 L863,427 L864,426 L864,424 L865,423 L865,422 L866,421 L866,420 L867,419 L867,417 L868,416 L868,415 L869,414 L869,413 L870,412 L870,410 L871,409 L871,408 L872,407 L872,406 L873,405 L873,404 L874,403 L874,401 L875,400 L875,399 L876,398 L876,397 L877,396 L877,394 L878,393 L878,392 L879,391 L879,390 L880,389 L880,388 L881,387 L881,385 L882,384 L882,383 L883,382 L883,381 L884,380 L884,378 L885,377 L885,376 L886,375 L886,374 L887,373 L887,371 L888,370 L888,369 L889,368 L889,367 L890,366 L890,364 L891,363 L891,362 L892,361 L892,360 L893,359 L893,358 L894,357 L894,355 L895,354 L895,353 L896,352 L896,351 L897,350 L897,348 L898,347 L898,346 L899,345 L899,344 L900,343 L900,342 L901,341 L901,339 L902,338 L902,337 L903,336 L903,335 L904,334 L904,332 L905,331 L905,330 L906,329 L906,328 L907,327 L907,325 L908,324 L908,323 L909,322 L909,321 L910,320 L910,319 L911,318 L911,316 L912,315 L912,314 L913,313 L913,312 L914,311 L914,309 L915,308 L915,307 L916,306 L916,305 L917,304 L917,303 L918,302 L918,300 L919,299 L919,298 L920,297 L920,296 L921,295 L921,293 L922,292 L922,291 L923,290 L923,289 L924,288 L924,287 L925,286 L925,284 L926,283 L926,282 L927,281 L927,280 L928,279 L928,277 L929,276 L929,275 L930,274 L930,273 L931,272 L931,271 L932,270 L932,268 L933,267 L933,266 L934,265 L934,264 L935,263 L935,261 L936,260 L936,259 L937,258 L937,257 L938,256 L938,254 L939,253 L939,252 L940,251 L940,250 L941,249 L941,247 L942,246 L942,245 L943,244 L943,243 L944,242 L944,241 L945,240 L945,238 L946,237 L946,236 L947,235 L947,234 L948,233 L948,232 L949,231 L949,229 L950,228 L950,227 L951,226 L951,225 L952,224 L952,222 L953,221 L953,220 L954,219 L954,218 L955,217 L955,215 L956,214 L956,207 L955,206 L955,204 L953,202 L953,201 L951,199 L950,199 L948,197 L945,197 L944,196 L941,196 L940,197 L937,197 L936,198 L935,198 L930,203 L930,204 L929,205 L929,206 L928,207 L928,208 L927,209 L927,211 L926,212 L926,213 L925,214 L925,215 L924,216 L924,218 L923,219 L923,220 L922,221 L922,222 L921,223 L921,225 L920,226 L920,227 L919,228 L919,229 L918,230 L918,231 L917,232 L917,234 L916,235 L916,236 L915,237 L915,238 L914,239 L914,241 L913,242 L913,243 L912,244 L912,245 L911,246 L911,248 L910,249 L910,250 L909,251 L909,252 L908,253 L908,254 L907,255 L907,257 L906,258 L906,259 L905,260 L905,261 L904,262 L904,264 L903,265 L903,266 L902,267 L902,268 L901,269 L901,271 L900,272 L900,273 L899,274 L899,275 L898,276 L898,278 L897,279 L897,280 L896,281 L896,282 L895,283 L895,285 L894,286 L894,287 L893,288 L893,289 L892,290 L892,292 L891,293 L891,294 L890,295 L890,296 L889,297 L889,298 L888,299 L888,301 L887,302 L887,303 L886,304 L886,305 L885,306 L885,308 L884,309 L884,310 L883,311 L883,312 L882,313 L882,315 L881,316 L881,317 L880,318 L880,319 L879,320 L879,321 L878,322 L878,324 L877,325 L877,326 L876,327 L876,328 L875,329 L875,331 L874,332 L874,333 L873,334 L873,335 L872,336 L872,338 L871,339 L871,340 L870,341 L870,342 L869,343 L869,344 L868,345 L868,347 L867,348 L867,349 L866,350 L866,351 L865,352 L865,354 L864,355 L864,356 L863,357 L863,358 L862,359 L862,361 L861,362 L861,363 L860,364 L860,365 L859,366 L859,368 L858,369 L858,370 L857,371 L857,372 L856,373 L856,375 L855,376 L855,377 L854,378 L854,379 L853,380 L853,382 L852,383 L852,384 L851,385 L851,386 L850,387 L850,389 L849,390 L849,391 L848,392 L848,393 L847,394 L847,395 L846,396 L846,398 L845,399 L845,400 L844,401 L844,402 L843,403 L843,405 L842,406 L842,407 L841,408 L841,409 L840,410 L840,412 L839,413 L839,414 L838,415 L838,416 L837,417 L837,419 L836,420 L836,421 L835,422 L835,424 L834,425 L834,426 L833,427 L833,428 L832,429 L832,430 L831,431 L831,433 L830,434 L830,435 L829,436 L829,437 L828,438 L828,440 L827,441 L827,442 L826,443 L826,444 L825,445 L825,447 L824,448 L824,449 L823,450 L823,451 L822,452 L822,454 L821,455 L821,456 L820,457 L820,458 L819,459 L819,461 L818,462 L818,463 L817,464 L817,466 L816,467 L816,468 L815,469 L815,470 L814,471 L814,473 L813,474 L813,475 L812,476 L812,477 L811,478 L811,480 L810,481 L810,482 L809,483 L809,484 L808,485 L808,487 L807,488 L807,489 L806,490 L806,491 L805,492 L805,494 L804,495 L804,496 L803,497 L803,498 L802,499 L802,501 L801,502 L801,503 L800,504 L800,505 L799,506 L799,508 L798,509 L798,510 L797,511 L797,512 L796,513 L796,515 L795,516 L795,517 L794,518 L794,519 L793,520 L793,522 L792,523 L792,524 L791,525 L791,526 L790,527 L790,529 L789,530 L789,531 L788,532 L788,533 L787,534 L787,536 L786,537 L786,538 L785,539 L785,541 L784,542 L784,543 L783,544 L782,544 L779,541 L778,541 L777,540 L776,540 L774,538 L773,538 L772,537 L771,537 L770,536 L769,536 L768,535 L767,535 L765,533 L764,533 L763,532 L762,532 L761,531 L759,531 L758,530 L757,530 L756,529 L755,529 L754,528 L753,528 L752,527 L751,527 L750,526 L748,526 L747,525 L746,525 L745,524 L744,524 L743,523 L741,523 L740,522 L738,522 L737,521 L736,521 L735,520 L733,520 L732,519 L730,519 L729,518 L727,518 L726,517 L724,517 L723,516 L721,516 L720,515 L717,515 L716,514 L714,514 L713,513 L711,513 L710,512 L707,512 L706,511 L703,511 L702,510 L699,510 L698,509 L695,509 L694,508 L691,508 L690,507 L687,507 L686,506 L683,506 L682,505 L678,505 L677,504 L674,504 L673,503 L669,503 L668,502 L665,502 L664,501 L660,501 L659,500 L656,500 L655,499 L651,499 L650,498 L647,498 L646,497 L643,497 L642,496 L640,496 L639,495 L636,495 L635,494 L634,494 L633,493 L631,493 L630,492 L629,492 L628,491 L627,491 L626,490 L625,490 L624,489 L623,489 L621,487 L620,487 L613,480 L613,479 L611,477 L611,476 L610,475 L610,474 L609,473 L609,471 L608,470 L608,467 L607,466 L607,462 L606,461 L606,452 L613,445 L613,444 L617,440 L617,439 L620,436 L620,435 L623,432 L623,431 L625,429 L625,428 L627,426 L627,425 L629,423 L629,422 L631,420 L631,419 L632,418 L632,417 L634,415 L634,414 L635,413 L635,412 L636,411 L636,410 L638,408 L638,407 L639,406 L639,405 L640,404 L640,403 L641,402 L641,401 L642,400 L642,399 L643,398 L643,396 L644,395 L644,394 L645,393 L645,392 L646,391 L646,390 L647,389 L647,387 L648,386 L648,385 L649,384 L649,382 L650,381 L650,380 L651,379 L651,377 L652,376 L652,374 L653,373 L653,371 L654,370 L654,368 L655,367 L655,365 L656,364 L656,362 L657,361 L657,360 L658,359 L658,357 L659,356 L659,355 L660,354 L662,354 L663,353 L664,353 L665,352 L666,352 L668,350 L669,350 L671,348 L672,348 L674,346 L675,346 L682,339 L682,338 L685,335 L685,334 L687,332 L687,331 L688,330 L688,329 L689,328 L689,327 L690,326 L690,325 L691,324 L691,322 L692,321 L692,319 L693,318 L693,315 L694,314 L694,310 L695,309 L695,299 L696,298 L696,288 L695,287 L695,279 L694,278 L694,274 L693,273 L693,271 L692,270 L692,268 L691,267 L691,266 L690,265 L690,264 L688,262 L688,261 L683,256 L682,256 L681,255 L680,255 L679,254 L679,251 L680,250 L680,247 L681,246 L681,242 L682,241 L682,236 L683,235 L683,229 L684,228 L684,221 L685,220 L685,184 L684,183 L684,176 L683,175 L683,171 L682,170 L682,166 L681,165 L681,162 L680,161 L680,159 L679,158 L679,155 L678,154 L678,152 L677,151 L677,150 L676,149 L676,147 L675,146 L675,144 L674,143 L674,142 L673,141 L673,140 L672,139 L672,138 L671,137 L671,136 L670,135 L670,134 L669,133 L669,132 L667,130 L667,129 L666,128 L666,127 L664,125 L664,124 L662,122 L662,121 L658,117 L658,116 L647,105 L646,105 L643,102 L642,102 L640,100 L639,100 L638,99 L637,99 L636,98 L635,98 L634,97 L633,97 L632,96 L631,96 L630,95 L629,95 L628,94 L625,94 L624,93 L621,93 L620,92 L617,92 L604,79 L603,79 L600,76 L599,76 L596,73 L595,73 L593,71 L592,71 L591,70 L590,70 L588,68 L587,68 L586,67 L585,67 L584,66 L583,66 L582,65 L581,65 L580,64 L579,64 L578,63 L577,63 L576,62 L575,62 L574,61 L572,61 L571,60 L570,60 L569,59 L567,59 L566,58 L564,58 L563,57 L561,57 L560,56 L558,56 L557,55 L554,55 L553,54 L551,54 L550,53 L546,53 L545,52 L542,52 L541,51 L536,51 L535,50 L530,50 L529,49 L522,49 L521,48 L506,48 L505,47 Z M708,699 L709,698 L723,698 L724,699 L727,699 L728,700 L730,700 L731,701 L733,701 L734,702 L735,702 L736,703 L737,703 L738,704 L739,704 L741,706 L742,706 L745,709 L746,709 L750,713 L750,714 L754,718 L754,719 L756,721 L756,722 L757,723 L757,724 L758,725 L758,727 L759,728 L759,730 L760,731 L760,734 L761,735 L761,746 L760,747 L760,752 L759,753 L759,756 L758,757 L758,760 L757,761 L757,763 L756,764 L756,766 L755,767 L755,769 L754,770 L754,771 L753,772 L753,774 L752,775 L752,776 L751,777 L751,778 L750,779 L750,780 L749,781 L749,782 L748,783 L748,784 L746,786 L746,787 L745,788 L745,789 L743,791 L743,792 L740,795 L740,796 L727,809 L726,809 L724,811 L723,811 L722,812 L721,812 L719,814 L717,814 L716,815 L715,815 L714,816 L712,816 L711,817 L708,817 L707,818 L700,818 L699,819 L697,819 L696,818 L691,818 L690,817 L687,817 L686,816 L684,816 L683,815 L681,815 L680,814 L679,814 L677,812 L676,812 L674,810 L673,810 L668,805 L668,804 L665,801 L665,800 L664,799 L664,798 L663,797 L663,796 L662,795 L662,793 L661,792 L661,789 L660,788 L660,771 L661,770 L661,765 L662,764 L662,761 L663,760 L663,756 L664,755 L664,751 L665,750 L665,747 L666,746 L666,743 L667,742 L667,740 L668,739 L668,736 L669,735 L669,734 L670,733 L670,731 L671,730 L671,729 L672,728 L672,727 L673,726 L673,725 L674,724 L674,723 L676,721 L676,720 L678,718 L678,717 L688,707 L689,707 L691,705 L692,705 L694,703 L695,703 L696,702 L698,702 L699,701 L700,701 L701,700 L703,700 L704,699 Z M532,622 L533,621 L679,621 L680,622 L680,683 L678,685 L677,685 L675,687 L674,687 L671,690 L670,690 L661,699 L661,700 L657,704 L657,705 L655,707 L655,708 L653,710 L653,711 L652,712 L652,713 L651,714 L651,715 L650,716 L650,717 L649,718 L649,720 L648,721 L648,722 L647,723 L647,725 L646,726 L646,728 L645,729 L645,731 L644,732 L644,734 L643,735 L643,738 L642,739 L642,742 L641,743 L641,746 L640,747 L640,750 L639,751 L639,755 L638,756 L638,760 L637,761 L637,766 L636,767 L636,774 L635,775 L635,782 L636,783 L636,791 L637,792 L637,796 L638,797 L638,800 L639,801 L639,803 L640,804 L640,806 L641,807 L641,808 L642,809 L642,810 L643,811 L643,812 L644,813 L644,814 L646,816 L646,817 L649,820 L649,821 L657,829 L658,829 L661,832 L662,832 L663,833 L664,833 L666,835 L667,835 L668,836 L669,836 L670,837 L671,837 L672,838 L674,838 L675,839 L677,839 L678,840 L679,840 L680,841 L680,904 L679,905 L671,905 L670,906 L660,906 L659,907 L649,907 L648,908 L638,908 L637,909 L626,909 L625,910 L615,910 L614,911 L602,911 L601,912 L591,912 L590,913 L580,913 L579,914 L568,914 L567,915 L557,915 L556,916 L544,916 L543,917 L531,917 L530,918 L519,918 L518,919 L506,919 L505,920 L504,920 L503,919 L503,650 L504,649 L504,646 L505,645 L505,643 L506,642 L506,641 L507,640 L507,639 L508,638 L508,637 L518,627 L519,627 L520,626 L521,626 L523,624 L525,624 L526,623 L528,623 L529,622 Z M300,622 L301,621 L446,621 L447,622 L450,622 L451,623 L453,623 L454,624 L455,624 L456,625 L458,625 L460,627 L461,627 L462,628 L463,628 L472,637 L472,638 L474,640 L474,641 L475,642 L475,643 L476,644 L476,646 L477,647 L477,649 L478,650 L478,655 L479,656 L479,919 L478,920 L472,920 L471,919 L461,919 L460,918 L448,918 L447,917 L437,917 L436,916 L424,916 L423,915 L413,915 L412,914 L401,914 L400,913 L390,913 L389,912 L378,912 L377,911 L367,911 L366,910 L356,910 L355,909 L345,909 L344,908 L334,908 L333,907 L323,907 L322,906 L313,906 L312,905 L302,905 L300,903 Z M792,589 L793,588 L796,591 L796,592 L798,594 L798,595 L799,596 L799,597 L801,599 L801,600 L802,601 L802,602 L803,603 L803,604 L805,606 L805,607 L806,608 L806,609 L807,610 L807,611 L808,612 L808,613 L809,614 L809,615 L810,616 L810,618 L811,619 L811,620 L812,621 L812,622 L813,623 L813,624 L814,625 L814,627 L815,628 L815,629 L816,630 L816,632 L817,633 L817,634 L818,635 L818,637 L819,638 L819,640 L820,641 L820,643 L821,644 L821,647 L822,648 L822,650 L823,651 L823,654 L824,655 L824,657 L825,658 L825,661 L826,662 L826,665 L827,666 L827,670 L828,671 L828,674 L829,675 L829,679 L830,680 L830,684 L831,685 L831,690 L832,691 L832,696 L833,697 L833,702 L834,703 L834,709 L835,710 L835,716 L836,717 L836,724 L837,725 L837,733 L838,734 L838,744 L839,745 L839,758 L840,759 L840,768 L839,769 L839,779 L838,780 L838,784 L837,785 L837,789 L836,790 L836,792 L835,793 L835,795 L834,796 L834,797 L833,798 L833,799 L832,800 L832,801 L831,802 L831,803 L830,804 L830,805 L829,806 L829,807 L827,809 L827,810 L822,815 L822,816 L819,819 L818,819 L813,824 L812,824 L810,826 L809,826 L807,828 L806,828 L805,829 L804,829 L803,830 L802,830 L801,831 L800,831 L799,832 L798,832 L797,833 L796,833 L795,834 L793,834 L792,835 L790,835 L789,836 L787,836 L786,837 L784,837 L783,838 L781,838 L780,839 L777,839 L776,840 L773,840 L772,841 L769,841 L768,842 L765,842 L764,843 L760,843 L759,844 L756,844 L755,845 L751,845 L750,846 L746,846 L745,847 L741,847 L740,848 L735,848 L734,849 L730,849 L729,850 L724,850 L723,851 L717,851 L716,852 L710,852 L709,853 L706,853 L705,852 L705,843 L706,842 L711,842 L712,841 L716,841 L717,840 L719,840 L720,839 L722,839 L723,838 L724,838 L725,837 L727,837 L728,836 L729,836 L730,835 L731,835 L732,834 L733,834 L735,832 L736,832 L737,831 L738,831 L740,829 L741,829 L744,826 L745,826 L759,812 L759,811 L762,808 L762,807 L764,805 L764,804 L766,802 L766,801 L767,800 L767,799 L769,797 L769,796 L770,795 L770,794 L771,793 L771,792 L772,791 L772,790 L773,789 L773,787 L774,786 L774,785 L775,784 L775,783 L776,782 L776,781 L777,780 L777,778 L778,777 L778,775 L779,774 L779,773 L780,772 L780,769 L781,768 L781,766 L782,765 L782,762 L783,761 L783,757 L784,756 L784,751 L785,750 L785,734 L784,733 L784,728 L783,727 L783,724 L782,723 L782,721 L781,720 L781,718 L780,717 L780,715 L779,714 L779,713 L778,712 L778,711 L777,710 L777,709 L776,708 L776,707 L774,705 L774,704 L771,701 L771,700 L760,689 L759,689 L757,687 L756,687 L754,685 L753,685 L752,684 L752,683 L753,682 L753,681 L754,680 L754,678 L755,677 L755,676 L756,675 L756,674 L757,673 L757,671 L758,670 L758,669 L759,668 L759,667 L760,666 L760,664 L761,663 L761,662 L762,661 L762,660 L763,659 L763,657 L764,656 L764,655 L765,654 L765,653 L766,652 L766,650 L767,649 L767,648 L768,647 L768,646 L769,645 L769,643 L770,642 L770,641 L771,640 L771,639 L772,638 L772,636 L773,635 L773,634 L774,633 L774,632 L775,631 L775,629 L776,628 L776,627 L777,626 L777,625 L778,624 L778,622 L779,621 L779,620 L780,619 L780,618 L781,617 L781,615 L782,614 L782,613 L783,612 L783,611 L784,610 L784,608 L785,607 L785,606 L786,605 L786,604 L787,603 L787,601 L788,600 L788,599 L789,598 L789,597 L790,596 L790,594 L791,593 L791,592 L792,591 Z M363,519 L364,518 L366,518 L367,519 L367,520 L369,522 L369,523 L371,525 L371,526 L375,530 L375,531 L391,547 L392,547 L396,551 L397,551 L400,554 L401,554 L403,556 L404,556 L406,558 L407,558 L409,560 L410,560 L411,561 L412,561 L414,563 L415,563 L416,564 L417,564 L418,565 L419,565 L420,566 L421,566 L422,567 L423,567 L424,568 L425,568 L426,569 L427,569 L428,570 L430,570 L431,571 L432,571 L433,572 L435,572 L436,573 L437,573 L438,574 L440,574 L441,575 L443,575 L444,576 L446,576 L447,577 L450,577 L451,578 L454,578 L455,579 L458,579 L459,580 L464,580 L465,581 L470,581 L471,582 L478,582 L479,583 L514,583 L515,582 L522,582 L523,581 L528,581 L529,580 L533,580 L534,579 L538,579 L539,578 L542,578 L543,577 L545,577 L546,576 L549,576 L550,575 L552,575 L553,574 L555,574 L556,573 L557,573 L558,572 L560,572 L561,571 L562,571 L563,570 L565,570 L566,569 L567,569 L568,568 L569,568 L570,567 L571,567 L572,566 L573,566 L574,565 L575,565 L576,564 L577,564 L578,563 L579,563 L580,562 L581,562 L583,560 L584,560 L585,559 L586,559 L588,557 L589,557 L591,555 L592,555 L595,552 L596,552 L600,548 L601,548 L617,532 L617,531 L620,528 L620,527 L623,524 L623,523 L625,521 L625,520 L627,518 L630,518 L631,519 L633,519 L634,520 L637,520 L638,521 L640,521 L641,522 L644,522 L645,523 L648,523 L649,524 L653,524 L654,525 L657,525 L658,526 L662,526 L663,527 L666,527 L667,528 L670,528 L671,529 L675,529 L676,530 L679,530 L680,531 L684,531 L685,532 L688,532 L689,533 L692,533 L693,534 L696,534 L697,535 L699,535 L700,536 L703,536 L704,537 L707,537 L708,538 L710,538 L711,539 L713,539 L714,540 L716,540 L717,541 L720,541 L721,542 L722,542 L723,543 L725,543 L726,544 L728,544 L729,545 L731,545 L732,546 L734,546 L735,547 L736,547 L737,548 L739,548 L740,549 L741,549 L742,550 L743,550 L744,551 L745,551 L746,552 L747,552 L748,553 L749,553 L750,554 L751,554 L752,555 L753,555 L754,556 L755,556 L756,557 L757,557 L758,558 L759,558 L760,559 L761,559 L763,561 L764,561 L765,562 L766,562 L769,565 L770,565 L773,568 L772,569 L772,570 L771,571 L771,573 L770,574 L770,575 L769,576 L769,578 L768,579 L768,580 L767,581 L767,582 L766,583 L766,585 L765,586 L765,587 L764,588 L764,589 L763,590 L763,592 L762,593 L762,594 L761,595 L761,596 L760,597 L760,599 L759,600 L759,601 L758,602 L758,603 L757,604 L757,606 L756,607 L756,608 L755,609 L755,610 L754,611 L754,613 L753,614 L753,615 L752,616 L752,618 L751,619 L751,620 L750,621 L750,622 L749,623 L749,625 L748,626 L748,627 L747,628 L747,629 L746,630 L746,632 L745,633 L745,634 L744,635 L744,636 L743,637 L743,638 L742,639 L742,641 L741,642 L741,643 L740,644 L740,646 L739,647 L739,648 L738,649 L738,650 L737,651 L737,653 L736,654 L736,655 L735,656 L735,657 L734,658 L734,660 L733,661 L733,662 L732,663 L732,664 L731,665 L731,667 L730,668 L730,669 L729,670 L729,671 L728,672 L728,673 L727,674 L724,674 L723,673 L708,673 L707,674 L706,674 L705,673 L705,604 L704,603 L704,602 L703,601 L703,600 L701,598 L700,598 L699,597 L698,597 L697,596 L530,596 L529,597 L525,597 L524,598 L522,598 L521,599 L519,599 L518,600 L516,600 L515,601 L514,601 L513,602 L512,602 L511,603 L510,603 L509,604 L508,604 L506,606 L505,606 L503,608 L502,608 L491,619 L482,610 L481,610 L478,607 L477,607 L476,606 L475,606 L473,604 L472,604 L471,603 L470,603 L469,602 L467,602 L466,601 L465,601 L464,600 L462,600 L461,599 L459,599 L458,598 L455,598 L454,597 L449,597 L448,596 L283,596 L282,597 L281,597 L277,601 L277,603 L276,604 L276,851 L275,852 L273,852 L272,851 L267,851 L266,850 L262,850 L261,849 L257,849 L256,848 L252,848 L251,847 L247,847 L246,846 L243,846 L242,845 L238,845 L237,844 L234,844 L233,843 L229,843 L228,842 L226,842 L225,841 L221,841 L220,840 L218,840 L217,839 L214,839 L213,838 L211,838 L210,837 L207,837 L206,836 L204,836 L203,835 L202,835 L201,834 L199,834 L198,833 L197,833 L196,832 L194,832 L193,831 L192,831 L191,830 L190,830 L189,829 L188,829 L186,827 L185,827 L184,826 L183,826 L180,823 L179,823 L175,819 L174,819 L170,815 L170,814 L166,810 L166,809 L164,807 L164,806 L162,804 L162,803 L161,802 L161,801 L160,800 L160,799 L159,798 L159,796 L158,795 L158,793 L157,792 L157,790 L156,789 L156,786 L155,785 L155,779 L154,778 L154,767 L153,766 L153,760 L154,759 L154,745 L155,744 L155,734 L156,733 L156,725 L157,724 L157,717 L158,716 L158,710 L159,709 L159,703 L160,702 L160,697 L161,696 L161,691 L162,690 L162,686 L163,685 L163,680 L164,679 L164,676 L165,675 L165,671 L166,670 L166,667 L167,666 L167,662 L168,661 L168,658 L169,657 L169,655 L170,654 L170,651 L171,650 L171,648 L172,647 L172,645 L173,644 L173,642 L174,641 L174,639 L175,638 L175,636 L176,635 L176,633 L177,632 L177,631 L178,630 L178,628 L179,627 L179,626 L180,625 L180,623 L181,622 L181,621 L182,620 L182,619 L183,618 L183,617 L184,616 L184,615 L185,614 L185,613 L186,612 L186,611 L187,610 L187,609 L188,608 L188,607 L189,606 L189,605 L190,604 L190,603 L192,601 L192,600 L193,599 L193,598 L195,596 L195,595 L197,593 L197,592 L199,590 L199,589 L203,585 L203,584 L220,567 L221,567 L224,564 L225,564 L227,562 L228,562 L229,561 L230,561 L232,559 L233,559 L234,558 L235,558 L237,556 L238,556 L239,555 L240,555 L241,554 L242,554 L243,553 L244,553 L245,552 L246,552 L247,551 L248,551 L249,550 L251,550 L252,549 L253,549 L254,548 L255,548 L256,547 L258,547 L259,546 L260,546 L261,545 L263,545 L264,544 L266,544 L267,543 L269,543 L270,542 L272,542 L273,541 L275,541 L276,540 L278,540 L279,539 L281,539 L282,538 L284,538 L285,537 L288,537 L289,536 L292,536 L293,535 L296,535 L297,534 L299,534 L300,533 L304,533 L305,532 L308,532 L309,531 L312,531 L313,530 L317,530 L318,529 L321,529 L322,528 L326,528 L327,527 L331,527 L332,526 L335,526 L336,525 L339,525 L340,524 L344,524 L345,523 L348,523 L349,522 L352,522 L353,521 L356,521 L357,520 L360,520 L361,519 Z M409,475 L410,474 L411,475 L412,475 L415,478 L416,478 L418,480 L419,480 L421,482 L422,482 L424,484 L425,484 L426,485 L427,485 L428,486 L429,486 L431,488 L432,488 L433,489 L434,489 L435,490 L436,490 L437,491 L438,491 L439,492 L440,492 L441,493 L443,493 L444,494 L445,494 L446,495 L447,495 L448,496 L450,496 L451,497 L453,497 L454,498 L456,498 L457,499 L459,499 L460,500 L463,500 L464,501 L467,501 L468,502 L472,502 L473,503 L478,503 L479,504 L486,504 L487,505 L508,505 L509,504 L516,504 L517,503 L522,503 L523,502 L527,502 L528,501 L531,501 L532,500 L534,500 L535,499 L537,499 L538,498 L541,498 L542,497 L543,497 L544,496 L546,496 L547,495 L548,495 L549,494 L551,494 L552,493 L553,493 L554,492 L555,492 L556,491 L557,491 L558,490 L559,490 L560,489 L561,489 L562,488 L563,488 L565,486 L566,486 L568,484 L569,484 L570,483 L571,483 L574,480 L575,480 L577,478 L578,478 L582,474 L583,474 L584,475 L584,477 L585,478 L585,479 L586,480 L586,481 L587,482 L587,483 L588,484 L588,485 L589,486 L589,487 L590,488 L590,489 L592,491 L592,492 L594,494 L594,495 L598,499 L598,500 L601,503 L602,503 L605,506 L604,507 L604,508 L601,511 L601,512 L595,518 L595,519 L587,527 L586,527 L581,532 L580,532 L577,535 L576,535 L574,537 L573,537 L571,539 L570,539 L568,541 L567,541 L566,542 L565,542 L564,543 L563,543 L562,544 L561,544 L560,545 L559,545 L558,546 L557,546 L556,547 L554,547 L553,548 L552,548 L551,549 L549,549 L548,550 L547,550 L546,551 L544,551 L543,552 L541,552 L540,553 L537,553 L536,554 L533,554 L532,555 L529,555 L528,556 L524,556 L523,557 L518,557 L517,558 L508,558 L507,559 L486,559 L485,558 L478,558 L477,557 L471,557 L470,556 L466,556 L465,555 L461,555 L460,554 L457,554 L456,553 L454,553 L453,552 L450,552 L449,551 L448,551 L447,550 L445,550 L444,549 L442,549 L441,548 L440,548 L439,547 L438,547 L437,546 L435,546 L434,545 L433,545 L432,544 L431,544 L430,543 L429,543 L428,542 L427,542 L425,540 L424,540 L423,539 L422,539 L420,537 L419,537 L417,535 L416,535 L413,532 L412,532 L407,527 L406,527 L396,517 L396,516 L392,512 L392,511 L389,508 L389,507 L388,506 L389,505 L390,505 L398,497 L398,496 L400,494 L400,493 L402,491 L402,490 L404,488 L404,487 L405,486 L405,485 L406,484 L406,482 L407,481 L407,480 L408,479 L408,477 L409,476 Z M587,184 L588,183 L589,183 L590,184 L590,185 L591,186 L591,187 L593,189 L593,190 L595,192 L595,193 L597,195 L597,196 L600,199 L600,200 L606,206 L606,207 L615,216 L615,217 L619,221 L619,222 L621,224 L621,225 L623,227 L623,228 L625,230 L625,231 L626,232 L626,233 L627,234 L627,235 L628,236 L628,237 L629,238 L629,239 L630,240 L630,241 L631,242 L631,244 L632,245 L632,247 L633,248 L633,250 L634,251 L634,253 L635,254 L635,257 L636,258 L636,263 L637,264 L637,271 L638,272 L638,277 L639,278 L639,280 L640,281 L640,282 L644,286 L645,286 L646,287 L653,287 L654,286 L655,286 L659,282 L659,281 L660,280 L660,279 L664,275 L665,275 L669,279 L669,280 L670,281 L670,285 L671,286 L671,300 L670,301 L670,308 L669,309 L669,312 L668,313 L668,314 L667,315 L667,316 L666,317 L666,318 L664,320 L664,321 L659,326 L658,326 L656,328 L655,328 L654,329 L652,329 L651,330 L649,330 L648,331 L646,331 L645,332 L644,332 L643,333 L642,333 L639,336 L639,337 L638,338 L638,340 L637,341 L637,343 L636,344 L636,346 L635,347 L635,350 L634,351 L634,353 L633,354 L633,356 L632,357 L632,359 L631,360 L631,362 L630,363 L630,365 L629,366 L629,367 L628,368 L628,370 L627,371 L627,372 L626,373 L626,375 L625,376 L625,377 L624,378 L624,380 L623,381 L623,382 L622,383 L622,384 L621,385 L621,386 L620,387 L620,388 L619,389 L619,390 L618,391 L618,392 L617,393 L617,394 L616,395 L616,396 L615,397 L615,398 L614,399 L614,400 L612,402 L612,403 L611,404 L611,405 L610,406 L610,407 L608,409 L608,410 L607,411 L607,412 L605,414 L605,415 L602,418 L602,419 L599,422 L599,423 L596,426 L596,427 L572,451 L571,451 L567,455 L566,455 L563,458 L562,458 L560,460 L559,460 L557,462 L556,462 L554,464 L553,464 L552,465 L551,465 L550,466 L549,466 L547,468 L546,468 L545,469 L544,469 L543,470 L542,470 L541,471 L539,471 L538,472 L537,472 L536,473 L534,473 L533,474 L532,474 L531,475 L529,475 L528,476 L525,476 L524,477 L521,477 L520,478 L517,478 L516,479 L510,479 L509,480 L486,480 L485,479 L479,479 L478,478 L474,478 L473,477 L470,477 L469,476 L466,476 L465,475 L463,475 L462,474 L460,474 L459,473 L458,473 L457,472 L456,472 L455,471 L453,471 L452,470 L451,470 L450,469 L449,469 L448,468 L447,468 L446,467 L445,467 L444,466 L443,466 L442,465 L441,465 L439,463 L438,463 L436,461 L435,461 L433,459 L432,459 L430,457 L429,457 L426,454 L425,454 L420,449 L419,449 L401,431 L401,430 L396,425 L396,424 L393,421 L393,420 L390,417 L390,416 L388,414 L388,413 L387,412 L387,411 L385,409 L385,408 L383,406 L383,405 L382,404 L382,403 L381,402 L381,401 L379,399 L379,398 L378,397 L378,396 L377,395 L377,394 L376,393 L376,392 L375,391 L375,390 L374,389 L374,388 L373,387 L373,386 L372,385 L372,384 L371,383 L371,381 L370,380 L370,379 L369,378 L369,377 L368,376 L368,374 L367,373 L367,372 L366,371 L366,370 L365,369 L365,367 L364,366 L364,364 L363,363 L363,361 L362,360 L362,358 L361,357 L361,355 L360,354 L360,352 L359,351 L359,349 L358,348 L358,346 L357,345 L357,343 L356,342 L356,340 L355,339 L355,337 L353,335 L353,334 L351,332 L349,332 L348,331 L341,331 L340,330 L339,330 L338,329 L337,329 L336,328 L335,328 L333,326 L332,326 L328,322 L328,321 L326,319 L326,318 L325,317 L325,316 L324,315 L324,312 L323,311 L323,306 L322,305 L322,283 L323,282 L323,280 L324,279 L324,278 L327,275 L332,275 L334,277 L334,278 L335,279 L335,280 L336,281 L336,282 L340,286 L342,286 L343,287 L349,287 L350,286 L351,286 L355,282 L355,281 L356,280 L356,277 L357,276 L357,267 L358,266 L358,261 L359,260 L359,257 L360,256 L360,253 L361,252 L361,250 L362,249 L362,247 L363,246 L363,244 L364,243 L364,242 L365,241 L365,240 L366,239 L366,238 L367,237 L367,236 L368,235 L368,234 L369,233 L369,232 L371,230 L371,229 L373,227 L373,226 L375,224 L375,223 L389,209 L390,209 L392,207 L393,207 L395,205 L396,205 L398,203 L399,203 L400,202 L401,202 L402,201 L404,201 L405,200 L406,200 L407,199 L409,199 L410,198 L413,198 L414,197 L418,197 L419,196 L441,196 L442,197 L448,197 L449,198 L454,198 L455,199 L462,199 L463,200 L471,200 L472,201 L486,201 L487,202 L514,202 L515,201 L527,201 L528,200 L536,200 L537,199 L542,199 L543,198 L548,198 L549,197 L553,197 L554,196 L557,196 L558,195 L561,195 L562,194 L564,194 L565,193 L567,193 L568,192 L570,192 L571,191 L573,191 L574,190 L575,190 L576,189 L578,189 L579,188 L580,188 L581,187 L582,187 L583,186 L584,186 L586,184 Z M484,73 L485,72 L507,72 L508,73 L521,73 L522,74 L529,74 L530,75 L534,75 L535,76 L539,76 L540,77 L543,77 L544,78 L547,78 L548,79 L551,79 L552,80 L554,80 L555,81 L557,81 L558,82 L559,82 L560,83 L562,83 L563,84 L564,84 L565,85 L567,85 L568,86 L569,86 L570,87 L571,87 L572,88 L573,88 L575,90 L576,90 L577,91 L578,91 L579,92 L580,92 L583,95 L584,95 L587,98 L588,98 L603,113 L604,113 L605,114 L607,114 L608,115 L612,115 L613,116 L615,116 L616,117 L618,117 L619,118 L620,118 L621,119 L622,119 L623,120 L624,120 L625,121 L626,121 L628,123 L629,123 L632,126 L633,126 L640,133 L640,134 L643,137 L643,138 L645,140 L645,141 L647,143 L647,144 L648,145 L648,146 L649,147 L649,148 L650,149 L650,150 L651,151 L651,152 L652,153 L652,155 L653,156 L653,157 L654,158 L654,160 L655,161 L655,163 L656,164 L656,167 L657,168 L657,171 L658,172 L658,176 L659,177 L659,181 L660,182 L660,189 L661,190 L661,215 L660,216 L660,225 L659,226 L659,231 L658,232 L658,236 L657,237 L657,238 L656,239 L655,238 L655,236 L654,235 L654,233 L653,232 L653,231 L652,230 L652,229 L651,228 L651,227 L650,226 L650,225 L649,224 L649,223 L648,222 L648,221 L647,220 L647,219 L645,217 L645,216 L644,215 L644,214 L642,212 L642,211 L639,208 L639,207 L636,204 L636,203 L631,198 L631,197 L620,186 L620,185 L616,181 L616,180 L614,178 L614,177 L612,175 L612,174 L611,173 L611,172 L609,170 L609,169 L608,168 L608,167 L607,166 L607,165 L606,164 L606,163 L605,162 L605,160 L603,158 L603,157 L599,153 L597,153 L596,152 L590,152 L589,153 L588,153 L587,154 L586,154 L584,156 L583,156 L580,159 L579,159 L577,161 L576,161 L575,162 L574,162 L572,164 L571,164 L570,165 L569,165 L568,166 L567,166 L566,167 L565,167 L564,168 L562,168 L561,169 L559,169 L558,170 L556,170 L555,171 L553,171 L552,172 L549,172 L548,173 L545,173 L544,174 L540,174 L539,175 L532,175 L531,176 L523,176 L522,177 L479,177 L478,176 L468,176 L467,175 L460,175 L459,174 L453,174 L452,173 L446,173 L445,172 L437,172 L436,171 L422,171 L421,172 L414,172 L413,173 L409,173 L408,174 L405,174 L404,175 L401,175 L400,176 L399,176 L398,177 L396,177 L395,178 L394,178 L393,179 L391,179 L390,180 L389,180 L388,181 L387,181 L385,183 L384,183 L383,184 L382,184 L380,186 L379,186 L377,188 L376,188 L373,191 L372,191 L358,205 L358,206 L355,209 L355,210 L353,212 L353,213 L351,215 L351,216 L349,218 L349,219 L348,220 L348,221 L346,223 L346,224 L345,225 L345,226 L344,227 L344,228 L343,229 L343,230 L342,231 L342,233 L341,234 L341,235 L340,236 L340,238 L339,239 L339,240 L338,241 L338,243 L337,244 L337,246 L336,247 L335,246 L335,243 L334,242 L334,236 L333,235 L333,223 L332,222 L332,213 L333,212 L333,199 L334,198 L334,192 L335,191 L335,186 L336,185 L336,181 L337,180 L337,177 L338,176 L338,174 L339,173 L339,170 L340,169 L340,167 L341,166 L341,165 L342,164 L342,162 L343,161 L343,160 L344,159 L344,157 L345,156 L345,155 L346,154 L346,153 L347,152 L347,151 L348,150 L348,149 L349,148 L349,147 L350,146 L350,145 L352,143 L352,142 L354,140 L354,139 L355,138 L355,137 L358,134 L358,133 L361,130 L361,129 L366,124 L366,123 L378,111 L379,111 L384,106 L385,106 L388,103 L389,103 L392,100 L393,100 L394,99 L395,99 L397,97 L398,97 L400,95 L401,95 L402,94 L403,94 L404,93 L405,93 L406,92 L407,92 L408,91 L409,91 L410,90 L411,90 L412,89 L413,89 L414,88 L415,88 L416,87 L417,87 L418,86 L420,86 L421,85 L422,85 L423,84 L425,84 L426,83 L428,83 L429,82 L431,82 L432,81 L434,81 L435,80 L437,80 L438,79 L441,79 L442,78 L445,78 L446,77 L450,77 L451,76 L455,76 L456,75 L461,75 L462,74 L470,74 L471,73 Z" fill-rule="evenodd" fill="black"/></svg>
