<svg width="50" height="50" viewBox="0 0 50 50" fill="none" xmlns="http://www.w3.org/2000/svg">
<circle cx="25" cy="25" r="24.5" fill="#FDFBF3" stroke="#A6A6A6"/>
<path fill-rule="evenodd" clip-rule="evenodd" d="M24.2237 10L24.1923 10.0323H23.7521L23.7207 10.0646H23.4692L23.4377 10.0969H23.2491L23.2177 10.1292H23.0605L23.029 10.1615H22.9033L22.8718 10.1938H22.7775L22.7461 10.2261H22.6518L22.6203 10.2584H22.526L22.4946 10.2906H22.4317L22.4002 10.3229H22.3059L22.2745 10.3552H22.2116L22.1802 10.3875H22.1173L22.0859 10.4198H22.0544L22.023 10.4521H21.9601L21.9287 10.4844H21.8658L21.8343 10.5167H21.8029L21.7715 10.549H21.74L21.7086 10.5813H21.6457L21.6143 10.6136H21.5828L21.5514 10.6459H21.52L21.4885 10.6782H21.4571L21.4256 10.7105H21.3942L21.3628 10.7428H21.3313L21.2684 10.8073H21.237L21.2056 10.8396H21.1741L21.1427 10.8719H21.1112L21.0484 10.9365H21.0169L20.9541 11.0011H20.9226L20.8912 11.0334H20.8597L20.7654 11.1303H20.734L20.6711 11.1949H20.6397L20.5139 11.3241H20.4825L20.3253 11.4855H20.2938L19.8851 11.9053V11.9376L19.6965 12.1314V12.1637L19.6022 12.2606V12.2929L19.5079 12.3898V12.422L19.445 12.4866V12.5189L19.3821 12.5835V12.6158L19.3507 12.6481V12.6804L19.3192 12.7127V12.745L19.2563 12.8096V12.8419L19.2249 12.8742V12.9065L19.1935 12.9388V12.971L19.162 13.0033V13.0356L19.1306 13.0679V13.1002L19.0992 13.1325V13.1648L19.0677 13.1971V13.2617L19.0363 13.294V13.3263L19.0048 13.3586V13.4232L18.9734 13.4555V13.4878L18.942 13.52V13.5846L18.9105 13.6169V13.6815L18.8791 13.7138V13.7784L18.8476 13.8107V13.9076L18.8162 13.9399V14.0367L18.7848 14.069V14.1659L18.7533 14.1982V14.2951L18.7219 14.3274V14.4889L18.6904 14.5212V14.7149L18.659 14.7472V15.0379L18.6276 15.0702V15.8452L18.659 15.8775V16.2327L18.6904 16.265V16.4588L18.7219 16.4911V16.7171L18.659 16.7817H18.6276L18.5333 16.8786V16.9109L18.4704 16.9755V17.0078L18.4389 17.0401V17.0724L18.4075 17.1047V17.1693L18.3761 17.2016V17.2661L18.3446 17.2984V17.3953L18.3132 17.4276V17.5891L18.2817 17.6214V18.235L18.3132 18.2673V18.4933L18.3446 18.5256V18.6548L18.3761 18.6871V18.7517L18.4075 18.784V18.8808L18.4389 18.9131V18.9454L18.4704 18.9777V19.0423L18.5018 19.0746V19.1069L18.5333 19.1392V19.1715L18.5647 19.2038V19.2361L18.6276 19.3007V19.333L18.6904 19.3976V19.4298L18.9105 19.6559H18.942L19.0048 19.7205H19.0363L19.0992 19.7851H19.1306L19.162 19.8174H19.1935L19.2249 19.8497H19.2878L19.3192 19.882H19.4135L19.4764 19.9465V19.9788L19.5079 20.0111V20.108L19.5393 20.1403V20.2049L19.5707 20.2372V20.3018L19.6022 20.3341V20.3987L19.6336 20.431V20.4955L19.6651 20.5278V20.5924L19.6965 20.6247V20.657L19.7279 20.6893V20.7539L19.7594 20.7862V20.8185L19.7908 20.8508V20.9154L19.8222 20.9477V20.98L19.8537 21.0122V21.0768L19.8851 21.1091V21.1414L19.9166 21.1737V21.206L19.948 21.2383V21.2706L19.9794 21.3029V21.3352L20.0109 21.3675V21.3998L20.0423 21.4321V21.4644L20.0738 21.4967V21.529L20.1052 21.5612V21.5935L20.1366 21.6258V21.6581L20.1681 21.6904V21.7227L20.1995 21.755V21.7873L20.231 21.8196V21.8519L20.2938 21.9165V21.9488L20.3253 21.9811V22.0134L20.3881 22.078V22.1102L20.451 22.1748V22.2071L20.5139 22.2717V22.304L20.5768 22.3686V22.4009L20.6397 22.4655V22.4978L20.734 22.5947V22.6269L20.8597 22.7561V22.7884L20.9855 22.9176V22.9499L21.1112 23.0791V23.2728L21.0798 23.3051V23.4989L21.0484 23.5312V23.6604L21.0169 23.6927V23.7572L20.9855 23.7895V23.8218L20.9541 23.8541V23.8864L20.8912 23.951V23.9833L20.7025 24.1771H20.6711L20.6082 24.2416H20.5768L20.5139 24.3062H20.4825L20.451 24.3385H20.4196L20.3881 24.3708H20.3253L20.2938 24.4031H20.2624L20.231 24.4354H20.1681L20.1366 24.4677H20.0738L20.0423 24.5H19.948L19.9166 24.5323H19.8222L19.7908 24.5646H19.6651L19.6336 24.5969H19.5393L19.5079 24.6292H19.4135L19.3821 24.6615H19.2563L19.2249 24.6938H19.1306L19.0992 24.7261H18.9734L18.942 24.7584H18.8476L18.8162 24.7906H18.7219L18.6904 24.8229H18.5647L18.5333 24.8552H18.4389L18.4075 24.8875H18.3132L18.2817 24.9198H18.1874L18.156 24.9521H18.0617L18.0302 24.9844H17.9674L17.9359 25.0167H17.8416L17.8102 25.049H17.7473L17.7158 25.0813H17.6215L17.5901 25.1136H17.5272L17.4958 25.1459H17.4329L17.4015 25.1782H17.3386L17.3071 25.2105H17.2443L17.2128 25.2428H17.1499L17.1185 25.2751H17.0871L17.0556 25.3073H16.9927L16.9613 25.3396H16.8984L16.867 25.3719H16.8356L16.8041 25.4042H16.7412L16.7098 25.4365H16.6784L16.6469 25.4688H16.584L16.5526 25.5011H16.5212L16.4897 25.5334H16.4583L16.4268 25.5657H16.3954L16.364 25.598H16.3325L16.3011 25.6303H16.2696L16.2382 25.6626H16.2068L16.1753 25.6949H16.1439L16.1125 25.7272H16.081L16.0496 25.7595H16.0181L15.9867 25.7918H15.9553L15.9238 25.8241H15.8924L15.8295 25.8886H15.7981L15.7666 25.9209H15.7352L15.6723 25.9855H15.6409L15.578 26.0501H15.5466L15.4522 26.147H15.4208L15.295 26.2762H15.2636L14.7606 26.7929V26.8252L14.6348 26.9543V26.9866L14.5405 27.0835V27.1158L14.4776 27.1804V27.2127L14.4148 27.2773V27.3096L14.3519 27.3742V27.4065L14.289 27.471V27.5033L14.2576 27.5356V27.5679L14.2261 27.6002V27.6325L14.1947 27.6648V27.6971L14.1318 27.7617V27.794L14.1004 27.8263V27.8586L14.0689 27.8909V27.9232L14.0375 27.9555V27.9878L14.006 28.02V28.0846L13.9746 28.1169V28.1492L13.9432 28.1815V28.2138L13.9117 28.2461V28.2784L13.8803 28.3107V28.3753L13.8489 28.4076V28.4399L13.8174 28.4722V28.5367L13.786 28.569V28.6013L13.7545 28.6336V28.6982L13.7231 28.7305V28.7951L13.6917 28.8274V28.892L13.6602 28.9243V28.9889L13.6288 29.0212V29.0857L13.5973 29.118V29.1826L13.5659 29.2149V29.3118L13.5345 29.3441V29.441L13.503 29.4733V29.5702L13.4716 29.6024V29.6993L13.4401 29.7316V29.8285L13.4087 29.8608V29.9577L13.3773 29.99V30.1192L13.3458 30.1514V30.2806L13.3144 30.3129V30.4421L13.283 30.4744V30.6359L13.2515 30.6682V30.8296L13.2201 30.8619V31.0234L13.1886 31.0557V31.2171L13.1572 31.2494V31.4432L13.1258 31.4755V31.7016L13.0943 31.7339V31.9599L13.0629 31.9922V32.2829L13.0314 32.3151V32.6704L13 32.7027V33.6069L13.0314 33.6392V33.8976L13.0629 33.9298V34.059L13.0943 34.0913V34.1882L13.1258 34.2205V34.2851L13.1572 34.3174V34.382L13.1886 34.4143V34.4788L13.2201 34.5111V34.5434L13.2515 34.5757V34.6403L13.283 34.6726V34.7049L13.3144 34.7372V34.7695L13.3458 34.8018V34.8341L13.4087 34.8987V34.931L13.4716 34.9955V35.0278L13.5345 35.0924V35.1247L13.6602 35.2539V35.2862L13.8803 35.5122H13.9117L14.0375 35.6414H14.0689L14.1632 35.7383H14.1947L14.2576 35.8029H14.289L14.3204 35.8352H14.3519L14.4148 35.8998H14.4462L14.4776 35.9321H14.5091L14.5405 35.9644H14.5719L14.6034 35.9967H14.6348L14.6663 36.029H14.6977L14.7291 36.0612H14.7606L14.792 36.0935H14.8549L14.8863 36.1258H14.9178L14.9492 36.1581H14.9807L15.0121 36.1904H15.075L15.1064 36.2227H15.1693L15.2007 36.255H15.2636L15.295 36.2873H15.3579L15.3894 36.3196H15.4522L15.4837 36.3519H15.5466L15.578 36.3842H15.6723L15.7037 36.4165H15.7981L15.8295 36.4488H15.9238L15.9553 36.4811H16.0496L16.081 36.5134H16.1753L16.2068 36.5457H16.3325L16.364 36.578H16.4897L16.5212 36.6102H16.6469L16.6784 36.6425H16.8041L16.8356 36.6748H16.9927L17.0242 36.7071H17.1814L17.2128 36.7394H17.37L17.4015 36.7717H17.5586L17.6215 36.8363V38.1604L17.653 38.1927V38.2572L17.7787 38.3864H17.8102L17.8416 38.4187H17.9359L17.9674 38.451H18.2503L18.2817 38.4833H18.5333L18.5647 38.5156H18.8476L18.8791 38.5479H19.1935L19.2249 38.5802H19.5079L19.5393 38.6125H19.8851L19.9166 38.6448H20.231L20.2624 38.6771H20.6082L20.6397 38.7094H20.9541L20.9855 38.7416H21.2999L21.3313 38.7739H21.6771L21.7086 38.8062H22.023L22.0544 38.8385H22.4002L22.4317 38.8708H22.8089L22.8404 38.9031H23.1862L23.2177 38.9354H23.5635L23.5949 38.9677H23.9407L23.9722 39H24.7267L24.7582 38.9677H25.1354L25.1669 38.9354H25.5756L25.607 38.9031H25.9528L25.9843 38.8708H26.3301L26.3615 38.8385H26.6759L26.7074 38.8062H27.0846L27.1161 38.7739H27.4305L27.4619 38.7416H27.8077L27.8392 38.7094H28.1536L28.185 38.6771H28.5308L28.5623 38.6448H28.8767L28.9081 38.6125H29.2225L29.2539 38.5802H29.5683L29.5998 38.5479H29.9141L29.9456 38.5156H30.26L30.2914 38.4833H30.5744L30.6058 38.451H30.8259L30.8573 38.4187H30.9202L30.9516 38.3864H30.9831L31.0459 38.3218V38.2895L31.0774 38.2572V38.2249L31.1088 38.1927V36.8686L31.1403 36.8363H31.2346L31.266 36.804H31.4547L31.4861 36.7717H31.6747L31.7062 36.7394H31.8948L31.9262 36.7071H32.0834L32.1149 36.6748H32.2721L32.3035 36.6425H32.4293L32.4607 36.6102H32.5865L32.6179 36.578H32.7437L32.7751 36.5457H32.9008L32.9323 36.5134H33.058L33.0895 36.4811H33.1838L33.2152 36.4488H33.3096L33.341 36.4165H33.4353L33.4667 36.3842H33.5611L33.5925 36.3519H33.6554L33.6868 36.3196H33.7497L33.7811 36.2873H33.844L33.8755 36.255H33.9383L33.9698 36.2227H34.0326L34.0641 36.1904H34.0955L34.127 36.1581H34.1898L34.2213 36.1258H34.2527L34.2842 36.0935H34.3156L34.347 36.0612H34.4099L34.4414 36.029H34.4728L34.5042 35.9967H34.5357L34.5671 35.9644H34.5985L34.6614 35.8998H34.6929L34.7243 35.8675H34.7557L34.8186 35.8029H34.8501L34.8815 35.7706H34.9129L35.0073 35.6737H35.0387L35.133 35.5768H35.1644L35.5103 35.2216V35.1893L35.6046 35.0924V35.0601L35.6675 34.9955V34.9633L35.7304 34.8987V34.8664L35.7618 34.8341V34.8018L35.7932 34.7695V34.7372L35.8247 34.7049V34.6726L35.8561 34.6403V34.608L35.8875 34.5757V34.5111L35.919 34.4788V34.4465L35.9504 34.4143V34.3497L35.9819 34.3174V34.2205L36.0133 34.1882V34.0913L36.0447 34.059V33.9298L36.0762 33.8976V33.6715L36.1076 33.6392V32.7027L36.0762 32.6704V32.3151L36.0447 32.2829V31.9922L36.0133 31.9599V31.7339L35.9819 31.7016V31.4755L35.9504 31.4432V31.2494L35.919 31.2171V31.0557L35.8875 31.0234V30.8296L35.8561 30.7973V30.6359L35.8247 30.6036V30.4744L35.7932 30.4421V30.3129L35.7618 30.2806V30.1514L35.7304 30.1192V29.99L35.6989 29.9577V29.8608L35.6675 29.8285V29.7316L35.636 29.6993V29.6024L35.6046 29.5702V29.4733L35.5732 29.441V29.3441L35.5417 29.3118V29.2472L35.5103 29.2149V29.1503L35.4788 29.118V29.0212L35.4474 28.9889V28.9243L35.416 28.892V28.8274L35.3845 28.7951V28.7628L35.3531 28.7305V28.6659L35.3216 28.6336V28.569L35.2902 28.5367V28.4722L35.2588 28.4399V28.4076L35.2273 28.3753V28.3107L35.1959 28.2784V28.2461L35.1644 28.2138V28.1815L35.133 28.1492V28.1169L35.1016 28.0846V28.02L35.0701 27.9878V27.9555L35.0387 27.9232V27.8909L35.0073 27.8586V27.8263L34.9758 27.794V27.7617L34.9444 27.7294V27.6971L34.8815 27.6325V27.5679L34.8186 27.5033V27.471L34.7872 27.4388V27.4065L34.7243 27.3419V27.3096L34.6614 27.245V27.2127L34.5985 27.1481V27.1158L34.5357 27.0512V27.0189L34.4414 26.922V26.8898L34.347 26.7929V26.7606L34.2527 26.6637V26.5991L34.2842 26.5668V26.5022L34.3156 26.4699V26.4376L34.347 26.4053V26.3731L34.3785 26.3408V26.2762L34.4099 26.2439V26.2116L34.4414 26.1793V26.147L34.4728 26.1147V26.0501L34.5042 26.0178V25.9855L34.5357 25.9532V25.9209L34.5671 25.8886V25.8241L34.5985 25.7918V25.7595L34.63 25.7272V25.6949L34.6614 25.6626V25.598L34.6929 25.5657V25.5334L34.7243 25.5011V25.4688L34.7557 25.4365V25.4042L34.7872 25.3719V25.3073L34.8186 25.2751V25.2428L34.8501 25.2105V25.1782L34.8815 25.1459V25.0813L34.9129 25.049V25.0167L34.9444 24.9844V24.9521L34.9758 24.9198V24.8552L35.0073 24.8229V24.7906L35.0387 24.7584V24.7261L35.0701 24.6938V24.6615L35.1016 24.6292V24.5646L35.133 24.5323V24.5L35.1644 24.4677V24.4031L35.1959 24.3708V24.3385L35.2273 24.3062V24.2739L35.2588 24.2416V24.2094L35.2902 24.1771V24.1125L35.3216 24.0802V24.0479L35.3531 24.0156V23.9833L35.3845 23.951V23.8864L35.416 23.8541V23.8218L35.4474 23.7895V23.7572L35.4788 23.7249V23.6604L35.5103 23.6281V23.5958L35.5417 23.5635V23.5312L35.5732 23.4989V23.4666L35.6046 23.4343V23.3697L35.636 23.3374V23.3051L35.6675 23.2728V23.2405L35.6989 23.2082V23.1437L35.7304 23.1114V23.0791L35.7618 23.0468V23.0145L35.7932 22.9822V22.9176L35.8247 22.8853V22.853L35.8561 22.8207V22.7884L35.8875 22.7561V22.6915L35.919 22.6592V22.6269L35.9504 22.5947V22.5624L35.9819 22.5301V22.4978L36.0133 22.4655V22.4009L36.0447 22.3686V22.3363L36.0762 22.304V22.2717L36.1076 22.2394V22.1748L36.1391 22.1425V22.1102L36.1705 22.078V22.0457L36.2019 22.0134V21.9488L36.2334 21.9165V21.8842L36.2648 21.8519V21.8196L36.2963 21.7873V21.7227L36.3277 21.6904V21.6581L36.3591 21.6258V21.5935L36.3906 21.5612V21.529L36.422 21.4967V21.4321L36.4534 21.3998V21.3675L36.4849 21.3352V21.3029L36.5163 21.2706V21.206L36.5478 21.1737V21.1414L36.5792 21.1091V21.0768L36.6106 21.0445V21.0122L36.6421 20.98V20.9154L36.6735 20.8831V20.8508L36.705 20.8185V20.7862L36.7364 20.7539V20.6893L36.7678 20.657V20.6247L36.7993 20.5924V20.5601L36.8307 20.5278V20.4633L36.8622 20.431V20.3987L36.8936 20.3664V20.3341L36.925 20.3018V20.2372L36.9565 20.2049V20.1726L36.9879 20.1403V20.108L37.0193 20.0757V20.0434L37.0508 20.0111V19.9465L37.0822 19.9143V19.882L37.1137 19.8497V19.8174L37.1451 19.7851V19.7205L37.1765 19.6882V19.6559L37.208 19.6236V19.5913L37.2394 19.559V19.5267L37.2709 19.4944V19.4298L37.3023 19.3976V19.3653L37.3337 19.333V19.3007L37.3652 19.2684V19.2038L37.3966 19.1715V19.1392L37.4281 19.1069V19.0746L37.4595 19.0423V18.9777L37.4909 18.9454V18.9131L37.5224 18.8808V18.8486L37.5538 18.8163V18.784L37.5852 18.7517V18.6871L37.6167 18.6548V18.6225L37.6481 18.5902V18.5579L37.6796 18.5256V18.461L37.711 18.4287V18.3964L37.7424 18.3641V18.3318L37.7739 18.2996V18.2673L37.8053 18.235V18.1704L37.8368 18.1381V18.1058L37.8682 18.0735V18.0412L37.8996 18.0089V17.9443L37.9311 17.912V17.8797L37.9625 17.8474V17.8151L37.994 17.7829V17.7506L38.0254 17.7183V17.6537L38.0568 17.6214V17.5891L38.0883 17.5568V17.5245L38.1197 17.4922V17.4276L38.1511 17.3953V17.363L38.1826 17.3307V17.2984L38.214 17.2661V17.2339L38.2455 17.2016V17.137L38.2769 17.1047V17.0724L38.3083 17.0401V17.0078L38.3398 16.9755V16.9109L38.3712 16.8786V16.8463L38.4027 16.814V16.7817L38.4341 16.7494V16.6849L38.4655 16.6526V16.6203L38.497 16.588V16.5557L38.5284 16.5234V16.4588L38.5599 16.4265V16.3942L38.5913 16.3619V16.3296L38.6227 16.2973V16.265L38.6542 16.2327V16.1682L38.6856 16.1359V16.1036L38.717 16.0713V16.039L38.7485 16.0067V15.9744L38.7799 15.9421V15.8775L38.8114 15.8452V15.8129L38.8428 15.7806V15.7483L38.8742 15.716V15.6514L38.9057 15.6192V15.5869L38.9371 15.5546V15.5223L38.9686 15.49V15.4254L39 15.3931V15.167L38.9686 15.1347V15.0702L38.9057 15.0056V14.9733L38.8428 14.9087H38.8114L38.7485 14.8441H38.6542L38.6227 14.8118H38.5284L38.497 14.8441H38.4027L38.3712 14.8764H38.3398L38.1826 15.0379V15.0702L38.1511 15.1024V15.1347L38.1197 15.167V15.1993L38.0883 15.2316V15.2962L38.0568 15.3285V15.3608L38.0254 15.3931V15.4254L37.994 15.4577V15.5223L37.9625 15.5546V15.5869L37.9311 15.6192V15.6514L37.8996 15.6837V15.7483L37.8682 15.7806V15.8129L37.8368 15.8452V15.8775L37.8053 15.9098V15.9421L37.7739 15.9744V16.039L37.7424 16.0713V16.1036L37.711 16.1359V16.1682L37.6796 16.2004V16.265L37.6481 16.2973V16.3296L37.6167 16.3619V16.3942L37.5852 16.4265V16.4911L37.5538 16.5234V16.5557L37.5224 16.588V16.6203L37.4909 16.6526V16.6849L37.4595 16.7171V16.7817L37.4281 16.814V16.8463L37.3966 16.8786V16.9109L37.3652 16.9432V17.0078L37.3337 17.0401V17.0724L37.3023 17.1047V17.137L37.2709 17.1693V17.2339L37.2394 17.2661V17.2984L37.208 17.3307V17.363L37.1765 17.3953V17.4599L37.1451 17.4922V17.5245L37.1137 17.5568V17.5891L37.0822 17.6214V17.686L37.0508 17.7183V17.7506L37.0193 17.7829V17.8151L36.9879 17.8474V17.912L36.9565 17.9443V17.9766L36.925 18.0089V18.0412L36.8936 18.0735V18.1058L36.8622 18.1381V18.2027L36.8307 18.235V18.2673L36.7993 18.2996V18.3318L36.7678 18.3641V18.4287L36.7364 18.461V18.4933L36.705 18.5256V18.5579L36.6735 18.5902V18.6548L36.6421 18.6871V18.7194L36.6106 18.7517V18.784L36.5792 18.8163V18.8486L36.5478 18.8808V18.9454L36.5163 18.9777V19.01L36.4849 19.0423V19.0746L36.4534 19.1069V19.1715L36.422 19.2038V19.2361L36.3906 19.2684V19.3007L36.3591 19.333V19.3976L36.3277 19.4298V19.4621L36.2963 19.4944V19.5267L36.2648 19.559V19.5913L36.2334 19.6236V19.6882L36.2019 19.7205V19.7528L36.1705 19.7851V19.8174L36.1391 19.8497V19.9143L36.1076 19.9465V19.9788L36.0762 20.0111V20.0434L36.0447 20.0757V20.1403L36.0133 20.1726V20.2049L35.9819 20.2372V20.2695L35.9504 20.3018V20.3664L35.919 20.3987V20.431L35.8875 20.4633V20.4955L35.8561 20.5278V20.5924L35.8247 20.6247V20.657L35.7932 20.6893V20.7216L35.7618 20.7539V20.8185L35.7304 20.8508V20.8831L35.6989 20.9154V20.9477L35.6675 20.98V21.0445L35.636 21.0768V21.1091L35.6046 21.1414V21.1737L35.5732 21.206V21.2383L35.5417 21.2706V21.3352L35.5103 21.3675V21.3998L35.4788 21.4321V21.4644L35.4474 21.4967V21.5612L35.416 21.5935V21.6258L35.3845 21.6581V21.6904L35.3531 21.7227V21.7873L35.3216 21.8196V21.8519L35.2902 21.8842V21.9165L35.2588 21.9488V22.0134L35.2273 22.0457V22.078L35.1959 22.1102V22.1748L35.1644 22.2071V22.2394L35.133 22.2717V22.304L35.1016 22.3363V22.3686L35.0701 22.4009V22.4655L35.0387 22.4978V22.5301L35.0073 22.5624V22.5947L34.9758 22.6269V22.6915L34.9444 22.7238V22.7561L34.9129 22.7884V22.8207L34.8815 22.853V22.9176L34.8501 22.9499V22.9822L34.8186 23.0145V23.0468L34.7872 23.0791V23.1437L34.7557 23.1759V23.2082L34.7243 23.2405V23.2728L34.6929 23.3051V23.3697L34.6614 23.402V23.4343L34.63 23.4666V23.5312L34.5985 23.5635V23.5958L34.5671 23.6281V23.6604L34.5357 23.6927V23.7572L34.5042 23.7895V23.8218L34.4728 23.8541V23.8864L34.4414 23.9187V23.9833L34.4099 24.0156V24.0479L34.3785 24.0802V24.1125L34.347 24.1448V24.2094L34.3156 24.2416V24.2739L34.2842 24.3062V24.3385L34.2527 24.3708V24.4354L34.2213 24.4677V24.5L34.1898 24.5323V24.5646L34.1584 24.5969V24.6615L34.127 24.6938V24.7261L34.0955 24.7584V24.7906L34.0641 24.8229V24.8875L34.0326 24.9198V24.9521L34.0012 24.9844V25.0167L33.9698 25.049V25.1136L33.9383 25.1459V25.1782L33.9069 25.2105V25.2428L33.8755 25.2751V25.3396L33.844 25.3719V25.4042L33.8126 25.4365V25.4688L33.7811 25.5011V25.5657L33.7497 25.598V25.6303L33.7183 25.6626V25.6949L33.6868 25.7272V25.7918L33.6554 25.8241V25.8563L33.6239 25.8886V25.9532L33.5925 25.9855V26.0178L33.5611 26.0501H33.5296L33.4353 25.9532H33.4039L33.3724 25.9209H33.341L33.2781 25.8563H33.2467L33.2152 25.8241H33.1838L33.1524 25.7918H33.1209L33.0895 25.7595H33.058L32.9952 25.6949H32.9637L32.9323 25.6626H32.9008L32.8694 25.6303H32.8065L32.7751 25.598H32.7437L32.7122 25.5657H32.6808L32.6493 25.5334H32.6179L32.5865 25.5011H32.555L32.5236 25.4688H32.4607L32.4293 25.4365H32.3978L32.3664 25.4042H32.3349L32.3035 25.3719H32.2406L32.2092 25.3396H32.1463L32.1149 25.3073H32.0834L32.052 25.2751H31.9891L31.9577 25.2428H31.8948L31.8634 25.2105H31.8005L31.769 25.1782H31.7062L31.6747 25.1459H31.6118L31.5804 25.1136H31.4861L31.4547 25.0813H31.3918L31.3603 25.049H31.2975L31.266 25.0167H31.1717L31.1403 24.9844H31.0459L31.0145 24.9521H30.9202L30.8888 24.9198H30.7944L30.763 24.8875H30.6687L30.6372 24.8552H30.5429L30.5115 24.8229H30.4172L30.3857 24.7906H30.26L30.2285 24.7584H30.1342L30.1028 24.7261H29.977L29.9456 24.6938H29.8513L29.8198 24.6615H29.6941L29.6626 24.6292H29.5683L29.5369 24.5969H29.4111L29.3797 24.5646H29.2854L29.2539 24.5323H29.1596L29.1282 24.5H29.0653L29.0339 24.4677H28.9395L28.9081 24.4354H28.8767L28.8452 24.4031H28.7823L28.7509 24.3708H28.7195L28.688 24.3385H28.6566L28.6252 24.3062H28.5937L28.5623 24.2739H28.5308L28.468 24.2094H28.4365L28.2164 23.9833V23.951L28.1536 23.8864V23.8541L28.1221 23.8218V23.7895L28.0907 23.7572V23.6927L28.0593 23.6604V23.5635L28.0278 23.5312V23.402L27.9964 23.3697V23.0791L28.2164 22.853V22.8207L28.3422 22.6915V22.6592L28.4365 22.5624V22.5301L28.5308 22.4332V22.4009L28.5937 22.3363V22.304L28.6566 22.2394V22.2071L28.7195 22.1425V22.1102L28.7823 22.0457V22.0134L28.8138 21.9811V21.9488L28.8767 21.8842V21.8519L28.9081 21.8196V21.7873L28.9395 21.755V21.7227L29.0024 21.6581V21.6258L29.0339 21.5935V21.5612L29.0653 21.529V21.4967L29.0967 21.4644V21.4321L29.1282 21.3998V21.3675L29.1596 21.3352V21.2706L29.1911 21.2383V21.206L29.2225 21.1737V21.1414L29.2539 21.1091V21.0768L29.2854 21.0445V20.98L29.3168 20.9477V20.9154L29.3482 20.8831V20.8185L29.3797 20.7862V20.7539L29.4111 20.7216V20.657L29.4426 20.6247V20.5601L29.474 20.5278V20.4633L29.5054 20.431V20.3664L29.5369 20.3341V20.2695L29.5683 20.2372V20.1726L29.5998 20.1403V20.108L29.6312 20.0757V20.0111L29.6626 19.9788V19.9465L29.6941 19.9143H29.757L29.7884 19.882H29.8198L29.8513 19.8497H29.8827L29.9456 19.7851H29.977L30.0399 19.7205H30.0713L30.1342 19.6559H30.1657L30.3857 19.4298V19.3976L30.48 19.3007V19.2684L30.5429 19.2038V19.1715L30.5744 19.1392V19.1069L30.6058 19.0746V19.0423L30.6372 19.01V18.9777L30.6687 18.9454V18.8808L30.7001 18.8486V18.784L30.7316 18.7517V18.6548L30.763 18.6225V18.4933L30.7944 18.461V18.1381L30.8259 18.1058V17.7829L30.7944 17.7506V17.4922L30.763 17.4599V17.3307L30.7316 17.2984V17.2339L30.7001 17.2016V17.137L30.6687 17.1047V17.0724L30.6372 17.0401V17.0078L30.5744 16.9432V16.9109L30.4172 16.7494H30.3857L30.3543 16.7171H30.3229L30.2914 16.6849V16.588L30.3229 16.5557V16.4588L30.3543 16.4265V16.2973L30.3857 16.265V16.1036L30.4172 16.0713V15.8775L30.4486 15.8452V15.6192L30.48 15.5869V14.4243L30.4486 14.392V14.1659L30.4172 14.1336V14.0045L30.3857 13.9722V13.843L30.3543 13.8107V13.7138L30.3229 13.6815V13.6169L30.2914 13.5846V13.4878L30.26 13.4555V13.3909L30.2285 13.3586V13.3263L30.1971 13.294V13.2294L30.1657 13.1971V13.1325L30.1342 13.1002V13.0679L30.1028 13.0356V13.0033L30.0713 12.971V12.9388L30.0399 12.9065V12.8742L30.0085 12.8419V12.8096L29.977 12.7773V12.745L29.9141 12.6804V12.6481L29.8827 12.6158V12.5835L29.8198 12.5189V12.4866L29.757 12.422V12.3898L29.6312 12.2606V12.2283L29.2854 11.8731H29.2539L29.1596 11.7762H29.1282L29.0653 11.7116H29.0339L29.0024 11.6793H28.971L28.9395 11.647H28.9081L28.8767 11.6147H28.8452L28.8138 11.5824H28.7823L28.7509 11.5501H28.7195L28.688 11.5178H28.5937L28.5623 11.4855H28.468L28.4365 11.4532H28.3422L27.9335 11.0334H27.9021L27.8077 10.9365H27.7763L27.682 10.8396H27.6505L27.5877 10.7751H27.5562L27.5248 10.7428H27.4933L27.4305 10.6782H27.399L27.3676 10.6459H27.3362L27.3047 10.6136H27.2733L27.2418 10.5813H27.2104L27.179 10.549H27.1475L27.1161 10.5167H27.0846L27.0532 10.4844H27.0218L26.9903 10.4521H26.9274L26.896 10.4198H26.8646L26.8331 10.3875H26.7703L26.7388 10.3552H26.6759L26.6445 10.3229H26.5816L26.5502 10.2906H26.4873L26.4559 10.2584H26.3615L26.3301 10.2261H26.2672L26.2358 10.1938H26.11L26.0786 10.1615H25.9843L25.9528 10.1292H25.7956L25.7642 10.0969H25.607L25.5756 10.0646H25.3555L25.3241 10.0323H24.8525L24.821 10H24.2237ZM31.2031 31.0557L31.2346 31.0234H31.6747L31.7062 31.0557H31.8005L31.8319 31.088H31.8948L31.9262 31.1203H31.9891L32.0206 31.1526H32.052L32.0834 31.1849H32.1149L32.1463 31.2171H32.1778L32.2406 31.2817H32.2721L32.3664 31.3786H32.3978L32.5236 31.5078V31.5401L32.6493 31.6693V31.7016L32.7122 31.7661V31.7984L32.7437 31.8307V31.863L32.7751 31.8953V31.9599L32.8065 31.9922V32.0568L32.838 32.0891V32.186L32.8694 32.2183V32.5735L32.838 32.6058V32.7673L32.8065 32.7996V32.8964L32.7751 32.9287V33.0256L32.7437 33.0579V33.1225L32.7122 33.1548V33.2194L32.6808 33.2517V33.3163L32.6493 33.3486V33.3808L32.6179 33.4131V33.4777L32.5865 33.51V33.5423L32.555 33.5746V33.6069L32.5236 33.6392V33.6715L32.4921 33.7038V33.7361L32.4607 33.7684V33.8007L32.3978 33.8653V33.8976L32.3664 33.9298V33.9621L32.3035 34.0267V34.059L32.2092 34.1559V34.1882L31.8005 34.608H31.769L31.7062 34.6726H31.6747L31.6433 34.7049H31.6118L31.549 34.7695H31.4861L31.4547 34.8018H31.4232L31.3918 34.8341H31.3289L31.2975 34.8664H31.2031L31.1717 34.8987H30.9516L30.9202 34.931H30.8573L30.8259 34.8987H30.6687L30.6372 34.8664H30.5429L30.5115 34.8341H30.4486L30.4172 34.8018H30.3543L30.3229 34.7695H30.2914L30.2285 34.7049H30.1971L30.1342 34.6403H30.1028L29.9456 34.4788V34.4465L29.8513 34.3497V34.3174L29.8198 34.2851V34.2528L29.7884 34.2205V34.1882L29.757 34.1559V34.0913L29.7255 34.059V33.9621L29.6941 33.9298V33.3808L29.7255 33.3486V33.1871L29.757 33.1548V33.0579L29.7884 33.0256V32.8964L29.8198 32.8641V32.735L29.8513 32.7027V32.6058L29.8827 32.5735V32.4766L29.9141 32.4443V32.3797L29.9456 32.3474V32.2506L29.977 32.2183V32.186L30.0085 32.1537V32.0891L30.0399 32.0568V32.0245L30.0713 31.9922V31.9599L30.1028 31.9276V31.8953L30.1342 31.863V31.8307L30.1971 31.7661V31.7339L30.26 31.6693V31.637L30.5744 31.314H30.6058L30.6687 31.2494H30.7001L30.763 31.1849H30.7944L30.8259 31.1526H30.8888L30.9202 31.1203H30.9516L30.9831 31.088H31.0459L31.0774 31.0557H31.2031ZM25.6699 28.569L25.7013 28.5367H30.2914L30.3229 28.569V30.539L30.26 30.6036H30.2285L30.1657 30.6682H30.1342L30.0399 30.765H30.0085L29.7255 31.0557V31.088L29.5998 31.2171V31.2494L29.5369 31.314V31.3463L29.474 31.4109V31.4432L29.4426 31.4755V31.5078L29.4111 31.5401V31.5724L29.3797 31.6047V31.637L29.3482 31.6693V31.7339L29.3168 31.7661V31.7984L29.2854 31.8307V31.8953L29.2539 31.9276V31.9922L29.2225 32.0245V32.0891L29.1911 32.1214V32.186L29.1596 32.2183V32.3151L29.1282 32.3474V32.4443L29.0967 32.4766V32.5735L29.0653 32.6058V32.7027L29.0339 32.735V32.8641L29.0024 32.8964V33.0256L28.971 33.0579V33.2194L28.9395 33.2517V33.4777L28.9081 33.51V33.7361L28.9395 33.7684V34.0267L28.971 34.059V34.1882L29.0024 34.2205V34.3174L29.0339 34.3497V34.4143L29.0653 34.4465V34.5111L29.0967 34.5434V34.5757L29.1282 34.608V34.6403L29.1596 34.6726V34.7049L29.1911 34.7372V34.7695L29.2539 34.8341V34.8664L29.3482 34.9633V34.9955L29.5998 35.2539H29.6312L29.7255 35.3508H29.757L29.7884 35.3831H29.8198L29.8827 35.4477H29.9141L29.9456 35.48H29.977L30.0085 35.5122H30.0399L30.0713 35.5445H30.1342L30.1657 35.5768H30.2285L30.26 35.6091H30.2914L30.3229 35.6414V37.6759L30.2914 37.7082H30.0399L30.0085 37.7405H29.6941L29.6626 37.7728H29.3482L29.3168 37.8051H29.0024L28.971 37.8374H28.6252L28.5937 37.8697H28.2793L28.2479 37.902H27.8706L27.8392 37.9343H27.5248L27.4933 37.9666H27.179L27.1475 37.9989H26.8017L26.7703 38.0312H26.4559L26.4244 38.0635H26.0472L26.0157 38.0958H25.6385L25.607 38.1281H25.2612L25.2297 38.1604H24.8525L24.821 38.1927H24.7896L24.7582 38.1604V29.4733L24.7896 29.441V29.3441L24.821 29.3118V29.2472L24.8525 29.2149V29.1826L24.8839 29.1503V29.118L24.9154 29.0857V29.0535L25.2297 28.7305H25.2612L25.2926 28.6982H25.3241L25.3869 28.6336H25.4498L25.4813 28.6013H25.5441L25.5756 28.569H25.6699ZM18.3761 28.569L18.4075 28.5367H22.9661L22.9976 28.569H23.0919L23.1233 28.6013H23.1862L23.2177 28.6336H23.2491L23.2805 28.6659H23.3434L23.4063 28.7305H23.4377L23.4692 28.7628H23.5006L23.7836 29.0535V29.0857L23.8464 29.1503V29.1826L23.8779 29.2149V29.2472L23.9093 29.2795V29.3441L23.9407 29.3764V29.441L23.9722 29.4733V29.6347L24.0036 29.667V38.1604L23.9722 38.1927H23.7836L23.7521 38.1604H23.4377L23.4063 38.1281H23.029L22.9976 38.0958H22.6832L22.6518 38.0635H22.2745L22.243 38.0312H21.9287L21.8972 37.9989H21.5514L21.52 37.9666H21.2056L21.1741 37.9343H20.8283L20.7969 37.902H20.4825L20.451 37.8697H20.1366L20.1052 37.8374H19.7908L19.7594 37.8051H19.445L19.4135 37.7728H19.0992L19.0677 37.7405H18.7848L18.7533 37.7082H18.4389L18.3761 37.6437V28.569ZM33.844 27.5033L33.8755 27.471L33.9698 27.5679V27.6002L34.0326 27.6648V27.6971L34.0641 27.7294V27.7617L34.127 27.8263V27.8586L34.1584 27.8909V27.9232L34.1898 27.9555V27.9878L34.2527 28.0523V28.0846L34.2842 28.1169V28.1492L34.3156 28.1815V28.2138L34.347 28.2461V28.2784L34.3785 28.3107V28.343L34.4099 28.3753V28.4399L34.4414 28.4722V28.5045L34.4728 28.5367V28.569L34.5042 28.6013V28.6336L34.5357 28.6659V28.7305L34.5671 28.7628V28.7951L34.5985 28.8274V28.892L34.63 28.9243V28.9566L34.6614 28.9889V29.0535L34.6929 29.0857V29.1503L34.7243 29.1826V29.2472L34.7557 29.2795V29.3764L34.7872 29.4087V29.4733L34.8186 29.5056V29.6024L34.8501 29.6347V29.6993L34.8815 29.7316V29.8285L34.9129 29.8608V29.9577L34.9444 29.99V30.1192L34.9758 30.1514V30.2483L35.0073 30.2806V30.4098L35.0387 30.4421V30.5713L35.0701 30.6036V30.765L35.1016 30.7973V30.9588L35.133 30.9911V31.1526L35.1644 31.1849V31.3786L35.1959 31.4109V31.6047L35.2273 31.637V31.863L35.2588 31.8953V32.1537L35.2902 32.186V32.5089L35.3216 32.5412V32.961L35.3531 32.9933V33.284L35.3216 33.3163V33.6392L35.2902 33.6715V33.8007L35.2588 33.833V33.9621L35.2273 33.9944V34.059L35.1959 34.0913V34.1559L35.1644 34.1882V34.2205L35.133 34.2528V34.2851L35.1016 34.3174V34.3497L35.0701 34.382V34.4143L35.0387 34.4465V34.4788L35.0073 34.5111V34.5434L34.9444 34.608V34.6403L34.7872 34.8018V34.8341L34.6929 34.931H34.6614L34.5042 35.0924H34.4728L34.4099 35.157H34.3785L34.3156 35.2216H34.2842L34.2527 35.2539H34.2213L34.1898 35.2862H34.1584L34.127 35.3185H34.0955L34.0641 35.3508H34.0326L34.0012 35.3831H33.9698L33.9383 35.4154H33.8755L33.844 35.4477H33.7811L33.7497 35.48H33.6868L33.6554 35.5122H33.5925L33.5611 35.5445H33.4982L33.4667 35.5768H33.3724L33.341 35.6091H33.2467L33.2152 35.6414H33.1209L33.0895 35.6737H32.9952L32.9637 35.706H32.838L32.8065 35.7383H32.7122L32.6808 35.7706H32.555L32.5236 35.8029H32.3978L32.3664 35.8352H32.2406L32.2092 35.8675H32.052L32.0206 35.8998H31.8948L31.8634 35.9321H31.7062L31.6747 35.9644H31.4861L31.4547 35.9967H31.266L31.2346 36.029H31.1403L31.1088 35.9967V35.706L31.1403 35.6737H31.2975L31.3289 35.6414H31.4547L31.4861 35.6091H31.549L31.5804 35.5768H31.6433L31.6747 35.5445H31.7062L31.7376 35.5122H31.8005L31.8319 35.48H31.8634L31.8948 35.4477H31.9262L31.9577 35.4154H31.9891L32.052 35.3508H32.0834L32.1149 35.3185H32.1463L32.2092 35.2539H32.2406L32.3349 35.157H32.3664L32.8065 34.7049V34.6726L32.9008 34.5757V34.5434L32.9637 34.4788V34.4465L33.0266 34.382V34.3497L33.058 34.3174V34.2851L33.1209 34.2205V34.1882L33.1524 34.1559V34.1236L33.1838 34.0913V34.059L33.2152 34.0267V33.9944L33.2467 33.9621V33.8976L33.2781 33.8653V33.833L33.3096 33.8007V33.7684L33.341 33.7361V33.7038L33.3724 33.6715V33.6069L33.4039 33.5746V33.51L33.4353 33.4777V33.4454L33.4667 33.4131V33.3163L33.4982 33.284V33.2194L33.5296 33.1871V33.0902L33.5611 33.0579V32.9287L33.5925 32.8964V32.735L33.6239 32.7027V32.186L33.5925 32.1537V31.9922L33.5611 31.9599V31.863L33.5296 31.8307V31.7661L33.4982 31.7339V31.6693L33.4667 31.637V31.5724L33.4353 31.5401V31.5078L33.4039 31.4755V31.4432L33.3724 31.4109V31.3786L33.341 31.3463V31.314L33.2781 31.2494V31.2171L33.1838 31.1203V31.088L32.838 30.7327H32.8065L32.7437 30.6682H32.7122L32.6493 30.6036H32.6179L32.5865 30.5713V30.539L32.6179 30.5067V30.4744L32.6493 30.4421V30.3775L32.6808 30.3452V30.3129L32.7122 30.2806V30.2483L32.7437 30.216V30.1514L32.7751 30.1192V30.0869L32.8065 30.0546V30.0223L32.838 29.99V29.9254L32.8694 29.8931V29.8608L32.9008 29.8285V29.7962L32.9323 29.7639V29.6993L32.9637 29.667V29.6347L32.9952 29.6024V29.5702L33.0266 29.5379V29.4733L33.058 29.441V29.4087L33.0895 29.3764V29.3441L33.1209 29.3118V29.2472L33.1524 29.2149V29.1826L33.1838 29.1503V29.118L33.2152 29.0857V29.0212L33.2467 28.9889V28.9566L33.2781 28.9243V28.892L33.3096 28.8597V28.7951L33.341 28.7628V28.7305L33.3724 28.6982V28.6659L33.4039 28.6336V28.569L33.4353 28.5367V28.5045L33.4667 28.4722V28.4399L33.4982 28.4076V28.343L33.5296 28.3107V28.2784L33.5611 28.2461V28.2138L33.5925 28.1815V28.1169L33.6239 28.0846V28.0523L33.6554 28.02V27.9878L33.6868 27.9555V27.8909L33.7183 27.8586V27.8263L33.7497 27.794V27.7617L33.7811 27.7294V27.6648L33.8126 27.6325V27.6002L33.844 27.5679V27.5033ZM20.3567 25.2428L20.3881 25.2105H20.451L20.4825 25.2428V25.2751L20.5453 25.3396V25.3719L20.6082 25.4365V25.4688L20.734 25.598V25.6303L21.237 26.147H21.2684L21.3942 26.2762H21.4256L21.52 26.3731H21.5514L21.6143 26.4376H21.6457L21.7086 26.5022H21.74L21.8029 26.5668H21.8343L21.8658 26.5991H21.8972L21.9601 26.6637H21.9915L22.023 26.696H22.0544L22.0859 26.7283H22.1173L22.1487 26.7606H22.1802L22.2116 26.7929H22.243L22.2745 26.8252H22.3059L22.3374 26.8575H22.3688L22.4002 26.8898H22.4631L22.4946 26.922H22.526L22.5574 26.9543H22.6203L22.6518 26.9866H22.6832L22.7146 27.0189H22.7775L22.8089 27.0512H22.8718L22.9033 27.0835H22.9661L22.9976 27.1158H23.0919L23.1233 27.1481H23.2177L23.2491 27.1804H23.3434L23.3748 27.2127H23.532L23.5635 27.245H23.7207L23.7521 27.2773H23.9722L24.0036 27.3096H25.104L25.1354 27.2773H25.3555L25.3869 27.245H25.5441L25.5756 27.2127H25.7013L25.7328 27.1804H25.8585L25.89 27.1481H25.9843L26.0157 27.1158H26.0786L26.11 27.0835H26.2044L26.2358 27.0512H26.2987L26.3301 27.0189H26.393L26.4244 26.9866H26.4559L26.4873 26.9543H26.5502L26.5816 26.922H26.6131L26.6445 26.8898H26.7074L26.7388 26.8575H26.7703L26.8017 26.8252H26.8331L26.8646 26.7929H26.896L26.9274 26.7606H26.9589L26.9903 26.7283H27.0218L27.0532 26.696H27.0846L27.1161 26.6637H27.1475L27.179 26.6314H27.2104L27.2733 26.5668H27.3047L27.3362 26.5345H27.3676L27.4305 26.4699H27.4619L27.5248 26.4053H27.5562L27.6505 26.3085H27.682L27.8077 26.1793H27.8392L28.3422 25.6626V25.6303L28.4365 25.5334V25.5011L28.5308 25.4042V25.3719L28.5937 25.3073V25.2751L28.6566 25.2105H28.7509L28.7823 25.2428H28.8452L28.8767 25.2751H28.971L29.0024 25.3073H29.0653L29.0967 25.3396H29.1911L29.2225 25.3719H29.3168L29.3482 25.4042H29.474L29.5054 25.4365H29.5998L29.6312 25.4688H29.757L29.7884 25.5011H29.8827L29.9141 25.5334H30.0085L30.0399 25.5657H30.1657L30.1971 25.598H30.2914L30.3229 25.6303H30.4486L30.48 25.6626H30.5744L30.6058 25.6949H30.7001L30.7316 25.7272H30.8259L30.8573 25.7595H30.9202L30.9516 25.7918H31.0459L31.0774 25.8241H31.1717L31.2031 25.8563H31.266L31.2975 25.8886H31.3603L31.3918 25.9209H31.4547L31.4861 25.9532H31.5804L31.6118 25.9855H31.6433L31.6747 26.0178H31.7376L31.769 26.0501H31.8319L31.8634 26.0824H31.9262L31.9577 26.1147H32.0206L32.052 26.147H32.0834L32.1149 26.1793H32.1778L32.2092 26.2116H32.2406L32.2721 26.2439H32.3035L32.3349 26.2762H32.3664L32.3978 26.3085H32.4293L32.4607 26.3408H32.4921L32.5236 26.3731H32.555L32.5865 26.4053H32.6179L32.6493 26.4376H32.6808L32.7122 26.4699H32.7437L32.7751 26.5022H32.8065L32.838 26.5345H32.8694L32.9323 26.5991H32.9637L32.9952 26.6314H33.0266L33.1209 26.7283H33.1524L33.2467 26.8252L33.2152 26.8575V26.8898L33.1838 26.922V26.9866L33.1524 27.0189V27.0512L33.1209 27.0835V27.1481L33.0895 27.1804V27.2127L33.058 27.245V27.2773L33.0266 27.3096V27.3742L32.9952 27.4065V27.4388L32.9637 27.471V27.5033L32.9323 27.5356V27.6002L32.9008 27.6325V27.6648L32.8694 27.6971V27.7294L32.838 27.7617V27.8263L32.8065 27.8586V27.8909L32.7751 27.9232V27.9555L32.7437 27.9878V28.0523L32.7122 28.0846V28.1169L32.6808 28.1492V28.1815L32.6493 28.2138V28.2784L32.6179 28.3107V28.343L32.5865 28.3753V28.4399L32.555 28.4722V28.5045L32.5236 28.5367V28.569L32.4921 28.6013V28.6659L32.4607 28.6982V28.7305L32.4293 28.7628V28.7951L32.3978 28.8274V28.892L32.3664 28.9243V28.9566L32.3349 28.9889V29.0212L32.3035 29.0535V29.0857L32.2721 29.118V29.1826L32.2406 29.2149V29.2472L32.2092 29.2795V29.3441L32.1778 29.3764V29.4087L32.1463 29.441V29.4733L32.1149 29.5056V29.5702L32.0834 29.6024V29.6347L32.052 29.667V29.6993L32.0206 29.7316V29.7962L31.9891 29.8285V29.8608L31.9577 29.8931V29.9254L31.9262 29.9577V30.0223L31.8948 30.0546V30.0869L31.8634 30.1192V30.1514L31.8319 30.1837V30.216L31.8005 30.2483H31.7062L31.6747 30.216H31.2031L31.1717 30.2483H31.1403L31.1088 30.216V27.9878L31.0774 27.9555V27.9232L31.0459 27.8909V27.8586L30.9831 27.794H30.9516L30.9202 27.7617H30.8888L30.8573 27.7294H25.607L25.5756 27.7617H25.4498L25.4184 27.794H25.3555L25.3241 27.8263H25.2612L25.2297 27.8586H25.1669L25.1354 27.8909H25.104L25.0726 27.9232H25.0411L25.0097 27.9555H24.9782L24.9468 27.9878H24.9154L24.8525 28.0523H24.821L24.7582 28.1169H24.7267L24.3809 28.4722L24.0979 28.1815H24.0665L23.9722 28.0846H23.9407L23.9093 28.0523H23.8779L23.815 27.9878H23.7836L23.7521 27.9555H23.7207L23.6892 27.9232H23.6264L23.5949 27.8909H23.5635L23.532 27.8586H23.4692L23.4377 27.8263H23.3748L23.3434 27.794H23.2491L23.2177 27.7617H23.0605L23.029 27.7294H17.8416L17.8102 27.7617H17.7787L17.653 27.8909V27.9555L17.6215 27.9878V35.9644L17.5901 35.9967H17.5272L17.4958 35.9644H17.3386L17.3071 35.9321H17.1814L17.1499 35.8998H17.0242L16.9927 35.8675H16.867L16.8356 35.8352H16.7098L16.6784 35.8029H16.584L16.5526 35.7706H16.4268L16.3954 35.7383H16.3011L16.2696 35.706H16.1439L16.1125 35.6737H16.0496L16.0181 35.6414H15.8924L15.8609 35.6091H15.7981L15.7666 35.5768H15.6723L15.6409 35.5445H15.578L15.5466 35.5122H15.4522L15.4208 35.48H15.3579L15.3265 35.4477H15.295L15.2636 35.4154H15.2007L15.1693 35.3831H15.1378L15.1064 35.3508H15.0435L15.0121 35.3185H14.9807L14.9492 35.2862H14.9178L14.8863 35.2539H14.8549L14.792 35.1893H14.7606L14.7291 35.157H14.6977L14.6034 35.0601H14.5719L14.4462 34.931H14.4148L14.289 34.8018V34.7695L14.1632 34.6403V34.608L14.1004 34.5434V34.5111L14.0375 34.4465V34.4143L14.006 34.382V34.3497L13.9746 34.3174V34.2851L13.9432 34.2528V34.1882L13.9117 34.1559V34.0913L13.8803 34.059V33.9944L13.8489 33.9621V33.8653L13.8174 33.833V33.6392L13.786 33.6069V33.2517L13.7545 33.2194V33.0256L13.786 32.9933V32.5412L13.8174 32.5089V32.186L13.8489 32.1537V31.8953L13.8803 31.863V31.637L13.9117 31.6047V31.4109L13.9432 31.3786V31.1849L13.9746 31.1526V30.9911L14.006 30.9588V30.7973L14.0375 30.765V30.6359L14.0689 30.6036V30.4421L14.1004 30.4098V30.3129L14.1318 30.2806V30.1514L14.1632 30.1192V30.0223L14.1947 29.99V29.8608L14.2261 29.8285V29.7316L14.2576 29.6993V29.6347L14.289 29.6024V29.5056L14.3204 29.4733V29.4087L14.3519 29.3764V29.3118L14.3833 29.2795V29.2149L14.4148 29.1826V29.118L14.4462 29.0857V29.0212L14.4776 28.9889V28.9243L14.5091 28.892V28.8597L14.5405 28.8274V28.7628L14.5719 28.7305V28.6982L14.6034 28.6659V28.6013L14.6348 28.569V28.5367L14.6663 28.5045V28.4722L14.6977 28.4399V28.4076L14.7291 28.3753V28.343L14.7606 28.3107V28.2784L14.792 28.2461V28.2138L14.8235 28.1815V28.1492L14.8549 28.1169V28.0846L14.8863 28.0523V28.02L14.9178 27.9878V27.9555L14.9807 27.8909V27.8586L15.0121 27.8263V27.794L15.075 27.7294V27.6971L15.1378 27.6325V27.6002L15.2007 27.5356V27.5033L15.3265 27.3742V27.3419L15.8609 26.7929H15.8924L15.9867 26.696H16.0181L16.081 26.6314H16.1125L16.1439 26.5991H16.1753L16.2382 26.5345H16.2696L16.3011 26.5022H16.3325L16.3954 26.4376H16.4268L16.4583 26.4053H16.4897L16.5212 26.3731H16.5526L16.584 26.3408H16.6155L16.6469 26.3085H16.6784L16.7098 26.2762H16.7412L16.7727 26.2439H16.8356L16.867 26.2116H16.8984L16.9299 26.1793H16.9613L16.9927 26.147H17.0556L17.0871 26.1147H17.1185L17.1499 26.0824H17.2128L17.2443 26.0501H17.3071L17.3386 26.0178H17.4015L17.4329 25.9855H17.4958L17.5272 25.9532H17.5901L17.6215 25.9209H17.6844L17.7158 25.8886H17.7787L17.8102 25.8563H17.873L17.9045 25.8241H17.9988L18.0302 25.7918H18.1245L18.156 25.7595H18.2503L18.2817 25.7272H18.3446L18.3761 25.6949H18.5018L18.5333 25.6626H18.6276L18.659 25.6303H18.7533L18.7848 25.598H18.9105L18.942 25.5657H19.0363L19.0677 25.5334H19.1935L19.2249 25.5011H19.3507L19.3821 25.4688H19.4764L19.5079 25.4365H19.6022L19.6336 25.4042H19.7594L19.7908 25.3719H19.8851L19.9166 25.3396H20.0109L20.0423 25.3073H20.1366L20.1681 25.2751H20.2624L20.2938 25.2428H20.3567ZM21.8029 23.8218L21.8343 23.7895L21.8658 23.8218H21.8972L21.9915 23.9187H22.023L22.0859 23.9833H22.1173L22.1802 24.0479H22.2116L22.2745 24.1125H22.3059L22.3374 24.1448H22.3688L22.4002 24.1771H22.4317L22.4946 24.2416H22.526L22.5574 24.2739H22.5889L22.6203 24.3062H22.6518L22.6832 24.3385H22.7146L22.7461 24.3708H22.7775L22.8089 24.4031H22.8718L22.9033 24.4354H22.9347L22.9661 24.4677H22.9976L23.029 24.5H23.0919L23.1233 24.5323H23.1862L23.2177 24.5646H23.2805L23.312 24.5969H23.3748L23.4063 24.6292H23.5006L23.532 24.6615H23.6264L23.6578 24.6938H23.7836L23.815 24.7261H23.9722L24.0036 24.7584H24.2237L24.2551 24.7906H24.9154L24.9468 24.7584H25.1669L25.1983 24.7261H25.3555L25.3869 24.6938H25.5127L25.5441 24.6615H25.6385L25.6699 24.6292H25.7328L25.7642 24.5969H25.8271L25.8585 24.5646H25.9528L25.9843 24.5323H26.0157L26.0472 24.5H26.11L26.1415 24.4677H26.1729L26.2044 24.4354H26.2672L26.2987 24.4031H26.3301L26.3615 24.3708H26.393L26.4244 24.3385H26.4559L26.4873 24.3062H26.5187L26.5502 24.2739H26.5816L26.6131 24.2416H26.6445L26.7074 24.1771H26.7388L26.8017 24.1125H26.8331L26.8646 24.0802H26.896L26.9903 23.9833H27.0218L27.0846 23.9187H27.1161L27.2418 23.7895H27.2733L27.3047 23.8218V23.8864L27.3362 23.9187V23.951L27.3676 23.9833V24.0156L27.399 24.0479V24.0802L27.4305 24.1125V24.1448L27.4619 24.1771V24.2094L27.4933 24.2416V24.2739L27.5562 24.3385V24.3708L27.6191 24.4354V24.4677L27.7449 24.5969V24.6292L27.8392 24.7261H27.8706L27.9649 24.8229L27.9335 24.8552V24.8875L27.8392 24.9844V25.0167L27.6505 25.2105V25.2428L27.399 25.5011H27.3676L27.2104 25.6626H27.179L27.0846 25.7595H27.0532L26.9903 25.8241H26.9589L26.896 25.8886H26.8646L26.8017 25.9532H26.7703L26.7388 25.9855H26.7074L26.6759 26.0178H26.6445L26.6131 26.0501H26.5816L26.5502 26.0824H26.5187L26.4873 26.1147H26.4559L26.4244 26.147H26.3615L26.3301 26.1793H26.2987L26.2672 26.2116H26.2044L26.1729 26.2439H26.1415L26.11 26.2762H26.0472L26.0157 26.3085H25.9528L25.9214 26.3408H25.8271L25.7956 26.3731H25.7013L25.6699 26.4053H25.5756L25.5441 26.4376H25.4184L25.3869 26.4699H25.2297L25.1983 26.5022H24.9154L24.8839 26.5345H24.2237L24.1923 26.5022H23.9722L23.9407 26.4699H23.7521L23.7207 26.4376H23.5949L23.5635 26.4053H23.4377L23.4063 26.3731H23.312L23.2805 26.3408H23.2177L23.1862 26.3085H23.0919L23.0605 26.2762H23.029L22.9976 26.2439H22.9347L22.9033 26.2116H22.8404L22.8089 26.1793H22.7775L22.7461 26.147H22.7146L22.6832 26.1147H22.6203L22.5889 26.0824H22.5574L22.526 26.0501H22.4946L22.4631 26.0178H22.4317L22.4002 25.9855H22.3688L22.3059 25.9209H22.2745L22.243 25.8886H22.2116L22.1487 25.8241H22.1173L22.0544 25.7595H22.023L21.9287 25.6626H21.8972L21.74 25.5011H21.7086L21.3942 25.1782V25.1459L21.2684 25.0167V24.9844L21.1741 24.8875V24.8552L21.1427 24.8229L21.1741 24.7906H21.2056L21.4571 24.5323V24.5L21.52 24.4354V24.4031L21.5828 24.3385V24.3062L21.6457 24.2416V24.2094L21.6771 24.1771V24.1448L21.7086 24.1125V24.0479L21.74 24.0156V23.9833L21.7715 23.951V23.8864L21.8029 23.8541V23.8218ZM27.399 14.4243L27.4305 14.392H27.4619L27.4933 14.4243V14.4566L27.5248 14.4889V14.5212L27.5877 14.5857V14.618L27.6505 14.6826V14.7149L27.7134 14.7795V14.8118L27.8077 14.9087V14.941L27.9964 15.1347V15.167L28.2793 15.4577V15.49L28.4051 15.6192V15.6514L28.468 15.716V15.7483L28.5308 15.8129V15.8452L28.5937 15.9098V15.9421L28.6252 15.9744V16.0067L28.6566 16.039V16.0713L28.688 16.1036V16.1359L28.7195 16.1682V16.2004L28.7509 16.2327V16.265L28.7823 16.2973V16.3619L28.8138 16.3942V16.4588L28.8452 16.4911V16.5557L28.8767 16.588V16.6526L28.9081 16.6849V16.7817L28.9395 16.814V16.9755L28.971 17.0078V17.2339L29.0024 17.2661V17.4276L29.0339 17.4599V17.5245L29.0653 17.5568V17.5891L29.1911 17.7183H29.2225L29.2539 17.7506H29.474L29.5054 17.7183H29.5369L29.6626 17.5891V17.5568L29.6941 17.5245V17.4922L29.8198 17.363H29.8513L29.977 17.4922V17.5245L30.0085 17.5568V17.686L30.0399 17.7183V18.1704L30.0085 18.2027V18.4287L29.977 18.461V18.5579L29.9456 18.5902V18.6225L29.9141 18.6548V18.6871L29.8827 18.7194V18.7517L29.8198 18.8163V18.8486L29.6626 19.01H29.6312L29.5683 19.0746H29.5369L29.5054 19.1069H29.4426L29.4111 19.1392H29.3482L29.3168 19.1715H29.2539L29.2225 19.2038H29.1911L29.1596 19.2361H29.1282L29.0339 19.333V19.3653L29.0024 19.3976V19.4621L28.971 19.4944V19.559L28.9395 19.5913V19.6559L28.9081 19.6882V19.7851L28.8767 19.8174V19.882L28.8452 19.9143V19.9788L28.8138 20.0111V20.0757L28.7823 20.108V20.1726L28.7509 20.2049V20.2695L28.7195 20.3018V20.3341L28.688 20.3664V20.431L28.6566 20.4633V20.4955L28.6252 20.5278V20.5924L28.5937 20.6247V20.657L28.5623 20.6893V20.7539L28.5308 20.7862V20.8185L28.4994 20.8508V20.8831L28.468 20.9154V20.9477L28.4365 20.98V21.0122L28.4051 21.0445V21.0768L28.3736 21.1091V21.1414L28.3422 21.1737V21.206L28.3108 21.2383V21.2706L28.2793 21.3029V21.3352L28.2479 21.3675V21.3998L28.185 21.4644V21.4967L28.1536 21.529V21.5612L28.1221 21.5935V21.6258L28.0593 21.6904V21.7227L28.0278 21.755V21.7873L27.9649 21.8519V21.8842L27.8706 21.9811V22.0134L27.7763 22.1102V22.1425L27.682 22.2394V22.2717L26.9274 23.0468H26.896L26.7703 23.1759H26.7388L26.6445 23.2728H26.6131L26.5502 23.3374H26.5187L26.4559 23.402H26.4244L26.3615 23.4666H26.3301L26.2987 23.4989H26.2672L26.2358 23.5312H26.2044L26.1415 23.5958H26.11L26.0786 23.6281H26.0472L26.0157 23.6604H25.9843L25.9528 23.6927H25.89L25.8585 23.7249H25.8271L25.7956 23.7572H25.7328L25.7013 23.7895H25.6699L25.6385 23.8218H25.5756L25.5441 23.8541H25.4498L25.4184 23.8864H25.3241L25.2926 23.9187H25.1983L25.1669 23.951H24.9782L24.9468 23.9833H24.2237L24.1923 23.951H24.0036L23.9722 23.9187H23.8464L23.815 23.8864H23.7207L23.6892 23.8541H23.5949L23.5635 23.8218H23.5006L23.4692 23.7895H23.4063L23.3748 23.7572H23.3434L23.312 23.7249H23.2805L23.2491 23.6927H23.1862L23.1548 23.6604H23.1233L23.0919 23.6281H23.0605L23.029 23.5958H22.9976L22.9661 23.5635H22.9347L22.9033 23.5312H22.8718L22.8404 23.4989H22.8089L22.7461 23.4343H22.7146L22.6518 23.3697H22.6203L22.5574 23.3051H22.526L22.4631 23.2405H22.4317L22.3374 23.1437H22.3059L22.1487 22.9822H22.1173L21.5514 22.4009V22.3686L21.3942 22.2071V22.1748L21.2999 22.078V22.0457L21.2056 21.9488V21.9165L21.1427 21.8519V21.8196L21.1112 21.7873V21.755L21.0484 21.6904V21.6581L20.9855 21.5935V21.5612L20.9541 21.529V21.4967L20.9226 21.4644V21.4321L20.8597 21.3675V21.3352L20.8283 21.3029V21.2706L20.7969 21.2383V21.206L20.7654 21.1737V21.1414L20.734 21.1091V21.0768L20.7025 21.0445V21.0122L20.6711 20.98V20.9477L20.6397 20.9154V20.8831L20.6082 20.8508V20.7862L20.5768 20.7539V20.7216L20.5453 20.6893V20.657L20.5139 20.6247V20.5601L20.4825 20.5278V20.4955L20.451 20.4633V20.431L20.4196 20.3987V20.3341L20.3881 20.3018V20.2372L20.3567 20.2049V20.1403L20.3253 20.108V20.0434L20.2938 20.0111V19.9465L20.2624 19.9143V19.8497L20.231 19.8174V19.7528L20.1995 19.7205V19.6559L20.1681 19.6236V19.559L20.1366 19.5267V19.4621L20.1052 19.4298V19.3653L20.0423 19.3007V19.2684L19.9794 19.2038H19.9166L19.8851 19.1715H19.6651L19.6336 19.1392H19.6022L19.5707 19.1069H19.5393L19.5079 19.0746H19.4764L19.4135 19.01H19.3821L19.2563 18.8808V18.8486L19.1935 18.784V18.7517L19.162 18.7194V18.6871L19.1306 18.6548V18.5579L19.0992 18.5256V18.3641L19.0677 18.3318V17.6214L19.0992 17.5891V17.5245L19.1306 17.4922V17.4599L19.2249 17.363H19.3821L19.445 17.4276V17.4599L19.4764 17.4922V17.5245L19.5079 17.5568V17.5891L19.6336 17.7183H19.6965L19.7279 17.7506H19.9166L19.948 17.7183H19.9794L20.1052 17.5891V17.5568L20.1366 17.5245V17.4276L20.1681 17.3953V17.1047L20.1995 17.0724V16.9109L20.231 16.8786V16.7817L20.2624 16.7494V16.6526L20.2938 16.6203V16.5557L20.3253 16.5234V16.4588L20.3567 16.4265V16.3619L20.3881 16.3296V16.2973L20.4196 16.265V16.2327L20.451 16.2004V16.1682L20.4825 16.1359V16.1036L20.5139 16.0713V16.039L20.5453 16.0067V15.9744L20.6082 15.9098V15.8775L20.6711 15.8129V15.7806L20.734 15.716V15.6837L21.1741 15.2316H21.2056L21.2684 15.167H21.2999L21.3628 15.1024H21.3942L21.4571 15.0379H21.4885L21.52 15.0056H21.5514L21.5828 14.9733H21.6457L21.6771 14.941H21.7086L21.74 14.9087H21.8029L21.8343 14.8764H21.9287L21.9601 14.8441H22.0859L22.1173 14.8118H22.8089L22.8404 14.8441H23.029L23.0605 14.8764H23.2177L23.2491 14.9087H23.4692L23.5006 14.941H23.7521L23.7836 14.9733H24.2237L24.2551 15.0056H25.104L25.1354 14.9733H25.5127L25.5441 14.941H25.7956L25.8271 14.9087H25.9843L26.0157 14.8764H26.1729L26.2044 14.8441H26.3301L26.3615 14.8118H26.4559L26.4873 14.7795H26.5816L26.6131 14.7472H26.6759L26.7074 14.7149H26.7703L26.8017 14.6826H26.8646L26.896 14.6503H26.9589L26.9903 14.618H27.0218L27.0532 14.5857H27.1161L27.1475 14.5535H27.179L27.2104 14.5212H27.2418L27.2733 14.4889H27.3047L27.3676 14.4243H27.399ZM24.1608 10.8396L24.1923 10.8073H24.8839L24.9154 10.8396H25.3241L25.3555 10.8719H25.5756L25.607 10.9042H25.7328L25.7642 10.9365H25.89L25.9214 10.9688H26.0157L26.0472 11.0011H26.1415L26.1729 11.0334H26.2672L26.2987 11.0657H26.3615L26.393 11.098H26.4559L26.4873 11.1303H26.5187L26.5502 11.1626H26.6131L26.6445 11.1949H26.6759L26.7074 11.2272H26.7703L26.8017 11.2595H26.8331L26.8646 11.2918H26.896L26.9274 11.3241H26.9589L27.0218 11.3886H27.0532L27.0846 11.4209H27.1161L27.1475 11.4532H27.179L27.2733 11.5501H27.3047L27.399 11.647H27.4305L27.9021 12.1314H27.9335L27.9649 12.1637H28.0278L28.0593 12.196H28.185L28.2164 12.2283H28.2793L28.3108 12.2606H28.3736L28.4051 12.2929H28.4365L28.468 12.3252H28.4994L28.5308 12.3575H28.5623L28.5937 12.3898H28.6252L28.688 12.4543H28.7195L28.8138 12.5512H28.8452L29.0653 12.7773V12.8096L29.1596 12.9065V12.9388L29.2225 13.0033V13.0356L29.2854 13.1002V13.1325L29.3168 13.1648V13.1971L29.3482 13.2294V13.2617L29.3797 13.294V13.3263L29.4111 13.3586V13.3909L29.4426 13.4232V13.4878L29.474 13.52V13.5523L29.5054 13.5846V13.6492L29.5369 13.6815V13.7461L29.5683 13.7784V13.8753L29.5998 13.9076V14.0045L29.6312 14.0367V14.1659L29.6626 14.1982V14.3274L29.6941 14.3597V14.5857L29.7255 14.618V15.4254L29.6941 15.4577V15.7483L29.6626 15.7806V15.9421L29.6312 15.9744V16.1036L29.5998 16.1359V16.1682L29.5683 16.2004L29.5369 16.1682V16.1036L29.5054 16.0713V16.0067L29.474 15.9744V15.9421L29.4426 15.9098V15.8775L29.4111 15.8452V15.8129L29.3797 15.7806V15.7483L29.3482 15.716V15.6837L29.3168 15.6514V15.6192L29.2854 15.5869V15.5546L29.2225 15.49V15.4577L29.1911 15.4254V15.3931L29.1282 15.3285V15.2962L29.0339 15.1993V15.167L28.9395 15.0702V15.0379L28.7823 14.8764V14.8441L28.4365 14.4889V14.4566L28.3108 14.3274V14.2951L28.2479 14.2305V14.1982L28.185 14.1336V14.1013L28.1536 14.069V14.0367L28.0907 13.9722V13.9399L28.0593 13.9076V13.8753L28.0278 13.843V13.8107L27.9964 13.7784V13.7461L27.9649 13.7138V13.6492L27.9021 13.5846V13.5523L27.7763 13.4232H27.7134L27.682 13.3909H27.4933L27.4619 13.4232H27.4305L27.399 13.4555H27.3676L27.3047 13.52H27.2733L27.179 13.6169H27.1475L27.0846 13.6815H27.0532L27.0218 13.7138H26.9903L26.9274 13.7784H26.896L26.8646 13.8107H26.8331L26.8017 13.843H26.7703L26.7388 13.8753H26.7074L26.6759 13.9076H26.6131L26.5816 13.9399H26.5187L26.4873 13.9722H26.4244L26.393 14.0045H26.3301L26.2987 14.0367H26.2044L26.1729 14.069H26.0786L26.0472 14.1013H25.9214L25.89 14.1336H25.6699L25.6385 14.1659H25.3869L25.3555 14.1982H24.0036L23.9722 14.1659H23.6578L23.6264 14.1336H23.4063L23.3748 14.1013H23.1862L23.1548 14.069H22.9661L22.9347 14.0367H22.6832L22.6518 14.0045H22.2116L22.1802 14.0367H21.9601L21.9287 14.069H21.8029L21.7715 14.1013H21.6771L21.6457 14.1336H21.5514L21.52 14.1659H21.4885L21.4571 14.1982H21.3942L21.3628 14.2305H21.3313L21.2999 14.2628H21.237L21.2056 14.2951H21.1741L21.1427 14.3274H21.1112L21.0484 14.392H21.0169L20.9855 14.4243H20.9541L20.8912 14.4889H20.8597L20.7969 14.5535H20.7654L20.6711 14.6503H20.6397L20.1995 15.1024V15.1347L20.1052 15.2316V15.2639L20.0423 15.3285V15.3608L19.9794 15.4254V15.4577L19.9166 15.5223V15.5546L19.8851 15.5869V15.6192L19.8222 15.6837V15.716L19.7908 15.7483V15.7806L19.7594 15.8129V15.8452L19.7279 15.8775V15.9098L19.6965 15.9421V16.0067L19.6651 16.039V16.0713L19.6336 16.1036V16.1682L19.6022 16.2004V16.2327L19.5707 16.265V16.3296L19.5393 16.3619V16.4265L19.5079 16.4588L19.4764 16.4265V16.3296L19.445 16.2973V16.1036L19.4135 16.0713V15.6837L19.3821 15.6514V15.3608L19.4135 15.3285V14.9087L19.445 14.8764V14.6826L19.4764 14.6503V14.4889L19.5079 14.4566V14.3274L19.5393 14.2951V14.1982L19.5707 14.1659V14.1013L19.6022 14.069V13.9722L19.6336 13.9399V13.8753L19.6651 13.843V13.8107L19.6965 13.7784V13.7138L19.7279 13.6815V13.6492L19.7594 13.6169V13.5523L19.7908 13.52V13.4878L19.8222 13.4555V13.4232L19.8537 13.3909V13.3586L19.8851 13.3263V13.294L19.9166 13.2617V13.2294L19.948 13.1971V13.1648L20.0109 13.1002V13.0679L20.0738 13.0033V12.971L20.1052 12.9388V12.9065L20.1995 12.8096V12.7773L20.2938 12.6804V12.6481L20.451 12.4866V12.4543L20.8283 12.0668H20.8597L21.0169 11.9053H21.0484L21.1427 11.8085H21.1741L21.2684 11.7116H21.2999L21.3313 11.6793H21.3628L21.4256 11.6147H21.4571L21.52 11.5501H21.5514L21.5828 11.5178H21.6143L21.6457 11.4855H21.6771L21.7086 11.4532H21.74L21.7715 11.4209H21.8029L21.8343 11.3886H21.8658L21.8972 11.3563H21.9287L21.9601 11.3241H21.9915L22.023 11.2918H22.0544L22.0859 11.2595H22.1487L22.1802 11.2272H22.2116L22.243 11.1949H22.3059L22.3374 11.1626H22.4002L22.4317 11.1303H22.4946L22.526 11.098H22.5889L22.6203 11.0657H22.6832L22.7146 11.0334H22.8089L22.8404 11.0011H22.9347L22.9661 10.9688H23.0919L23.1233 10.9365H23.2491L23.2805 10.9042H23.4377L23.4692 10.8719H23.7207L23.7521 10.8396H24.1608Z" fill="black"/>
</svg>
