<svg width="1024" height="1024" viewBox="0 0 1024 1024" xmlns="http://www.w3.org/2000/svg"><path d="M507,68 L506,69 L502,69 L501,70 L499,70 L498,71 L496,71 L495,72 L493,72 L492,73 L490,73 L489,74 L487,74 L486,75 L484,75 L483,76 L480,76 L479,77 L477,77 L476,78 L474,78 L473,79 L471,79 L470,80 L468,80 L467,81 L465,81 L464,82 L462,82 L461,83 L458,83 L457,84 L455,84 L454,85 L452,85 L451,86 L449,86 L448,87 L446,87 L445,88 L443,88 L442,89 L440,89 L439,90 L437,90 L436,91 L434,91 L433,92 L430,92 L429,93 L427,93 L426,94 L424,94 L423,95 L421,95 L420,96 L418,96 L417,97 L415,97 L414,98 L412,98 L411,99 L408,99 L407,100 L405,100 L404,101 L402,101 L401,102 L399,102 L398,103 L396,103 L395,104 L393,104 L392,105 L390,105 L389,106 L386,106 L385,107 L383,107 L382,108 L380,108 L379,109 L377,109 L376,110 L374,110 L373,111 L371,111 L370,112 L368,112 L367,113 L365,113 L364,114 L362,114 L361,115 L359,115 L358,116 L355,116 L354,117 L352,117 L351,118 L349,118 L348,119 L346,119 L345,120 L343,120 L342,121 L340,121 L339,122 L337,122 L336,123 L334,123 L333,124 L330,124 L329,125 L327,125 L326,126 L324,126 L323,127 L321,127 L320,128 L318,128 L317,129 L315,129 L314,130 L312,130 L311,131 L309,131 L308,132 L306,132 L305,133 L303,133 L302,134 L300,134 L299,135 L296,135 L295,136 L293,136 L292,137 L290,137 L289,138 L287,138 L286,139 L284,139 L283,140 L281,140 L280,141 L278,141 L277,142 L275,142 L274,143 L272,143 L271,144 L269,144 L268,145 L266,145 L265,146 L263,146 L262,147 L260,147 L259,148 L257,148 L256,149 L254,149 L253,150 L251,150 L250,151 L247,151 L246,152 L244,152 L243,153 L241,153 L240,154 L238,154 L237,155 L235,155 L234,156 L232,156 L231,157 L229,157 L228,158 L226,158 L225,159 L223,159 L222,160 L220,160 L219,161 L217,161 L216,162 L214,162 L213,163 L211,163 L210,164 L208,164 L207,165 L206,165 L205,166 L204,166 L201,169 L201,170 L200,171 L200,174 L199,175 L199,178 L200,179 L200,182 L201,183 L201,184 L205,188 L206,188 L207,189 L208,189 L209,190 L210,190 L211,191 L214,191 L215,192 L217,192 L218,193 L220,193 L221,194 L223,194 L224,195 L225,195 L226,196 L226,319 L225,320 L225,322 L224,323 L224,325 L223,326 L223,328 L222,329 L222,331 L221,332 L221,334 L220,335 L220,337 L219,338 L219,340 L218,341 L218,343 L217,344 L217,346 L216,347 L216,349 L215,350 L215,352 L214,353 L214,356 L213,357 L213,359 L212,360 L212,362 L211,363 L211,365 L210,366 L210,369 L209,370 L209,372 L208,373 L208,376 L207,377 L207,380 L206,381 L206,383 L205,384 L205,387 L204,388 L204,391 L203,392 L203,395 L202,396 L202,399 L201,400 L201,404 L200,405 L200,410 L199,411 L199,426 L200,427 L200,430 L201,431 L201,433 L202,434 L202,436 L203,437 L203,438 L205,440 L205,441 L207,443 L207,444 L213,450 L214,450 L216,452 L217,452 L218,453 L219,453 L220,454 L221,454 L222,455 L223,455 L224,456 L226,456 L227,457 L229,457 L230,458 L248,458 L249,457 L251,457 L252,456 L254,456 L255,455 L257,455 L258,454 L259,454 L261,452 L262,452 L264,450 L265,450 L272,443 L272,442 L274,440 L274,439 L275,438 L275,437 L276,436 L276,435 L277,434 L277,432 L278,431 L278,429 L279,428 L279,423 L280,422 L280,416 L279,415 L279,409 L278,408 L278,404 L277,403 L277,399 L276,398 L276,395 L275,394 L275,391 L274,390 L274,387 L273,386 L273,383 L272,382 L272,379 L271,378 L271,376 L270,375 L270,372 L269,371 L269,369 L268,368 L268,365 L267,364 L267,362 L266,361 L266,359 L265,358 L265,356 L264,355 L264,353 L263,352 L263,350 L262,349 L262,346 L261,345 L261,344 L260,343 L260,340 L259,339 L259,337 L258,336 L258,334 L257,333 L257,331 L256,330 L256,328 L255,327 L255,325 L254,324 L254,322 L253,321 L253,320 L252,319 L252,205 L253,204 L254,204 L255,205 L257,205 L258,206 L260,206 L261,207 L263,207 L264,208 L266,208 L267,209 L269,209 L270,210 L272,210 L273,211 L275,211 L276,212 L278,212 L279,213 L282,213 L283,214 L285,214 L286,215 L288,215 L289,216 L291,216 L292,217 L294,217 L295,218 L297,218 L298,219 L300,219 L301,220 L303,220 L304,221 L306,221 L307,222 L309,222 L310,223 L312,223 L313,224 L315,224 L316,225 L319,225 L321,227 L321,334 L320,335 L318,335 L317,336 L316,336 L315,337 L314,337 L313,338 L312,338 L310,340 L309,340 L302,347 L302,348 L300,350 L300,351 L299,352 L299,353 L298,354 L298,355 L297,356 L297,357 L296,358 L296,360 L295,361 L295,363 L294,364 L294,368 L293,369 L293,401 L294,402 L294,414 L295,415 L295,422 L296,423 L296,427 L297,428 L297,431 L298,432 L298,433 L299,434 L299,436 L300,437 L300,438 L301,439 L301,440 L303,442 L303,443 L305,445 L305,446 L313,454 L314,454 L316,456 L317,456 L318,457 L319,457 L320,458 L321,458 L322,459 L323,459 L324,460 L326,460 L327,461 L329,461 L330,462 L330,463 L331,464 L331,467 L332,468 L332,470 L333,471 L333,474 L334,475 L334,477 L335,478 L335,480 L336,481 L336,483 L337,484 L337,486 L338,487 L338,489 L339,490 L339,492 L340,493 L340,494 L341,495 L341,497 L342,498 L342,499 L343,500 L343,502 L344,503 L344,504 L345,505 L345,506 L346,507 L346,508 L347,509 L347,511 L348,512 L348,513 L349,514 L349,515 L350,516 L350,517 L351,518 L351,519 L352,520 L352,521 L353,522 L353,523 L355,525 L355,526 L356,527 L356,528 L357,529 L357,530 L358,531 L358,532 L360,534 L360,535 L361,536 L361,537 L363,539 L363,540 L365,542 L365,543 L367,545 L367,546 L369,548 L369,549 L371,551 L371,552 L373,554 L373,555 L376,558 L376,559 L379,562 L379,563 L383,567 L383,568 L384,569 L384,601 L383,602 L383,606 L382,607 L382,609 L381,610 L381,612 L380,613 L380,614 L379,615 L379,616 L377,618 L377,619 L369,627 L368,627 L366,629 L365,629 L364,630 L363,630 L362,631 L361,631 L360,632 L359,632 L358,633 L357,633 L356,634 L354,634 L353,635 L351,635 L350,636 L348,636 L347,637 L345,637 L344,638 L342,638 L341,639 L338,639 L337,640 L335,640 L334,641 L331,641 L330,642 L327,642 L326,643 L323,643 L322,644 L319,644 L318,645 L315,645 L314,646 L311,646 L310,647 L307,647 L306,648 L303,648 L302,649 L299,649 L298,650 L295,650 L294,651 L291,651 L290,652 L287,652 L286,653 L284,653 L283,654 L280,654 L279,655 L276,655 L275,656 L273,656 L272,657 L269,657 L268,658 L265,658 L264,659 L262,659 L261,660 L259,660 L258,661 L255,661 L254,662 L252,662 L251,663 L249,663 L248,664 L246,664 L245,665 L243,665 L242,666 L240,666 L239,667 L237,667 L236,668 L234,668 L233,669 L231,669 L230,670 L229,670 L228,671 L226,671 L225,672 L224,672 L223,673 L221,673 L220,674 L219,674 L218,675 L217,675 L216,676 L215,676 L214,677 L213,677 L212,678 L211,678 L210,679 L209,679 L208,680 L207,680 L206,681 L205,681 L204,682 L203,682 L202,683 L201,683 L199,685 L198,685 L197,686 L196,686 L194,688 L193,688 L191,690 L190,690 L186,694 L185,694 L170,709 L170,710 L166,714 L166,715 L164,717 L164,718 L162,720 L162,721 L160,723 L160,724 L158,726 L158,727 L157,728 L157,729 L156,730 L156,731 L155,732 L155,733 L154,734 L154,735 L153,736 L153,737 L152,738 L152,739 L151,740 L151,741 L150,742 L150,743 L149,744 L149,745 L148,746 L148,747 L147,748 L147,749 L146,750 L146,752 L145,753 L145,754 L144,755 L144,757 L143,758 L143,760 L142,761 L142,762 L141,763 L141,765 L140,766 L140,768 L139,769 L139,771 L138,772 L138,774 L137,775 L137,777 L136,778 L136,780 L135,781 L135,784 L134,785 L134,787 L133,788 L133,791 L132,792 L132,795 L131,796 L131,799 L130,800 L130,803 L129,804 L129,807 L128,808 L128,812 L127,813 L127,816 L126,817 L126,821 L125,822 L125,827 L124,828 L124,832 L123,833 L123,838 L122,839 L122,845 L121,846 L121,852 L120,853 L120,860 L119,861 L119,869 L118,870 L118,880 L117,881 L117,902 L118,903 L118,907 L119,908 L119,910 L120,911 L120,913 L121,914 L121,915 L123,917 L123,918 L124,919 L124,920 L126,922 L126,923 L136,933 L137,933 L139,935 L140,935 L142,937 L143,937 L144,938 L145,938 L146,939 L147,939 L148,940 L149,940 L150,941 L151,941 L152,942 L154,942 L155,943 L157,943 L158,944 L160,944 L161,945 L163,945 L164,946 L167,946 L168,947 L172,947 L173,948 L179,948 L180,949 L188,949 L189,950 L832,950 L833,949 L842,949 L843,948 L849,948 L850,947 L853,947 L854,946 L858,946 L859,945 L861,945 L862,944 L865,944 L866,943 L868,943 L869,942 L870,942 L871,941 L873,941 L874,940 L875,940 L876,939 L877,939 L878,938 L879,938 L881,936 L882,936 L883,935 L884,935 L887,932 L888,932 L897,923 L897,922 L899,920 L899,919 L900,918 L900,917 L902,915 L902,913 L903,912 L903,911 L904,910 L904,908 L905,907 L905,903 L906,902 L906,880 L905,879 L905,869 L904,868 L904,860 L903,859 L903,852 L902,851 L902,845 L901,844 L901,838 L900,837 L900,832 L899,831 L899,827 L898,826 L898,821 L897,820 L897,816 L896,815 L896,812 L895,811 L895,807 L894,806 L894,803 L893,802 L893,799 L892,798 L892,795 L891,794 L891,791 L890,790 L890,788 L889,787 L889,784 L888,783 L888,781 L887,780 L887,778 L886,777 L886,774 L885,773 L885,771 L884,770 L884,769 L883,768 L883,766 L882,765 L882,763 L881,762 L881,760 L880,759 L880,758 L879,757 L879,755 L878,754 L878,753 L877,752 L877,750 L876,749 L876,748 L875,747 L875,746 L874,745 L874,744 L873,743 L873,741 L872,740 L872,739 L871,738 L871,737 L870,736 L870,735 L868,733 L868,732 L867,731 L867,730 L866,729 L866,728 L865,727 L865,726 L863,724 L863,723 L861,721 L861,720 L859,718 L859,717 L857,715 L857,714 L853,710 L853,709 L839,695 L838,695 L834,691 L833,691 L830,688 L829,688 L827,686 L826,686 L825,685 L824,685 L822,683 L821,683 L820,682 L819,682 L817,680 L816,680 L815,679 L814,679 L813,678 L812,678 L811,677 L810,677 L809,676 L808,676 L807,675 L805,675 L804,674 L803,674 L802,673 L801,673 L800,672 L798,672 L797,671 L796,671 L795,670 L793,670 L792,669 L791,669 L790,668 L788,668 L787,667 L785,667 L784,666 L782,666 L781,665 L779,665 L778,664 L776,664 L775,663 L773,663 L772,662 L770,662 L769,661 L767,661 L766,660 L763,660 L762,659 L760,659 L759,658 L756,658 L755,657 L752,657 L751,656 L749,656 L748,655 L745,655 L744,654 L741,654 L740,653 L737,653 L736,652 L733,652 L732,651 L729,651 L728,650 L725,650 L724,649 L721,649 L720,648 L717,648 L716,647 L713,647 L712,646 L709,646 L708,645 L705,645 L704,644 L701,644 L700,643 L697,643 L696,642 L693,642 L692,641 L689,641 L688,640 L685,640 L684,639 L682,639 L681,638 L678,638 L677,637 L675,637 L674,636 L672,636 L671,635 L669,635 L668,634 L667,634 L666,633 L664,633 L663,632 L662,632 L661,631 L660,631 L658,629 L657,629 L656,628 L655,628 L645,618 L645,617 L644,616 L644,615 L643,614 L643,613 L642,612 L642,611 L641,610 L641,608 L640,607 L640,603 L639,602 L639,569 L641,567 L641,566 L645,562 L645,561 L648,558 L648,557 L650,555 L650,554 L653,551 L653,550 L655,548 L655,547 L657,545 L657,544 L659,542 L659,541 L660,540 L660,539 L662,537 L662,536 L663,535 L663,534 L665,532 L665,531 L666,530 L666,529 L667,528 L667,527 L669,525 L669,524 L670,523 L670,522 L671,521 L671,520 L672,519 L672,518 L673,517 L673,516 L674,515 L674,514 L675,513 L675,511 L676,510 L676,509 L677,508 L677,507 L678,506 L678,505 L679,504 L679,502 L680,501 L680,500 L681,499 L681,497 L682,496 L682,495 L683,494 L683,492 L684,491 L684,489 L685,488 L685,486 L686,485 L686,484 L687,483 L687,480 L688,479 L688,477 L689,476 L689,474 L690,473 L690,470 L691,469 L691,467 L692,466 L692,463 L694,461 L696,461 L697,460 L699,460 L700,459 L701,459 L702,458 L703,458 L704,457 L705,457 L706,456 L707,456 L709,454 L710,454 L719,445 L719,444 L721,442 L721,441 L722,440 L722,439 L723,438 L723,437 L724,436 L724,435 L725,434 L725,432 L726,431 L726,429 L727,428 L727,424 L728,423 L728,416 L729,415 L729,402 L730,401 L730,369 L729,368 L729,364 L728,363 L728,361 L727,360 L727,358 L726,357 L726,356 L725,355 L725,354 L724,353 L724,352 L723,351 L723,350 L720,347 L720,346 L714,340 L713,340 L711,338 L710,338 L709,337 L708,337 L707,336 L706,336 L705,335 L703,335 L702,334 L702,227 L704,225 L706,225 L707,224 L709,224 L710,223 L712,223 L713,222 L715,222 L716,221 L718,221 L719,220 L721,220 L722,219 L725,219 L726,218 L728,218 L729,217 L731,217 L732,216 L734,216 L735,215 L737,215 L738,214 L740,214 L741,213 L743,213 L744,212 L746,212 L747,211 L749,211 L750,210 L752,210 L753,209 L756,209 L757,208 L759,208 L760,207 L762,207 L763,206 L765,206 L766,205 L768,205 L769,204 L771,204 L772,203 L774,203 L775,202 L777,202 L778,201 L780,201 L781,200 L783,200 L784,199 L786,199 L787,198 L790,198 L791,197 L793,197 L794,196 L796,196 L797,195 L799,195 L800,194 L802,194 L803,193 L805,193 L806,192 L808,192 L809,191 L811,191 L812,190 L814,190 L815,189 L816,189 L817,188 L818,188 L822,184 L822,183 L823,182 L823,179 L824,178 L824,175 L823,174 L823,172 L822,171 L822,170 L818,166 L817,166 L816,165 L815,165 L814,164 L812,164 L811,163 L809,163 L808,162 L806,162 L805,161 L803,161 L802,160 L800,160 L799,159 L797,159 L796,158 L794,158 L793,157 L791,157 L790,156 L788,156 L787,155 L785,155 L784,154 L782,154 L781,153 L779,153 L778,152 L776,152 L775,151 L773,151 L772,150 L770,150 L769,149 L766,149 L765,148 L763,148 L762,147 L760,147 L759,146 L757,146 L756,145 L754,145 L753,144 L752,144 L751,143 L748,143 L747,142 L745,142 L744,141 L742,141 L741,140 L739,140 L738,139 L736,139 L735,138 L733,138 L732,137 L730,137 L729,136 L727,136 L726,135 L724,135 L723,134 L721,134 L720,133 L718,133 L717,132 L715,132 L714,131 L712,131 L711,130 L709,130 L708,129 L706,129 L705,128 L703,128 L702,127 L700,127 L699,126 L697,126 L696,125 L693,125 L692,124 L690,124 L689,123 L687,123 L686,122 L684,122 L683,121 L681,121 L680,120 L678,120 L677,119 L675,119 L674,118 L672,118 L671,117 L669,117 L668,116 L666,116 L665,115 L662,115 L661,114 L659,114 L658,113 L656,113 L655,112 L653,112 L652,111 L650,111 L649,110 L647,110 L646,109 L644,109 L643,108 L641,108 L640,107 L638,107 L637,106 L634,106 L633,105 L631,105 L630,104 L628,104 L627,103 L625,103 L624,102 L622,102 L621,101 L619,101 L618,100 L616,100 L615,99 L613,99 L612,98 L609,98 L608,97 L606,97 L605,96 L603,96 L602,95 L600,95 L599,94 L597,94 L596,93 L593,93 L592,92 L590,92 L589,91 L587,91 L586,90 L584,90 L583,89 L581,89 L580,88 L578,88 L577,87 L574,87 L573,86 L571,86 L570,85 L568,85 L567,84 L565,84 L564,83 L562,83 L561,82 L559,82 L558,81 L556,81 L555,80 L553,80 L552,79 L549,79 L548,78 L546,78 L545,77 L543,77 L542,76 L540,76 L539,75 L537,75 L536,74 L534,74 L533,73 L531,73 L530,72 L527,72 L526,71 L524,71 L523,70 L521,70 L520,69 L517,69 L516,68 Z M741,683 L742,682 L745,682 L746,683 L749,683 L750,684 L753,684 L754,685 L756,685 L757,686 L760,686 L761,687 L763,687 L764,688 L766,688 L767,689 L770,689 L771,690 L773,690 L774,691 L776,691 L777,692 L779,692 L780,693 L781,693 L782,694 L784,694 L785,695 L787,695 L788,696 L789,696 L790,697 L792,697 L793,698 L794,698 L795,699 L796,699 L797,700 L798,700 L799,701 L800,701 L801,702 L802,702 L803,703 L804,703 L805,704 L806,704 L807,705 L808,705 L810,707 L811,707 L813,709 L814,709 L817,712 L818,712 L822,716 L823,716 L830,723 L830,724 L835,729 L835,730 L838,733 L838,734 L840,736 L840,737 L842,739 L842,740 L843,741 L843,742 L845,744 L845,745 L846,746 L846,747 L847,748 L847,749 L848,750 L848,751 L849,752 L849,753 L850,754 L850,755 L851,756 L851,757 L852,758 L852,759 L853,760 L853,762 L854,763 L854,764 L855,765 L855,767 L856,768 L856,769 L857,770 L857,772 L858,773 L858,775 L859,776 L859,778 L860,779 L860,781 L861,782 L861,785 L862,786 L862,788 L863,789 L863,792 L864,793 L864,795 L865,796 L865,799 L866,800 L866,803 L867,804 L867,808 L868,809 L868,812 L869,813 L869,817 L870,818 L870,822 L871,823 L871,827 L872,828 L872,833 L873,834 L873,839 L874,840 L874,846 L875,847 L875,852 L876,853 L876,858 L877,859 L877,866 L878,867 L878,874 L879,875 L879,883 L880,884 L880,899 L879,900 L879,902 L877,904 L877,905 L870,912 L869,912 L867,914 L866,914 L865,915 L864,915 L863,916 L862,916 L861,917 L859,917 L858,918 L855,918 L854,919 L851,919 L850,920 L846,920 L845,921 L839,921 L838,922 L535,922 L534,921 L540,915 L540,914 L547,907 L547,906 L554,899 L554,898 L561,891 L561,890 L568,883 L568,882 L574,876 L574,875 L581,868 L581,867 L587,861 L587,860 L594,853 L594,852 L601,845 L601,844 L608,837 L608,836 L614,830 L614,829 L620,823 L620,822 L627,815 L627,814 L634,807 L634,806 L640,800 L640,799 L648,791 L648,790 L654,784 L654,783 L661,776 L661,775 L668,768 L668,767 L675,760 L675,759 L681,753 L681,752 L688,745 L688,744 L694,738 L694,737 L701,730 L701,729 L707,723 L707,722 L714,715 L714,714 L721,707 L721,706 L727,700 L727,699 L734,692 L734,691 L741,684 Z M277,683 L278,682 L281,682 L284,685 L284,686 L291,693 L291,694 L297,700 L297,701 L303,707 L303,708 L310,715 L310,716 L316,722 L316,723 L323,730 L323,731 L330,738 L330,739 L336,745 L336,746 L343,753 L343,754 L349,760 L349,761 L357,769 L357,770 L363,776 L363,777 L370,784 L370,785 L377,792 L377,793 L383,799 L383,800 L390,807 L390,808 L396,814 L396,815 L403,822 L403,823 L409,829 L409,830 L416,837 L416,838 L423,845 L423,846 L429,852 L429,853 L436,860 L436,861 L442,867 L442,868 L449,875 L449,876 L455,882 L455,883 L462,890 L462,891 L468,897 L468,898 L475,905 L475,906 L482,913 L482,914 L489,921 L488,922 L185,922 L184,921 L178,921 L177,920 L173,920 L172,919 L169,919 L168,918 L165,918 L164,917 L163,917 L162,916 L160,916 L159,915 L158,915 L157,914 L156,914 L154,912 L153,912 L146,905 L146,904 L145,903 L145,902 L144,901 L144,900 L143,899 L143,885 L144,884 L144,875 L145,874 L145,867 L146,866 L146,859 L147,858 L147,853 L148,852 L148,846 L149,845 L149,840 L150,839 L150,835 L151,834 L151,829 L152,828 L152,824 L153,823 L153,819 L154,818 L154,814 L155,813 L155,809 L156,808 L156,805 L157,804 L157,801 L158,800 L158,797 L159,796 L159,793 L160,792 L160,789 L161,788 L161,786 L162,785 L162,782 L163,781 L163,779 L164,778 L164,776 L165,775 L165,774 L166,773 L166,771 L167,770 L167,768 L168,767 L168,766 L169,765 L169,763 L170,762 L170,761 L171,760 L171,759 L172,758 L172,756 L173,755 L173,754 L174,753 L174,752 L175,751 L175,750 L176,749 L176,748 L177,747 L177,746 L178,745 L178,744 L180,742 L180,741 L181,740 L181,739 L183,737 L183,736 L185,734 L185,733 L188,730 L188,729 L191,726 L191,725 L201,715 L202,715 L206,711 L207,711 L209,709 L210,709 L212,707 L213,707 L215,705 L216,705 L217,704 L218,704 L219,703 L220,703 L221,702 L222,702 L223,701 L224,701 L225,700 L226,700 L227,699 L228,699 L229,698 L230,698 L231,697 L233,697 L234,696 L235,696 L236,695 L238,695 L239,694 L241,694 L242,693 L244,693 L245,692 L247,692 L248,691 L250,691 L251,690 L253,690 L254,689 L256,689 L257,688 L259,688 L260,687 L263,687 L264,686 L266,686 L267,685 L270,685 L271,684 L273,684 L274,683 Z M371,656 L372,655 L374,655 L379,660 L379,661 L385,667 L385,668 L390,673 L390,674 L395,679 L395,680 L401,686 L401,687 L406,692 L406,693 L411,698 L411,699 L416,704 L416,705 L421,710 L421,711 L426,716 L426,717 L431,722 L431,723 L436,728 L436,729 L441,734 L441,735 L447,741 L447,742 L452,747 L452,748 L456,752 L456,753 L461,758 L461,759 L466,764 L466,765 L471,770 L471,771 L477,777 L477,778 L481,782 L481,783 L486,788 L486,789 L491,794 L491,795 L496,800 L496,801 L505,810 L506,810 L507,811 L515,811 L516,810 L518,810 L520,808 L521,808 L522,807 L522,806 L528,800 L528,799 L532,795 L532,794 L538,788 L538,787 L542,783 L542,782 L547,777 L547,776 L552,771 L552,770 L557,765 L557,764 L562,759 L562,758 L567,753 L567,752 L572,747 L572,746 L577,741 L577,740 L582,735 L582,734 L587,729 L587,728 L592,723 L592,722 L597,717 L597,716 L602,711 L602,710 L607,705 L607,704 L612,699 L612,698 L617,693 L617,692 L622,687 L622,686 L627,681 L627,680 L632,675 L632,674 L637,669 L637,668 L642,663 L642,662 L647,657 L647,656 L648,655 L651,655 L652,656 L654,656 L655,657 L656,657 L657,658 L659,658 L660,659 L662,659 L663,660 L665,660 L666,661 L668,661 L669,662 L671,662 L672,663 L674,663 L675,664 L677,664 L678,665 L680,665 L681,666 L684,666 L685,667 L687,667 L688,668 L691,668 L692,669 L695,669 L696,670 L698,670 L699,671 L702,671 L703,672 L706,672 L707,673 L709,673 L710,674 L712,674 L713,675 L708,680 L708,681 L701,688 L701,689 L694,696 L694,697 L687,704 L687,705 L681,711 L681,712 L674,719 L674,720 L667,727 L667,728 L660,735 L660,736 L654,742 L654,743 L647,750 L647,751 L640,758 L640,759 L633,766 L633,767 L627,773 L627,774 L620,781 L620,782 L614,788 L614,789 L607,796 L607,797 L601,803 L601,804 L594,811 L594,812 L587,819 L587,820 L580,827 L580,828 L573,835 L573,836 L566,843 L566,844 L559,851 L559,852 L553,858 L553,859 L546,866 L546,867 L539,874 L539,875 L533,881 L533,882 L526,889 L526,890 L519,897 L519,898 L513,904 L513,905 L512,906 L511,906 L508,903 L508,902 L501,895 L501,894 L494,887 L494,886 L488,880 L488,879 L482,873 L482,872 L475,865 L475,864 L468,857 L468,856 L462,850 L462,849 L455,842 L455,841 L449,835 L449,834 L442,827 L442,826 L436,820 L436,819 L429,812 L429,811 L422,804 L422,803 L415,796 L415,795 L409,789 L409,788 L403,782 L403,781 L396,774 L396,773 L389,766 L389,765 L383,759 L383,758 L377,752 L377,751 L370,744 L370,743 L364,737 L364,736 L357,729 L357,728 L351,722 L351,721 L344,714 L344,713 L338,707 L338,706 L331,699 L331,698 L324,691 L324,690 L318,684 L318,683 L311,676 L311,675 L312,674 L315,674 L316,673 L318,673 L319,672 L322,672 L323,671 L326,671 L327,670 L329,670 L330,669 L333,669 L334,668 L336,668 L337,667 L340,667 L341,666 L343,666 L344,665 L346,665 L347,664 L349,664 L350,663 L352,663 L353,662 L355,662 L356,661 L358,661 L359,660 L361,660 L362,659 L363,659 L364,658 L366,658 L367,657 L368,657 L369,656 Z M409,594 L410,593 L413,596 L414,596 L418,600 L419,600 L421,602 L422,602 L425,605 L426,605 L427,606 L428,606 L430,608 L431,608 L433,610 L434,610 L435,611 L436,611 L438,613 L439,613 L440,614 L441,614 L442,615 L443,615 L444,616 L445,616 L446,617 L447,617 L448,618 L449,618 L450,619 L451,619 L452,620 L454,620 L455,621 L456,621 L457,622 L458,622 L459,623 L461,623 L462,624 L464,624 L465,625 L467,625 L468,626 L470,626 L471,627 L474,627 L475,628 L478,628 L479,629 L482,629 L483,630 L488,630 L489,631 L495,631 L496,632 L528,632 L529,631 L535,631 L536,630 L541,630 L542,629 L545,629 L546,628 L549,628 L550,627 L553,627 L554,626 L556,626 L557,625 L559,625 L560,624 L562,624 L563,623 L564,623 L565,622 L567,622 L568,621 L569,621 L570,620 L571,620 L572,619 L573,619 L574,618 L575,618 L576,617 L577,617 L578,616 L579,616 L580,615 L581,615 L582,614 L583,614 L584,613 L585,613 L587,611 L588,611 L589,610 L590,610 L592,608 L593,608 L594,607 L595,607 L598,604 L599,604 L601,602 L602,602 L606,598 L607,598 L610,595 L611,595 L611,594 L612,593 L613,594 L613,599 L614,600 L614,608 L615,609 L615,613 L616,614 L616,617 L617,618 L617,620 L618,621 L618,622 L619,623 L619,624 L620,625 L620,626 L621,627 L621,628 L622,629 L622,630 L624,632 L624,633 L627,636 L627,638 L625,640 L625,641 L621,645 L621,646 L616,651 L616,652 L611,657 L611,658 L606,663 L606,664 L601,669 L601,670 L596,675 L596,676 L591,681 L591,682 L586,687 L586,688 L581,693 L581,694 L577,698 L577,699 L571,705 L571,706 L566,711 L566,712 L561,717 L561,718 L556,723 L556,724 L552,728 L552,729 L547,734 L547,735 L542,740 L542,741 L537,746 L537,747 L532,752 L532,753 L527,758 L527,759 L522,764 L522,765 L517,770 L517,771 L513,775 L513,776 L512,777 L511,777 L510,776 L510,775 L506,771 L506,770 L501,765 L501,764 L496,759 L496,758 L491,753 L491,752 L486,747 L486,746 L481,741 L481,740 L476,735 L476,734 L471,729 L471,728 L466,723 L466,722 L461,717 L461,716 L456,711 L456,710 L451,705 L451,704 L446,699 L446,698 L441,693 L441,692 L435,686 L435,685 L431,681 L431,680 L426,675 L426,674 L420,668 L420,667 L416,663 L416,662 L411,657 L411,656 L406,651 L406,650 L401,645 L401,644 L397,640 L397,639 L395,637 L398,634 L398,633 L400,631 L400,630 L401,629 L401,628 L402,627 L402,626 L403,625 L403,624 L404,623 L404,622 L405,621 L405,620 L406,619 L406,617 L407,616 L407,613 L408,612 L408,607 L409,606 Z M238,363 L239,362 L240,363 L240,364 L241,365 L241,367 L242,368 L242,371 L243,372 L243,375 L244,376 L244,378 L245,379 L245,382 L246,383 L246,385 L247,386 L247,389 L248,390 L248,393 L249,394 L249,397 L250,398 L250,402 L251,403 L251,406 L252,407 L252,412 L253,413 L253,419 L254,420 L253,421 L253,423 L252,424 L252,425 L251,426 L251,427 L248,430 L247,430 L246,431 L245,431 L244,432 L235,432 L234,431 L232,431 L226,425 L226,424 L225,423 L225,422 L224,421 L224,418 L225,417 L225,413 L226,412 L226,408 L227,407 L227,403 L228,402 L228,399 L229,398 L229,396 L230,395 L230,392 L231,391 L231,388 L232,387 L232,385 L233,384 L233,381 L234,380 L234,377 L235,376 L235,374 L236,373 L236,370 L237,369 L237,367 L238,366 Z M348,327 L349,326 L351,326 L352,327 L353,327 L354,328 L356,328 L357,329 L359,329 L360,330 L362,330 L363,331 L365,331 L366,332 L368,332 L369,333 L371,333 L372,334 L374,334 L375,335 L378,335 L379,336 L382,336 L383,337 L385,337 L386,338 L389,338 L390,339 L393,339 L394,340 L398,340 L399,341 L402,341 L403,342 L407,342 L408,343 L412,343 L413,344 L417,344 L418,345 L423,345 L424,346 L430,346 L431,347 L436,347 L437,348 L444,348 L445,349 L453,349 L454,350 L462,350 L463,351 L474,351 L475,352 L491,352 L492,353 L535,353 L536,352 L551,352 L552,351 L562,351 L563,350 L571,350 L572,349 L580,349 L581,348 L587,348 L588,347 L594,347 L595,346 L599,346 L600,345 L605,345 L606,344 L611,344 L612,343 L616,343 L617,342 L621,342 L622,341 L625,341 L626,340 L629,340 L630,339 L633,339 L634,338 L637,338 L638,337 L641,337 L642,336 L645,336 L646,335 L648,335 L649,334 L651,334 L652,333 L654,333 L655,332 L658,332 L659,331 L661,331 L662,330 L664,330 L665,329 L666,329 L667,328 L669,328 L670,327 L672,327 L673,326 L674,326 L675,327 L675,348 L676,349 L676,352 L677,353 L677,354 L681,358 L683,358 L684,359 L694,359 L695,360 L697,360 L701,364 L701,365 L702,366 L702,367 L703,368 L703,370 L704,371 L704,392 L703,393 L703,407 L702,408 L702,417 L701,418 L701,422 L700,423 L700,425 L699,426 L699,427 L698,428 L698,429 L693,434 L691,434 L690,435 L685,435 L684,436 L678,436 L677,437 L675,437 L673,439 L672,439 L672,440 L671,441 L671,442 L670,443 L670,445 L669,446 L669,449 L668,450 L668,452 L667,453 L667,456 L666,457 L666,460 L665,461 L665,463 L664,464 L664,467 L663,468 L663,470 L662,471 L662,473 L661,474 L661,476 L660,477 L660,479 L659,480 L659,481 L658,482 L658,484 L657,485 L657,487 L656,488 L656,489 L655,490 L655,492 L654,493 L654,494 L653,495 L653,496 L652,497 L652,499 L651,500 L651,501 L650,502 L650,503 L649,504 L649,505 L648,506 L648,507 L647,508 L647,509 L646,510 L646,511 L644,513 L644,514 L643,515 L643,516 L642,517 L642,518 L640,520 L640,521 L639,522 L639,523 L637,525 L637,526 L635,528 L635,529 L633,531 L633,532 L631,534 L631,535 L628,538 L628,539 L625,542 L625,543 L621,547 L621,548 L616,553 L616,554 L601,569 L600,569 L594,575 L593,575 L590,578 L589,578 L586,581 L585,581 L583,583 L582,583 L579,586 L578,586 L577,587 L576,587 L574,589 L573,589 L572,590 L571,590 L570,591 L569,591 L568,592 L567,592 L566,593 L565,593 L564,594 L563,594 L562,595 L561,595 L560,596 L559,596 L558,597 L557,597 L556,598 L554,598 L553,599 L551,599 L550,600 L548,600 L547,601 L545,601 L544,602 L541,602 L540,603 L537,603 L536,604 L533,604 L532,605 L526,605 L525,606 L499,606 L498,605 L491,605 L490,604 L486,604 L485,603 L482,603 L481,602 L478,602 L477,601 L475,601 L474,600 L472,600 L471,599 L470,599 L469,598 L467,598 L466,597 L465,597 L464,596 L462,596 L461,595 L460,595 L459,594 L458,594 L457,593 L456,593 L455,592 L454,592 L453,591 L452,591 L450,589 L449,589 L448,588 L447,588 L445,586 L444,586 L442,584 L441,584 L439,582 L438,582 L436,580 L435,580 L431,576 L430,576 L425,571 L424,571 L406,553 L406,552 L401,547 L401,546 L397,542 L397,541 L394,538 L394,537 L392,535 L392,534 L389,531 L389,530 L387,528 L387,527 L386,526 L386,525 L384,523 L384,522 L382,520 L382,519 L381,518 L381,517 L380,516 L380,515 L379,514 L379,513 L377,511 L377,510 L376,509 L376,508 L375,507 L375,506 L374,505 L374,504 L373,503 L373,502 L372,501 L372,499 L371,498 L371,497 L370,496 L370,495 L369,494 L369,493 L368,492 L368,490 L367,489 L367,488 L366,487 L366,485 L365,484 L365,482 L364,481 L364,480 L363,479 L363,477 L362,476 L362,474 L361,473 L361,471 L360,470 L360,468 L359,467 L359,465 L358,464 L358,461 L357,460 L357,458 L356,457 L356,454 L355,453 L355,450 L354,449 L354,446 L353,445 L353,443 L352,442 L352,441 L349,438 L348,438 L347,437 L346,437 L345,436 L339,436 L338,435 L333,435 L332,434 L331,434 L330,433 L329,433 L325,429 L325,428 L324,427 L324,426 L323,425 L323,423 L322,422 L322,419 L321,418 L321,410 L320,409 L320,397 L319,396 L319,371 L320,370 L320,367 L321,366 L321,365 L326,360 L328,360 L329,359 L337,359 L338,358 L341,358 L342,357 L343,357 L345,355 L345,354 L346,353 L346,352 L347,351 L347,345 L348,344 Z M347,236 L348,235 L350,235 L351,236 L353,236 L354,237 L356,237 L357,238 L359,238 L360,239 L362,239 L363,240 L365,240 L366,241 L368,241 L369,242 L371,242 L372,243 L374,243 L375,244 L378,244 L379,245 L381,245 L382,246 L384,246 L385,247 L387,247 L388,248 L390,248 L391,249 L393,249 L394,250 L396,250 L397,251 L399,251 L400,252 L403,252 L404,253 L406,253 L407,254 L409,254 L410,255 L412,255 L413,256 L415,256 L416,257 L418,257 L419,258 L421,258 L422,259 L424,259 L425,260 L427,260 L428,261 L431,261 L432,262 L434,262 L435,263 L437,263 L438,264 L440,264 L441,265 L443,265 L444,266 L446,266 L447,267 L449,267 L450,268 L452,268 L453,269 L455,269 L456,270 L459,270 L460,271 L462,271 L463,272 L465,272 L466,273 L468,273 L469,274 L471,274 L472,275 L474,275 L475,276 L477,276 L478,277 L480,277 L481,278 L483,278 L484,279 L487,279 L488,280 L490,280 L491,281 L493,281 L494,282 L496,282 L497,283 L498,283 L499,284 L502,284 L503,285 L506,285 L507,286 L516,286 L517,285 L520,285 L521,284 L524,284 L525,283 L527,283 L528,282 L530,282 L531,281 L533,281 L534,280 L536,280 L537,279 L539,279 L540,278 L542,278 L543,277 L545,277 L546,276 L548,276 L549,275 L551,275 L552,274 L554,274 L555,273 L558,273 L559,272 L561,272 L562,271 L564,271 L565,270 L567,270 L568,269 L570,269 L571,268 L573,268 L574,267 L576,267 L577,266 L580,266 L581,265 L583,265 L584,264 L586,264 L587,263 L589,263 L590,262 L592,262 L593,261 L595,261 L596,260 L598,260 L599,259 L601,259 L602,258 L604,258 L605,257 L608,257 L609,256 L611,256 L612,255 L614,255 L615,254 L617,254 L618,253 L620,253 L621,252 L623,252 L624,251 L626,251 L627,250 L629,250 L630,249 L633,249 L634,248 L636,248 L637,247 L639,247 L640,246 L642,246 L643,245 L645,245 L646,244 L648,244 L649,243 L651,243 L652,242 L654,242 L655,241 L658,241 L659,240 L661,240 L662,239 L664,239 L665,238 L667,238 L668,237 L670,237 L671,236 L673,236 L674,235 L675,236 L675,295 L673,297 L672,297 L671,298 L670,298 L669,299 L667,299 L666,300 L665,300 L664,301 L662,301 L661,302 L660,302 L659,303 L657,303 L656,304 L654,304 L653,305 L651,305 L650,306 L648,306 L647,307 L645,307 L644,308 L642,308 L641,309 L638,309 L637,310 L635,310 L634,311 L631,311 L630,312 L628,312 L627,313 L624,313 L623,314 L619,314 L618,315 L615,315 L614,316 L610,316 L609,317 L605,317 L604,318 L600,318 L599,319 L594,319 L593,320 L589,320 L588,321 L582,321 L581,322 L574,322 L573,323 L565,323 L564,324 L554,324 L553,325 L540,325 L539,326 L489,326 L488,325 L472,325 L471,324 L461,324 L460,323 L452,323 L451,322 L444,322 L443,321 L437,321 L436,320 L430,320 L429,319 L425,319 L424,318 L419,318 L418,317 L414,317 L413,316 L409,316 L408,315 L405,315 L404,314 L401,314 L400,313 L397,313 L396,312 L393,312 L392,311 L389,311 L388,310 L386,310 L385,309 L382,309 L381,308 L379,308 L378,307 L376,307 L375,306 L373,306 L372,305 L370,305 L369,304 L367,304 L366,303 L364,303 L363,302 L361,302 L360,301 L359,301 L358,300 L356,300 L355,299 L354,299 L353,298 L352,298 L351,297 L350,297 L348,295 L348,237 Z M508,96 L509,95 L513,95 L514,96 L516,96 L517,97 L520,97 L521,98 L523,98 L524,99 L526,99 L527,100 L529,100 L530,101 L532,101 L533,102 L535,102 L536,103 L538,103 L539,104 L541,104 L542,105 L545,105 L546,106 L548,106 L549,107 L551,107 L552,108 L554,108 L555,109 L557,109 L558,110 L560,110 L561,111 L563,111 L564,112 L566,112 L567,113 L570,113 L571,114 L573,114 L574,115 L576,115 L577,116 L579,116 L580,117 L582,117 L583,118 L586,118 L587,119 L589,119 L590,120 L592,120 L593,121 L595,121 L596,122 L598,122 L599,123 L601,123 L602,124 L604,124 L605,125 L607,125 L608,126 L611,126 L612,127 L614,127 L615,128 L617,128 L618,129 L620,129 L621,130 L623,130 L624,131 L626,131 L627,132 L630,132 L631,133 L633,133 L634,134 L636,134 L637,135 L639,135 L640,136 L642,136 L643,137 L645,137 L646,138 L648,138 L649,139 L651,139 L652,140 L654,140 L655,141 L658,141 L659,142 L661,142 L662,143 L664,143 L665,144 L667,144 L668,145 L670,145 L671,146 L673,146 L674,147 L676,147 L677,148 L679,148 L680,149 L682,149 L683,150 L685,150 L686,151 L689,151 L690,152 L692,152 L693,153 L695,153 L696,154 L698,154 L699,155 L701,155 L702,156 L704,156 L705,157 L707,157 L708,158 L710,158 L711,159 L713,159 L714,160 L716,160 L717,161 L719,161 L720,162 L722,162 L723,163 L725,163 L726,164 L728,164 L729,165 L731,165 L732,166 L734,166 L735,167 L737,167 L738,168 L741,168 L742,169 L744,169 L745,170 L747,170 L748,171 L750,171 L751,172 L753,172 L754,173 L756,173 L757,174 L759,174 L760,175 L762,175 L763,176 L765,176 L766,177 L765,178 L763,178 L762,179 L760,179 L759,180 L757,180 L756,181 L753,181 L752,182 L750,182 L749,183 L747,183 L746,184 L744,184 L743,185 L741,185 L740,186 L738,186 L737,187 L735,187 L734,188 L732,188 L731,189 L729,189 L728,190 L725,190 L724,191 L722,191 L721,192 L719,192 L718,193 L716,193 L715,194 L713,194 L712,195 L710,195 L709,196 L707,196 L706,197 L704,197 L703,198 L701,198 L700,199 L697,199 L696,200 L694,200 L693,201 L691,201 L690,202 L688,202 L687,203 L685,203 L684,204 L682,204 L681,205 L679,205 L678,206 L676,206 L675,207 L673,207 L672,208 L669,208 L668,209 L666,209 L665,210 L663,210 L662,211 L660,211 L659,212 L657,212 L656,213 L654,213 L653,214 L651,214 L650,215 L648,215 L647,216 L644,216 L643,217 L641,217 L640,218 L638,218 L637,219 L635,219 L634,220 L632,220 L631,221 L629,221 L628,222 L626,222 L625,223 L623,223 L622,224 L620,224 L619,225 L616,225 L615,226 L613,226 L612,227 L610,227 L609,228 L607,228 L606,229 L604,229 L603,230 L601,230 L600,231 L598,231 L597,232 L595,232 L594,233 L591,233 L590,234 L588,234 L587,235 L585,235 L584,236 L582,236 L581,237 L579,237 L578,238 L576,238 L575,239 L573,239 L572,240 L570,240 L569,241 L566,241 L565,242 L563,242 L562,243 L560,243 L559,244 L557,244 L556,245 L554,245 L553,246 L551,246 L550,247 L548,247 L547,248 L545,248 L544,249 L541,249 L540,250 L538,250 L537,251 L535,251 L534,252 L532,252 L531,253 L529,253 L528,254 L526,254 L525,255 L523,255 L522,256 L520,256 L519,257 L517,257 L516,258 L514,258 L513,259 L511,259 L510,258 L508,258 L507,257 L505,257 L504,256 L502,256 L501,255 L499,255 L498,254 L496,254 L495,253 L493,253 L492,252 L490,252 L489,251 L486,251 L485,250 L483,250 L482,249 L480,249 L479,248 L477,248 L476,247 L474,247 L473,246 L471,246 L470,245 L468,245 L467,244 L465,244 L464,243 L462,243 L461,242 L459,242 L458,241 L455,241 L454,240 L452,240 L451,239 L449,239 L448,238 L446,238 L445,237 L443,237 L442,236 L440,236 L439,235 L437,235 L436,234 L434,234 L433,233 L431,233 L430,232 L427,232 L426,231 L424,231 L423,230 L421,230 L420,229 L418,229 L417,228 L415,228 L414,227 L412,227 L411,226 L409,226 L408,225 L406,225 L405,224 L402,224 L401,223 L399,223 L398,222 L396,222 L395,221 L393,221 L392,220 L390,220 L389,219 L387,219 L386,218 L384,218 L383,217 L380,217 L379,216 L377,216 L376,215 L374,215 L373,214 L371,214 L370,213 L368,213 L367,212 L365,212 L364,211 L362,211 L361,210 L359,210 L358,209 L355,209 L354,208 L352,208 L351,207 L349,207 L348,206 L346,206 L345,205 L343,205 L342,204 L340,204 L339,203 L337,203 L336,202 L333,202 L332,201 L330,201 L329,200 L327,200 L326,199 L324,199 L323,198 L321,198 L320,197 L318,197 L317,196 L315,196 L314,195 L312,195 L311,194 L308,194 L307,193 L305,193 L304,192 L302,192 L301,191 L299,191 L298,190 L296,190 L295,189 L293,189 L292,188 L290,188 L289,187 L286,187 L285,186 L283,186 L282,185 L280,185 L279,184 L277,184 L276,183 L274,183 L273,182 L271,182 L270,181 L268,181 L267,180 L265,180 L264,179 L261,179 L260,178 L259,178 L258,177 L259,176 L260,176 L261,175 L263,175 L264,174 L266,174 L267,173 L269,173 L270,172 L272,172 L273,171 L275,171 L276,170 L278,170 L279,169 L282,169 L283,168 L285,168 L286,167 L288,167 L289,166 L291,166 L292,165 L294,165 L295,164 L297,164 L298,163 L300,163 L301,162 L303,162 L304,161 L306,161 L307,160 L309,160 L310,159 L312,159 L313,158 L315,158 L316,157 L319,157 L320,156 L322,156 L323,155 L325,155 L326,154 L328,154 L329,153 L331,153 L332,152 L334,152 L335,151 L337,151 L338,150 L340,150 L341,149 L343,149 L344,148 L347,148 L348,147 L350,147 L351,146 L353,146 L354,145 L356,145 L357,144 L359,144 L360,143 L362,143 L363,142 L365,142 L366,141 L368,141 L369,140 L371,140 L372,139 L375,139 L376,138 L378,138 L379,137 L381,137 L382,136 L384,136 L385,135 L387,135 L388,134 L390,134 L391,133 L393,133 L394,132 L396,132 L397,131 L399,131 L400,130 L403,130 L404,129 L406,129 L407,128 L409,128 L410,127 L412,127 L413,126 L415,126 L416,125 L418,125 L419,124 L421,124 L422,123 L424,123 L425,122 L428,122 L429,121 L431,121 L432,120 L434,120 L435,119 L437,119 L438,118 L440,118 L441,117 L443,117 L444,116 L446,116 L447,115 L449,115 L450,114 L452,114 L453,113 L455,113 L456,112 L458,112 L459,111 L461,111 L462,110 L465,110 L466,109 L468,109 L469,108 L471,108 L472,107 L474,107 L475,106 L477,106 L478,105 L480,105 L481,104 L483,104 L484,103 L487,103 L488,102 L490,102 L491,101 L493,101 L494,100 L496,100 L497,99 L499,99 L500,98 L502,98 L503,97 L505,97 L506,96 Z" fill-rule="evenodd" fill="black"/></svg>
