<svg width="50" height="50" viewBox="0 0 50 50" fill="none" xmlns="http://www.w3.org/2000/svg">
<circle cx="25" cy="25" r="24.5" fill="#FDFBF3" stroke="#A6A6A6"/>
<path fill-rule="evenodd" clip-rule="evenodd" d="M24.8517 10L24.8188 10.0329H24.6869L24.654 10.0658H24.5881L24.5551 10.0986H24.4892L24.4563 10.1315H24.3904L24.3574 10.1644H24.2915L24.2586 10.1973H24.1926L24.1597 10.2302H24.0938L24.0608 10.263H23.962L23.929 10.2959H23.8631L23.8302 10.3288H23.7643L23.7313 10.3617H23.6654L23.6324 10.3946H23.5665L23.5336 10.4274H23.4677L23.4347 10.4603H23.3688L23.3359 10.4932H23.237L23.2041 10.5261H23.1381L23.1052 10.559H23.0393L23.0063 10.5918H22.9404L22.9075 10.6247H22.8416L22.8086 10.6576H22.7427L22.7098 10.6905H22.6439L22.6109 10.7234H22.545L22.512 10.7562H22.4461L22.4132 10.7891H22.3143L22.2814 10.822H22.2155L22.1825 10.8549H22.1166L22.0837 10.8878H22.0177L21.9848 10.9206H21.9189L21.8859 10.9535H21.82L21.7871 10.9864H21.7212L21.6882 11.0193H21.5894L21.5564 11.0522H21.4905L21.4575 11.085H21.3916L21.3587 11.1179H21.2928L21.2598 11.1508H21.1939L21.161 11.1837H21.0951L21.0621 11.2166H20.9962L20.9632 11.2494H20.8644L20.8314 11.2823H20.7655L20.7326 11.3152H20.6667L20.6337 11.3481H20.5678L20.5349 11.381H20.4689L20.436 11.4138H20.3701L20.3371 11.4467H20.2712L20.2383 11.4796H20.1724L20.1394 11.5125H20.0735L20.0406 11.5454H19.9747L19.9417 11.5782H19.8428L19.8099 11.6111H19.744L19.711 11.644H19.6451L19.6122 11.6769H19.5463L19.5133 11.7098H19.4474L19.4144 11.7426H19.3485L19.3156 11.7755H19.2497L19.2167 11.8084H19.1508L19.1179 11.8413H19.019L18.9861 11.8741H18.9202L18.8872 11.907H18.8213L18.7883 11.9399H18.7224L18.6895 11.9728H18.6236L18.5906 12.0057H18.5247L18.4918 12.0385H18.4259L18.3929 12.0714H18.327L18.294 12.1043H18.2281L18.1952 12.1372H18.1293L18.0963 12.1701H18.0304L17.9975 12.2029H17.8986L17.8657 12.2358H17.7997L17.7668 12.2687H17.7009L17.6679 12.3016H17.602L17.5691 12.3345H17.5032L17.4702 12.3673H17.4043L17.3714 12.4002H17.3055L17.2725 12.4331H17.2066L17.1736 12.466H17.1077L17.0748 12.4989H17.0089L16.9759 12.5317H16.91L16.8771 12.5646H16.8112L16.7782 12.5975H16.7123L16.6793 12.6304H16.6134L16.5805 12.6633H16.5146L16.4816 12.6961H16.4157L16.3828 12.729H16.2839L16.251 12.7619H16.185L16.1521 12.7948H16.0862L16.0532 12.8277H15.9873L15.9544 12.8605H15.8885L15.8555 12.8934H15.7896L15.7567 12.9263H15.6907L15.6578 12.9592H15.5919L15.5589 12.9921H15.493L15.4601 13.0249H15.3942L15.3612 13.0578H15.2953L15.2624 13.0907H15.1965L15.1635 13.1236H15.0976L15.0646 13.1565H14.9987L14.9658 13.1893H14.9328L14.8999 13.2222H14.8669L14.7681 13.3209V13.3537L14.7351 13.3866V13.4853L14.7022 13.5181V13.6168L14.7351 13.6497V13.7483L14.7681 13.7812V13.8141L14.8999 13.9456H14.9328L14.9658 13.9785H14.9987L15.0317 14.0113H15.0646L15.0976 14.0442H15.1965L15.2294 14.0771H15.2953L15.3283 14.11H15.3942L15.4271 14.1429H15.493L15.526 14.1757H15.5589L15.5919 14.2086V18.2528L15.5589 18.2857V18.3515L15.526 18.3844V18.4501L15.493 18.483V18.5488L15.4601 18.5816V18.6474L15.4271 18.6803V18.746L15.3942 18.7789V18.8447L15.3612 18.8776V18.9433L15.3283 18.9762V19.042L15.2953 19.0748V19.1406L15.2624 19.1735V19.2392L15.2294 19.2721V19.3379L15.1965 19.3707V19.4694L15.1635 19.5023V19.568L15.1305 19.6009V19.6667L15.0976 19.6995V19.7653L15.0646 19.7982V19.8968L15.0317 19.9297V19.9955L14.9987 20.0283V20.127L14.9658 20.1599V20.2585L14.9328 20.2914V20.3571L14.8999 20.39V20.4887L14.8669 20.5215V20.6202L14.834 20.6531V20.7517L14.801 20.7846V20.8832L14.7681 20.9161V21.0476L14.7351 21.0805V21.2449L14.7022 21.2778V21.771L14.7351 21.8039V21.9025L14.7681 21.9354V22.0011L14.801 22.034V22.0998L14.834 22.1327V22.1655L14.8999 22.2313V22.2642L14.9658 22.3299V22.3628L15.1635 22.5601H15.1965L15.2624 22.6259H15.2953L15.3283 22.6587H15.3612L15.3942 22.6916H15.4271L15.4601 22.7245H15.493L15.526 22.7574H15.5919L15.6248 22.7902H15.6907L15.7237 22.8231H16.3169L16.3498 22.7902H16.4157L16.4487 22.7574H16.5146L16.5475 22.7245H16.6134L16.6464 22.6916H16.6793L16.7452 22.6259H16.7782L16.8441 22.5601H16.8771L17.1077 22.3299V22.2971L17.1736 22.2313V22.1984L17.2066 22.1655V22.1327L17.2395 22.0998V22.0669L17.2725 22.034V21.9683L17.3055 21.9354V21.8696L17.3384 21.8367V21.6723L17.3714 21.6395V21.4422L17.3384 21.4093V21.212L17.3055 21.1791V21.0476L17.2725 21.0147V20.8832L17.2395 20.8503V20.7517L17.2066 20.7188V20.6202L17.1736 20.5873V20.4887L17.1407 20.4558V20.3571L17.1077 20.3243V20.2256L17.0748 20.1927V20.127L17.0418 20.0941V19.9955L17.0089 19.9626V19.8968L16.9759 19.8639V19.7653L16.943 19.7324V19.6667L16.91 19.6338V19.568L16.8771 19.5351V19.4694L16.8441 19.4365V19.3707L16.8112 19.3379V19.2721L16.7782 19.2392V19.1406L16.7452 19.1077V19.0748L16.7123 19.042V18.9433L16.6793 18.9104V18.8447L16.6464 18.8118V18.746L16.6134 18.7132V18.6474L16.5805 18.6145V18.5488L16.5475 18.5159V18.4501L16.5146 18.4172V18.3515L16.4816 18.3186V18.2857L16.4487 18.2528V14.5045L16.4816 14.4717H16.5146L16.5475 14.5045H16.6134L16.6464 14.5374H16.7123L16.7452 14.5703H16.8112L16.8441 14.6032H16.91L16.943 14.6361H17.0089L17.0418 14.6689H17.1077L17.1407 14.7018H17.2066L17.2395 14.7347H17.3055L17.3384 14.7676H17.4373L17.4702 14.8005H17.5361L17.5691 14.8333H17.635L17.6679 14.8662H17.7338L17.7668 14.8991H17.8327L17.8657 14.932H17.9316L17.9645 14.9649H18.0304L18.0634 14.9977H18.1293L18.1622 15.0306H18.2281L18.2611 15.0635H18.327L18.3599 15.0964H18.4259L18.4588 15.1293H18.5247L18.5577 15.1621H18.6565L18.7224 15.2279V18.746L18.6895 18.7789H18.6236L18.5906 18.8118H18.5577L18.5247 18.8447H18.4918L18.4588 18.8776H18.4259L18.3599 18.9433H18.327L18.0963 19.1735V19.2063L18.0304 19.2721V19.305L17.9975 19.3379V19.3707L17.9645 19.4036V19.4365L17.9316 19.4694V19.5023L17.8986 19.5351V19.6009L17.8657 19.6338V19.6995L17.8327 19.7324V19.8639L17.7997 19.8968V20.949L17.8327 20.9819V21.3764L17.8657 21.4093V21.6395L17.8986 21.6723V21.8039L17.9316 21.8367V21.9354L17.9645 21.9683V22.0011L17.9975 22.034V22.0998L18.0304 22.1327V22.1655L18.0634 22.1984V22.2313L18.1293 22.2971V22.3299L18.1952 22.3957V22.4286L18.4588 22.6916H18.4918L18.5577 22.7574H18.5906L18.6236 22.7902H18.6565L18.6895 22.8231H18.7224L18.7554 22.856H18.7883L18.8213 22.8889H18.8872L18.9202 22.9218H18.9861L19.019 22.9546V22.9875L19.052 23.0204V23.119L19.0849 23.1519V23.2177L19.1179 23.2506V23.3492L19.1508 23.3821V23.4478L19.1838 23.4807V23.5465L19.2167 23.5794V23.6451L19.2497 23.678V23.7438L19.2826 23.7766V23.8424L19.3156 23.8753V23.941L19.3485 23.9739V24.0068L19.3815 24.0397V24.1054L19.4144 24.1383V24.1712L19.4474 24.2041V24.2698L19.4804 24.3027V24.3356L19.5133 24.3685V24.4014L19.5463 24.4342V24.4671L19.5792 24.5V24.5658L19.6122 24.5986V24.6315L19.6451 24.6644V24.6973L19.6781 24.7302V24.763L19.711 24.7959V24.8288L19.744 24.8617V24.8946L19.7769 24.9274V24.9603L19.8428 25.0261V25.059L19.8758 25.0918V25.1247L19.9087 25.1576V25.1905L19.9417 25.2234V25.2562L20.0076 25.322V25.3549L20.0406 25.3878V25.4206L20.1065 25.4864V25.5193L20.1724 25.585V25.6179L20.2383 25.6837V25.7166L20.3042 25.7823V25.8152L20.3701 25.881V25.9138L20.436 25.9796V26.0125L20.5349 26.1111V26.144L20.6337 26.2426V26.2755L20.7655 26.407V26.4399L20.7985 26.4728V27.5249L20.7655 27.5578V27.6893L20.7326 27.7222V27.788L20.6996 27.8209V27.8866L20.6667 27.9195V27.9524L20.6337 27.9853V28.0181L20.5678 28.0839V28.1168L20.3042 28.3798H20.2712L20.2053 28.4456H20.1724L20.1394 28.4785H20.1065L20.0735 28.5113H20.0406L20.0076 28.5442H19.9747L19.9417 28.5771H19.9087L19.8758 28.61H19.8099L19.7769 28.6429H19.711L19.6781 28.6757H19.6122L19.5792 28.7086H19.5133L19.4804 28.7415H19.4144L19.3815 28.7744H19.2826L19.2497 28.8073H19.1838L19.1508 28.8401H19.052L19.019 28.873H18.9202L18.8872 28.9059H18.7883L18.7554 28.9388H18.6565L18.6236 28.9717H18.5247L18.4918 29.0045H18.3929L18.3599 29.0374H18.2611L18.2281 29.0703H18.1293L18.0963 29.1032H17.9975L17.9645 29.1361H17.8657L17.8327 29.1689H17.7338L17.7009 29.2018H17.602L17.5691 29.2347H17.5032L17.4702 29.2676H17.3714L17.3384 29.3005H17.2395L17.2066 29.3333H17.1407L17.1077 29.3662H17.0089L16.9759 29.3991H16.8771L16.8441 29.432H16.7782L16.7452 29.4649H16.6793L16.6464 29.4977H16.5475L16.5146 29.5306H16.4487L16.4157 29.5635H16.3498L16.3169 29.5964H16.251L16.218 29.6293H16.1521L16.1191 29.6621H16.0532L16.0203 29.695H15.9544L15.9214 29.7279H15.8555L15.8226 29.7608H15.7567L15.7237 29.7937H15.6907L15.6578 29.8265H15.5919L15.5589 29.8594H15.526L15.493 29.8923H15.4271L15.3942 29.9252H15.3612L15.3283 29.958H15.2953L15.2624 29.9909H15.2294L15.1965 30.0238H15.1635L15.1305 30.0567H15.0976L15.0646 30.0896H15.0317L14.9987 30.1224H14.9658L14.9328 30.1553H14.8999L14.8669 30.1882H14.834L14.801 30.2211H14.7681L14.7022 30.2868H14.6692L14.6362 30.3197H14.6033L14.5374 30.3855H14.5044L14.4385 30.4512H14.4056L14.2738 30.5828H14.2408L13.7465 31.076V31.1088L13.6147 31.2404V31.2732L13.5488 31.339V31.3719L13.4829 31.4376V31.4705L13.417 31.5363V31.5692L13.3511 31.6349V31.6678L13.3181 31.7007V31.7336L13.2852 31.7664V31.7993L13.2522 31.8322V31.8651L13.2193 31.898V31.9308L13.1863 31.9637V31.9966L13.1534 32.0295V32.0624L13.1204 32.0952V32.1281L13.0875 32.161V32.1939L13.0545 32.2268V32.2596L13.0215 32.2925V32.3254L12.9886 32.3583V32.3912L12.9556 32.424V32.4898L12.9227 32.5227V32.5556L12.8897 32.5884V32.6542L12.8568 32.6871V32.7528L12.8238 32.7857V32.8186L12.7909 32.8515V32.9172L12.7579 32.9501V33.0159L12.725 33.0488V33.1145L12.692 33.1474V33.2132L12.6591 33.246V33.3118L12.6261 33.3447V33.4104L12.5932 33.4433V33.5419L12.5602 33.5748V33.6406L12.5272 33.6735V33.7721L12.4943 33.805V33.9036L12.4613 33.9365V34.0351L12.4284 34.068V34.1667L12.3954 34.1995V34.2982L12.3625 34.3311V34.4626L12.3295 34.4955V34.5941L12.2966 34.627V34.7585L12.2636 34.7914V34.9558L12.2307 34.9887V35.1202L12.1977 35.1531V35.3175L12.1648 35.3503V35.5476L12.1318 35.5805V35.7778L12.0989 35.8107V36.0408L12.0659 36.0737V36.3367L12.033 36.3696V36.6984L12 36.7313V37.4218L12.033 37.4546V37.5862L12.0659 37.619V37.6848L12.0989 37.7177V37.7834L12.1318 37.8163V37.8492L12.1977 37.915V37.9478L12.2307 37.9807V38.0136L12.2966 38.0794V38.1122L12.6261 38.441H12.6591L12.725 38.5068H12.7579L12.8238 38.5726H12.8568L12.8897 38.6054H12.9227L12.9556 38.6383H12.9886L13.0215 38.6712H13.0545L13.0875 38.7041H13.1204L13.1534 38.737H13.2193L13.2522 38.7698H13.3181L13.3511 38.8027H13.417L13.4499 38.8356H13.5158L13.5488 38.8685H13.6477L13.6806 38.9014H13.8124L13.8454 38.9342H14.0431L14.076 38.9671H14.3397L14.3726 39H35.5615L35.5944 38.9671H35.891L35.924 38.9342H36.1217L36.1546 38.9014H36.2535L36.2864 38.8685H36.4183L36.4512 38.8356H36.5171L36.5501 38.8027H36.6489L36.6819 38.7698H36.7478L36.7807 38.737H36.8137L36.8466 38.7041H36.9125L36.9455 38.6712H36.9785L37.0114 38.6383H37.0444L37.0773 38.6054H37.1103L37.1762 38.5397H37.2091L37.2421 38.5068H37.275L37.3739 38.4082H37.4068L37.7034 38.1122V38.0794L37.7693 38.0136V37.9807L37.8023 37.9478V37.915L37.8682 37.8492V37.7834L37.9011 37.7506V37.7177L37.9341 37.6848V37.619L37.967 37.5862V37.4546L38 37.4218V36.6984L37.967 36.6655V36.3367L37.9341 36.3039V36.0408L37.9011 36.0079V35.7778L37.8682 35.7449V35.5476L37.8352 35.5147V35.3175L37.8023 35.2846V35.1202L37.7693 35.0873V34.9558L37.7364 34.9229V34.7585L37.7034 34.7256V34.5941L37.6705 34.5612V34.4626L37.6375 34.4297V34.2982L37.6046 34.2653V34.1667L37.5716 34.1338V34.0351L37.5387 34.0023V33.9036L37.5057 33.8707V33.7721L37.4728 33.7392V33.6735L37.4398 33.6406V33.5419L37.4068 33.5091V33.4433L37.3739 33.4104V33.3447L37.3409 33.3118V33.2132L37.308 33.1803V33.1145L37.275 33.0816V33.0488L37.2421 33.0159V32.9501L37.2091 32.9172V32.8515L37.1762 32.8186V32.7528L37.1432 32.72V32.6871L37.1103 32.6542V32.5884L37.0773 32.5556V32.5227L37.0444 32.4898V32.424L37.0114 32.3912V32.3583L36.9785 32.3254V32.2925L36.9455 32.2596V32.2268L36.9125 32.1939V32.1281L36.8796 32.0952V32.0624L36.8466 32.0295V31.9966L36.8137 31.9637V31.9308L36.7478 31.8651V31.8322L36.7148 31.7993V31.7664L36.6819 31.7336V31.7007L36.6489 31.6678V31.6349L36.583 31.5692V31.5363L36.5171 31.4705V31.4376L36.4512 31.3719V31.339L36.3853 31.2732V31.2404L36.2535 31.1088V31.076L35.7921 30.6156H35.7592L35.6274 30.4841H35.5944L35.4956 30.3855H35.4626L35.3967 30.3197H35.3638L35.3308 30.2868H35.2978L35.2319 30.2211H35.199L35.166 30.1882H35.1331L35.0672 30.1224H35.0342L35.0013 30.0896H34.9683L34.9354 30.0567H34.9024L34.8695 30.0238H34.8365L34.8035 29.9909H34.7706L34.7376 29.958H34.6717L34.6388 29.9252H34.6058L34.5729 29.8923H34.5399L34.507 29.8594H34.4411L34.4081 29.8265H34.3752L34.3422 29.7937H34.2763L34.2433 29.7608H34.2104L34.1774 29.7279H34.1115L34.0786 29.695H34.0127L33.9797 29.6621H33.9138L33.8809 29.6293H33.815L33.782 29.5964H33.7161L33.6831 29.5635H33.6172L33.5843 29.5306H33.5184L33.4854 29.4977H33.4195L33.3866 29.4649H33.2877L33.2548 29.432H33.1888L33.1559 29.3991H33.057L33.0241 29.3662H32.9252L32.8923 29.3333H32.8264L32.7934 29.3005H32.6946L32.6616 29.2676H32.5627L32.5298 29.2347H32.4309L32.398 29.2018H32.2991L32.2662 29.1689H32.1673L32.1343 29.1361H32.0355L32.0025 29.1032H31.9037L31.8707 29.0703H31.7719L31.7389 29.0374H31.6401L31.6071 29.0045H31.5082L31.4753 28.9717H31.3764L31.3435 28.9388H31.2446L31.2117 28.9059H31.1128L31.0798 28.873H30.981L30.948 28.8401H30.8492L30.8162 28.8073H30.7174L30.6844 28.7744H30.6185L30.5856 28.7415H30.4867L30.4537 28.7086H30.3878L30.3549 28.6757H30.289L30.256 28.6429H30.1901L30.1572 28.61H30.1242L30.0913 28.5771H30.0253L29.9924 28.5442H29.9594L29.9265 28.5113H29.8935L29.8276 28.4456H29.7947L29.7617 28.4127H29.7288L29.3992 28.0839V28.051L29.3663 28.0181V27.9853L29.3333 27.9524V27.9195L29.3004 27.8866V27.8537L29.2674 27.8209V27.7551L29.2345 27.7222V27.5907L29.2015 27.5578V26.4728L29.2674 26.407V26.3741L29.3992 26.2426V26.2098L29.4981 26.1111V26.0782L29.564 26.0125V25.9796L29.6629 25.881V25.8481L29.7288 25.7823V25.7494L29.7947 25.6837V25.6508L29.8606 25.585V25.5522L29.8935 25.5193V25.4864L29.9594 25.4206V25.3878L29.9924 25.3549V25.322L30.0583 25.2562V25.2234L30.0913 25.1905V25.1576L30.1242 25.1247V25.0918L30.1901 25.0261V24.9932L30.2231 24.9603V24.9274L30.256 24.8946V24.8617L30.289 24.8288V24.7959L30.3219 24.763V24.7302L30.3549 24.6973V24.6644L30.3878 24.6315V24.5658L30.4208 24.5329V24.5L30.4537 24.4671V24.4342L30.4867 24.4014V24.3685L30.5196 24.3356V24.2698L30.5526 24.237V24.2041L30.5856 24.1712V24.1054L30.6185 24.0726V24.0397L30.6515 24.0068V23.941L30.6844 23.9082V23.8424L30.7174 23.8095V23.7438L30.7503 23.7109V23.678L30.7833 23.6451V23.5465L30.8162 23.5136V23.4478L30.8492 23.415V23.3492L30.8821 23.3163V23.2177L30.9151 23.1848V23.119L30.948 23.0862V22.9875L31.0139 22.9218H31.0798L31.1128 22.8889H31.1787L31.2117 22.856H31.2446L31.2776 22.8231H31.3105L31.3435 22.7902H31.3764L31.4094 22.7574H31.4423L31.5082 22.6916H31.5412L31.8378 22.3957V22.3628L31.9037 22.2971V22.2642L31.9366 22.2313V22.1984L31.9696 22.1655V22.1327L32.0025 22.0998V22.0669L32.0355 22.034V21.9683L32.0684 21.9354V21.8696L32.1014 21.8367V21.7052L32.1343 21.6723V21.4422L32.1673 21.4093V20.9819L32.2003 20.949V19.8968L32.1673 19.8639V19.7324L32.1343 19.6995V19.6338L32.1014 19.6009V19.5351L32.0684 19.5023V19.4694L32.0355 19.4365V19.4036L32.0025 19.3707V19.3379L31.9696 19.305V19.2721L31.8707 19.1735V19.1406L31.673 18.9433H31.6401L31.5741 18.8776H31.5412L31.5082 18.8447H31.4753L31.4423 18.8118H31.4094L31.3764 18.7789H31.3105L31.2776 18.746V15.2279L31.3435 15.1621H31.4094L31.4423 15.1293H31.5082L31.5412 15.0964H31.6071L31.6401 15.0635H31.706L31.7389 15.0306H31.8048L31.8378 14.9977H31.9037L31.9366 14.9649H32.0355L32.0684 14.932H32.1343L32.1673 14.8991H32.2332L32.2662 14.8662H32.3321L32.365 14.8333H32.4309L32.4639 14.8005H32.5298L32.5627 14.7676H32.6286L32.6616 14.7347H32.7275L32.7605 14.7018H32.8264L32.8593 14.6689H32.9252L32.9582 14.6361H33.057L33.09 14.6032H33.1559L33.1888 14.5703H33.2548L33.2877 14.5374H33.3536L33.3866 14.5045H33.4525L33.4854 14.4717H33.5513L33.5843 14.4388H33.6502L33.6831 14.4059H33.749L33.782 14.373H33.8479L33.8809 14.3401H33.9468L33.9797 14.3073H34.0456L34.0786 14.2744H34.1774L34.2104 14.2415H34.2763L34.3093 14.2086H34.3752L34.4081 14.1757H34.474L34.507 14.1429H34.5729L34.6058 14.11H34.6717L34.7047 14.0771H34.7706L34.8035 14.0442H34.8695L34.9024 14.0113H34.9683L35.0013 13.9785H35.0342L35.0672 13.9456H35.1001L35.2319 13.8141V13.7812L35.2649 13.7483V13.6497L35.2978 13.6168V13.5181L35.2649 13.4853V13.4195L35.2319 13.3866V13.3537L35.1001 13.2222H35.0672L35.0342 13.1893H35.0013L34.9683 13.1565H34.9024L34.8695 13.1236H34.8035L34.7706 13.0907H34.7047L34.6717 13.0578H34.6058L34.5729 13.0249H34.507L34.474 12.9921H34.4081L34.3752 12.9592H34.3093L34.2763 12.9263H34.2104L34.1774 12.8934H34.1115L34.0786 12.8605H34.0127L33.9797 12.8277H33.9138L33.8809 12.7948H33.815L33.782 12.7619H33.7161L33.6831 12.729H33.6172L33.5843 12.6961H33.5184L33.4854 12.6633H33.3866L33.3536 12.6304H33.2877L33.2548 12.5975H33.1888L33.1559 12.5646H33.09L33.057 12.5317H32.9911L32.9582 12.4989H32.9252L32.8923 12.466H32.7934L32.7605 12.4331H32.6946L32.6616 12.4002H32.5957L32.5627 12.3673H32.4968L32.4639 12.3345H32.398L32.365 12.3016H32.2991L32.2662 12.2687H32.2003L32.1673 12.2358H32.1014L32.0684 12.2029H32.0025L31.9696 12.1701H31.9037L31.8707 12.1372H31.8048L31.7719 12.1043H31.706L31.673 12.0714H31.6071L31.5741 12.0385H31.5082L31.4753 12.0057H31.4094L31.3764 11.9728H31.3105L31.2776 11.9399H31.2117L31.1787 11.907H31.1128L31.0798 11.8741H30.981L30.948 11.8413H30.8821L30.8492 11.8084H30.7833L30.7503 11.7755H30.6844L30.6515 11.7426H30.5856L30.5526 11.7098H30.4867L30.4537 11.6769H30.3878L30.3549 11.644H30.289L30.256 11.6111H30.1901L30.1572 11.5782H30.0913L30.0583 11.5454H29.9594L29.9265 11.5125H29.8606L29.8276 11.4796H29.7617L29.7288 11.4467H29.6629L29.6299 11.4138H29.564L29.5311 11.381H29.4651L29.4322 11.3481H29.3663L29.3333 11.3152H29.2674L29.2345 11.2823H29.1686L29.1356 11.2494H29.0368L29.0038 11.2166H28.9379L28.9049 11.1837H28.839L28.8061 11.1508H28.7402L28.7072 11.1179H28.6413L28.6084 11.085H28.5425L28.5095 11.0522H28.4436L28.4106 11.0193H28.3447L28.3118 10.9864H28.2129L28.18 10.9535H28.1141L28.0811 10.9206H28.0152L27.9823 10.8878H27.9164L27.8834 10.8549H27.8175L27.7845 10.822H27.6857L27.6527 10.7891H27.5868L27.5539 10.7562H27.488L27.455 10.7234H27.3891L27.3561 10.6905H27.2902L27.2573 10.6576H27.1914L27.1584 10.6247H27.0596L27.0266 10.5918H26.9607L26.9278 10.559H26.8619L26.8289 10.5261H26.763L26.73 10.4932H26.6641L26.6312 10.4603H26.5653L26.5323 10.4274H26.4664L26.4335 10.3946H26.3676L26.3346 10.3617H26.2357L26.2028 10.3288H26.1369L26.1039 10.2959H26.038L26.0051 10.263H25.9392L25.9062 10.2302H25.8403L25.8074 10.1973H25.7414L25.7085 10.1644H25.6426L25.6096 10.1315H25.5108L25.4778 10.0986H25.4119L25.379 10.0658H25.3131L25.2801 10.0329H25.1812L25.1483 10H24.8517ZM32.5627 30.2211L32.5957 30.1882H32.6946L32.7275 30.2211H32.8264L32.8593 30.254H32.9582L32.9911 30.2868H33.057L33.09 30.3197H33.1888L33.2218 30.3526H33.2877L33.3207 30.3855H33.3866L33.4195 30.4184H33.5184L33.5513 30.4512H33.6172L33.6502 30.4841H33.7161L33.749 30.517H33.815L33.8479 30.5499H33.8809L33.9138 30.5828H33.9797L34.0127 30.6156H34.0786L34.1115 30.6485H34.1445L34.1774 30.6814H34.2433L34.2763 30.7143H34.3093L34.3422 30.7472H34.3752L34.4081 30.78H34.4411L34.474 30.8129H34.507L34.5399 30.8458H34.5729L34.6058 30.8787H34.6388L34.6717 30.9116H34.7047L34.7376 30.9444H34.7706L34.8365 31.0102H34.8695L34.9354 31.076H34.9683L35.0672 31.1746H35.1001L35.2319 31.3061H35.2649L35.4956 31.5363V31.5692L35.6603 31.7336V31.7664L35.7592 31.8651V31.898L35.8251 31.9637V31.9966L35.891 32.0624V32.0952L35.924 32.1281V32.161L35.9899 32.2268V32.2596L36.0228 32.2925V32.3254L36.0558 32.3583V32.3912L36.0887 32.424V32.4569L36.1217 32.4898V32.5227L36.1546 32.5556V32.5884L36.1876 32.6213V32.6542L36.2205 32.6871V32.72L36.2535 32.7528V32.8186L36.2864 32.8515V32.8844L36.3194 32.9172V32.983L36.3523 33.0159V33.0488L36.3853 33.0816V33.1474L36.4183 33.1803V33.246L36.4512 33.2789V33.3447L36.4842 33.3776V33.4433L36.5171 33.4762V33.5748L36.5501 33.6077V33.6735L36.583 33.7063V33.805L36.616 33.8379V33.9036L36.6489 33.9365V34.0351L36.6819 34.068V34.1667L36.7148 34.1995V34.3311L36.7478 34.3639V34.4626L36.7807 34.4955V34.627L36.8137 34.6599V34.7914L36.8466 34.8243V34.9558L36.8796 34.9887V35.1531L36.9125 35.1859V35.3503L36.9455 35.3832V35.5805L36.9785 35.6134V35.7778L37.0114 35.8107V35.9751L37.0444 36.0079V36.2381L37.0773 36.271V36.5011L37.1103 36.534V36.7971L37.1432 36.8299V37.3231L37.1103 37.356V37.4218L37.0444 37.4875V37.5204L36.8137 37.7506H36.7807L36.7148 37.8163H36.6819L36.6489 37.8492H36.616L36.583 37.8821H36.5501L36.5171 37.915H36.4512L36.4183 37.9478H36.3194L36.2864 37.9807H36.1876L36.1546 38.0136H36.0228L35.9899 38.0465H35.7921L35.7592 38.0794H25.7744L25.7414 38.0465L25.9392 37.8492V37.8163L26.1698 37.5862V37.5533L26.4005 37.3231V37.2902L26.6312 37.0601V37.0272L26.8619 36.7971V36.7642L27.0596 36.5669V36.534L27.2902 36.3039V36.271L27.488 36.0737V36.0408L27.7186 35.8107V35.7778L27.9493 35.5476V35.5147L28.18 35.2846V35.2517L28.3777 35.0544V35.0215L28.5754 34.8243V34.7914L28.8061 34.5612V34.5283L29.0368 34.2982V34.2653L29.2345 34.068V34.0351L29.4981 33.7721V33.7392L29.6958 33.5419V33.5091L29.9265 33.2789V33.246L30.1572 33.0159V32.983L30.3878 32.7528V32.72L30.5856 32.5227V32.4898L30.8162 32.2596V32.2268L31.0139 32.0295V31.9966L31.2446 31.7664V31.7336L31.4423 31.5363V31.5034L31.673 31.2732V31.2404L31.9037 31.0102V30.9773L32.1014 30.78V30.7472L32.3321 30.517V30.4841L32.5627 30.254V30.2211ZM17.2725 30.2211L17.3055 30.1882H17.4043L17.5032 30.2868V30.3197L17.7338 30.5499V30.5828L17.9316 30.78V30.8129L18.1293 31.0102V31.0431L18.3599 31.2732V31.3061L18.5577 31.5034V31.5363L18.7883 31.7664V31.7993L19.019 32.0295V32.0624L19.2167 32.2596V32.2925L19.4474 32.5227V32.5556L19.6451 32.7528V32.7857L19.9087 33.0488V33.0816L20.1065 33.2789V33.3118L20.3371 33.5419V33.5748L20.5678 33.805V33.8379L20.7655 34.0351V34.068L20.9962 34.2982V34.3311L21.1939 34.5283V34.5612L21.4246 34.7914V34.8243L21.6223 35.0215V35.0544L21.853 35.2846V35.3175L22.0837 35.5476V35.5805L22.2814 35.7778V35.8107L22.512 36.0408V36.0737L22.7098 36.271V36.3039L22.9404 36.534V36.5669L23.1381 36.7642V36.7971L23.3688 37.0272V37.0601L23.5665 37.2574V37.2902L23.7972 37.5204V37.5533L24.0279 37.7834V37.8163L24.2586 38.0465L24.2256 38.0794H14.2408L14.2079 38.0465H14.0101L13.9772 38.0136H13.8454L13.8124 37.9807H13.7136L13.6806 37.9478H13.5817L13.5488 37.915H13.5158L13.4829 37.8821H13.417L13.384 37.8492H13.3511L13.3181 37.8163H13.2852L13.2193 37.7506H13.1863L12.9556 37.5204V37.4875L12.9227 37.4546V37.4218L12.8897 37.3889V37.356L12.8568 37.3231V36.8628L12.8897 36.8299V36.534L12.9227 36.5011V36.271L12.9556 36.2381V36.0079L12.9886 35.9751V35.8107L13.0215 35.7778V35.5805L13.0545 35.5476V35.3832L13.0875 35.3503V35.2188L13.1204 35.1859V35.0215L13.1534 34.9887V34.8571L13.1863 34.8243V34.6927L13.2193 34.6599V34.5283L13.2522 34.4955V34.3639L13.2852 34.3311V34.2324L13.3181 34.1995V34.1009L13.3511 34.068V33.9694L13.384 33.9365V33.8379L13.417 33.805V33.7063L13.4499 33.6735V33.6077L13.4829 33.5748V33.4762L13.5158 33.4433V33.3776L13.5488 33.3447V33.2789L13.5817 33.246V33.2132L13.6147 33.1803V33.1145L13.6477 33.0816V33.0159L13.6806 32.983V32.9501L13.7136 32.9172V32.8515L13.7465 32.8186V32.7857L13.7795 32.7528V32.72L13.8124 32.6871V32.6213L13.8454 32.5884V32.5556L13.8783 32.5227V32.4898L13.9113 32.4569V32.424L13.9442 32.3912V32.3583L13.9772 32.3254V32.2925L14.0101 32.2596V32.2268L14.076 32.161V32.1281L14.109 32.0952V32.0624L14.1749 31.9966V31.9637L14.2408 31.898V31.8651L14.3397 31.7664V31.7336L14.4385 31.6349V31.602L14.7681 31.2732H14.801L14.9328 31.1417H14.9658L15.0317 31.076H15.0646L15.1305 31.0102H15.1635L15.2294 30.9444H15.2624L15.2953 30.9116H15.3283L15.3612 30.8787H15.3942L15.4271 30.8458H15.4601L15.493 30.8129H15.526L15.5589 30.78H15.5919L15.6248 30.7472H15.6578L15.6907 30.7143H15.7237L15.7567 30.6814H15.8226L15.8555 30.6485H15.8885L15.9214 30.6156H15.9873L16.0203 30.5828H16.0862L16.1191 30.5499H16.185L16.218 30.517H16.2839L16.3169 30.4841H16.3828L16.4157 30.4512H16.4816L16.5146 30.4184H16.5805L16.6134 30.3855H16.6793L16.7123 30.3526H16.8112L16.8441 30.3197H16.91L16.943 30.2868H17.0418L17.0748 30.254H17.1407L17.1736 30.2211H17.2725ZM20.3701 29.3333L20.403 29.3005H20.4689L20.6337 29.4649V29.4977L20.8314 29.695V29.7279L20.9962 29.8923V29.9252L21.161 30.0896V30.1224L21.3587 30.3197V30.3526L21.5234 30.517V30.5499L21.6882 30.7143V30.7472L21.853 30.9116V30.9444L22.0177 31.1088V31.1417L22.1825 31.3061V31.339L22.3473 31.5034V31.5363L22.512 31.7007V31.7336L22.6768 31.898V31.9308L22.8745 32.1281V32.161L23.0393 32.3254V32.3583L23.1711 32.4898V32.5227L23.3359 32.6871V32.72L23.5006 32.8844V32.9172L23.6654 33.0816V33.1145L23.8631 33.3118V33.3447L23.9949 33.4762V33.5091L24.1597 33.6735V33.7063L24.3245 33.8707V33.9036L24.4892 34.068V34.1009L24.7858 34.3968H24.8188L24.8517 34.4297H25.1153L25.1483 34.3968H25.2142L25.2801 34.3311H25.3131L25.346 34.2982V34.2653L25.5437 34.068V34.0351L25.6755 33.9036V33.8707L25.8733 33.6735V33.6406L26.0051 33.5091V33.4762L26.1698 33.3118V33.2789L26.3346 33.1145V33.0816L26.4994 32.9172V32.8844L26.6641 32.72V32.6871L26.8289 32.5227V32.4898L26.9937 32.3254V32.2925L27.1584 32.1281V32.0952L27.3232 31.9308V31.898L27.488 31.7336V31.7007L27.6527 31.5363V31.5034L27.8175 31.339V31.3061L27.9823 31.1417V31.1088L28.147 30.9444V30.9116L28.3118 30.7472V30.7143L28.4766 30.5499V30.517L28.6413 30.3526V30.3197L28.8061 30.1553V30.1224L28.9708 29.958V29.9252L29.1356 29.7608V29.7279L29.3004 29.5635V29.5306L29.4651 29.3662V29.3333L29.4981 29.3005H29.597L29.6299 29.3333H29.6958L29.7288 29.3662H29.7617L29.7947 29.3991H29.8606L29.8935 29.432H29.9594L29.9924 29.4649H30.0583L30.0913 29.4977H30.1572L30.1901 29.5306H30.256L30.289 29.5635H30.3549L30.3878 29.5964H30.4537L30.4867 29.6293H30.5526L30.5856 29.6621H30.6844L30.7174 29.695H30.7833L30.8162 29.7279H30.9151L30.948 29.7608H31.0469L31.0798 29.7937H31.1458L31.1787 29.8265H31.2776L31.3105 29.8594H31.4094L31.4423 29.8923H31.5082L31.5412 29.9252H31.6071L31.6401 29.958L31.4753 30.1224V30.1553L31.2446 30.3855V30.4184L31.0139 30.6485V30.6814L30.7833 30.9116V30.9444L30.5856 31.1417V31.1746L30.3549 31.4048V31.4376L30.1242 31.6678V31.7007L29.8935 31.9308V31.9637L29.6958 32.161V32.1939L29.4651 32.424V32.4569L29.2345 32.6871V32.72L29.0038 32.9501V32.983L28.8061 33.1803V33.2132L28.5754 33.4433V33.4762L28.3777 33.6735V33.7063L28.147 33.9365V33.9694L27.9493 34.1667V34.1995L27.7186 34.4297V34.4626L27.488 34.6927V34.7256L27.2573 34.9558V34.9887L27.0266 35.2188V35.2517L26.7959 35.4819V35.5147L26.5653 35.7449V35.7778L26.3676 35.9751V36.0079L26.1369 36.2381V36.271L25.9062 36.5011V36.534L25.7085 36.7313V36.7642L25.4778 36.9943V37.0272L25.2471 37.2574V37.2902L25.0494 37.4875V37.5204L25.0165 37.5533H24.9835L24.8847 37.4546V37.4218L24.654 37.1916V37.1587L24.4233 36.9286V36.8957L24.2256 36.6984V36.6655L24.0279 36.4683V36.4354L23.7972 36.2052V36.1723L23.5665 35.9422V35.9093L23.3688 35.712V35.6791L23.1381 35.449V35.4161L22.9404 35.2188V35.1859L22.7098 34.9558V34.9229L22.512 34.7256V34.6927L22.2814 34.4626V34.4297L22.0507 34.1995V34.1667L21.82 33.9365V33.9036L21.6223 33.7063V33.6735L21.4246 33.4762V33.4433L21.1939 33.2132V33.1803L20.9632 32.9501V32.9172L20.7655 32.72V32.6871L20.5678 32.4898V32.4569L20.3371 32.2268V32.1939L20.1394 31.9966V31.9637L19.9087 31.7336V31.7007L19.711 31.5034V31.4705L19.4804 31.2404V31.2075L19.2826 31.0102V30.9773L19.052 30.7472V30.7143L18.8213 30.4841V30.4512L18.6236 30.254V30.2211L18.3929 29.9909V29.958L18.4259 29.9252H18.5247L18.5577 29.8923H18.6236L18.6565 29.8594H18.7554L18.7883 29.8265H18.8872L18.9202 29.7937H18.9861L19.019 29.7608H19.1179L19.1508 29.7279H19.2167L19.2497 29.695H19.3485L19.3815 29.6621H19.4474L19.4804 29.6293H19.5463L19.5792 29.5964H19.6451L19.6781 29.5635H19.744L19.7769 29.5306H19.8428L19.8758 29.4977H19.9417L19.9747 29.4649H20.0406L20.0735 29.432H20.1065L20.1394 29.3991H20.2053L20.2383 29.3662H20.2712L20.3042 29.3333H20.3701ZM21.6223 27.2948L21.6553 27.2619L21.7541 27.3605H21.7871L21.9189 27.4921H21.9518L22.0177 27.5578H22.0507L22.1496 27.6565H22.1825L22.2155 27.6893H22.2484L22.3143 27.7551H22.3473L22.4132 27.8209H22.4461L22.4791 27.8537H22.512L22.5779 27.9195H22.6109L22.6439 27.9524H22.6768L22.7098 27.9853H22.7427L22.7757 28.0181H22.8086L22.8416 28.051H22.8745L22.9075 28.0839H22.9404L22.9734 28.1168H23.0063L23.0393 28.1497H23.1052L23.1381 28.1825H23.1711L23.2041 28.2154H23.237L23.27 28.2483H23.3359L23.3688 28.2812H23.4347L23.4677 28.3141H23.5336L23.5665 28.3469H23.6324L23.6654 28.3798H23.7643L23.7972 28.4127H23.8961L23.929 28.4456H24.0279L24.0608 28.4785H24.2256L24.2586 28.5113H24.4563L24.4892 28.5442H25.5437L25.5767 28.5113H25.7744L25.8074 28.4785H25.9721L26.0051 28.4456H26.1039L26.1369 28.4127H26.2357L26.2687 28.3798H26.3676L26.4005 28.3469H26.4664L26.4994 28.3141H26.5653L26.5982 28.2812H26.6641L26.6971 28.2483H26.73L26.763 28.2154H26.8289L26.8619 28.1825H26.8948L26.9278 28.1497H26.9607L26.9937 28.1168H27.0266L27.0596 28.0839H27.0925L27.1255 28.051H27.1584L27.1914 28.0181H27.2243L27.2573 27.9853H27.2902L27.3232 27.9524H27.3561L27.3891 27.9195H27.4221L27.488 27.8537H27.5209L27.5539 27.8209H27.5868L27.6527 27.7551H27.6857L27.7186 27.7222H27.7516L27.8504 27.6236H27.8834L27.9493 27.5578H27.9823L28.1141 27.4263H28.147L28.2459 27.3277H28.2788V27.2948L28.3118 27.2619L28.3447 27.2948V27.4592L28.3777 27.4921V27.7551L28.4106 27.788V27.9195L28.4436 27.9524V28.051L28.4766 28.0839V28.1497L28.5095 28.1825V28.2154L28.5425 28.2483V28.2812L28.5754 28.3141V28.3469L28.6084 28.3798V28.4127L28.6413 28.4456V28.4785L28.7072 28.5442V28.5771L28.8061 28.6757V28.7415L28.7402 28.8073V28.8401L28.6084 28.9717V29.0045L28.4436 29.1689V29.2018L28.2788 29.3662V29.3991L28.1141 29.5635V29.5964L27.9493 29.7608V29.7937L27.7845 29.958V29.9909L27.6198 30.1553V30.1882L27.455 30.3526V30.3855L27.2902 30.5499V30.5828L27.1584 30.7143V30.7472L26.9607 30.9444V30.9773L26.7959 31.1417V31.1746L26.6312 31.339V31.3719L26.4664 31.5363V31.5692L26.3346 31.7007V31.7336L26.1698 31.898V31.9308L26.0051 32.0952V32.1281L25.8403 32.2925V32.3254L25.6755 32.4898V32.5227L25.5108 32.6871V32.72L25.346 32.8844V32.9172L25.1812 33.0816V33.1145L25.0494 33.246V33.2789L25.0165 33.3118H24.9835L24.9506 33.2789V33.246L24.8188 33.1145V33.0816L24.654 32.9172V32.8844L24.4892 32.72V32.6871L24.3245 32.5227V32.4898L24.1597 32.3254V32.2925L23.9949 32.1281V32.0952L23.8302 31.9308V31.898L23.6654 31.7336V31.7007L23.5006 31.5363V31.5034L23.3359 31.339V31.3061L23.1711 31.1417V31.1088L23.0063 30.9444V30.9116L22.8416 30.7472V30.7143L22.6768 30.5499V30.517L22.4791 30.3197V30.2868L22.3473 30.1553V30.1224L22.1825 29.958V29.9252L21.9848 29.7279V29.695L21.853 29.5635V29.5306L21.6882 29.3662V29.3333L21.5234 29.1689V29.1361L21.3587 28.9717V28.9388L21.2269 28.8073V28.7744L21.161 28.7086L21.2598 28.61V28.5771L21.3257 28.5113V28.4785L21.3587 28.4456V28.4127L21.3916 28.3798V28.3469L21.4246 28.3141V28.2812L21.4575 28.2483V28.2154L21.4905 28.1825V28.1497L21.5234 28.1168V28.051L21.5564 28.0181V27.9195L21.5894 27.8866V27.7222L21.6223 27.6893V27.2948ZM15.9873 19.6995L16.0203 19.6667L16.0532 19.6995V19.7324L16.0862 19.7653V19.8311L16.1191 19.8639V19.9626L16.1521 19.9955V20.0941L16.185 20.127V20.1927L16.218 20.2256V20.3243L16.251 20.3571V20.4229L16.2839 20.4558V20.5544L16.3169 20.5873V20.6859L16.3498 20.7188V20.8175L16.3828 20.8503V20.9819L16.4157 21.0147V21.1134L16.4487 21.1463V21.3107L16.4816 21.3435V21.5408L16.5146 21.5737L16.4816 21.6066V21.6723L16.4487 21.7052V21.7381L16.4157 21.771V21.8039L16.3169 21.9025H16.2839L16.251 21.9354H16.218L16.185 21.9683H15.8885L15.8555 21.9354H15.7896L15.5919 21.7381V21.7052L15.5589 21.6723V21.6395L15.526 21.6066V21.5079L15.5589 21.4751V21.3435L15.5919 21.3107V21.1791L15.6248 21.1463V21.0147L15.6578 20.9819V20.8832L15.6907 20.8503V20.7846L15.7237 20.7517V20.6531L15.7567 20.6202V20.5215L15.7896 20.4887V20.4229L15.8226 20.39V20.2914L15.8555 20.2585V20.1599L15.8885 20.127V20.0612L15.9214 20.0283V19.9297L15.9544 19.8968V19.8311L15.9873 19.7982V19.6995ZM19.6122 18.5159L19.6451 18.483H19.711L19.744 18.5159H19.7769L19.8099 18.5488H19.8758L19.9087 18.5816H19.9747L20.0076 18.6145H20.0735L20.1065 18.6474H20.1724L20.2053 18.6803H20.2712L20.3042 18.7132H20.3701L20.403 18.746H20.4689L20.5019 18.7789H20.6008L20.6337 18.8118H20.7326L20.7655 18.8447H20.8314L20.8644 18.8776H20.9632L20.9962 18.9104H21.0951L21.128 18.9433H21.2598L21.2928 18.9762H21.3916L21.4246 19.0091H21.5564L21.5894 19.042H21.7212L21.7541 19.0748H21.8859L21.9189 19.1077H22.0837L22.1166 19.1406H22.3143L22.3473 19.1735H22.512L22.545 19.2063H22.7757L22.8086 19.2392H23.0722L23.1052 19.2721H23.3688L23.4018 19.305H23.7643L23.7972 19.3379H24.3245L24.3574 19.3707H25.7744L25.8074 19.3379H26.3016L26.3346 19.305H26.6641L26.6971 19.2721H26.9607L26.9937 19.2392H27.2573L27.2902 19.2063H27.488L27.5209 19.1735H27.7186L27.7516 19.1406H27.8834L27.9164 19.1077H28.0811L28.1141 19.0748H28.2788L28.3118 19.042H28.4436L28.4766 19.0091H28.6084L28.6413 18.9762H28.7402L28.7731 18.9433H28.872L28.9049 18.9104H29.0038L29.0368 18.8776H29.1356L29.1686 18.8447H29.2674L29.3004 18.8118H29.3992L29.4322 18.7789H29.4981L29.5311 18.746H29.597L29.6299 18.7132H29.6958L29.7288 18.6803H29.8276L29.8606 18.6474H29.9265L29.9594 18.6145H30.0253L30.0583 18.5816H30.0913L30.1242 18.5488H30.1901L30.2231 18.5159H30.289L30.3219 18.483H30.3549L30.3878 18.5159V19.2063L30.4208 19.2392V19.3379L30.4537 19.3707V19.4036L30.5856 19.5351H30.6515L30.6844 19.568H31.0139L31.0469 19.6009H31.1128L31.2446 19.7324V19.7653L31.2776 19.7982V19.8311L31.3105 19.8639V19.9297L31.3435 19.9626V20.6531L31.3105 20.6859V21.1463L31.2776 21.1791V21.4751L31.2446 21.5079V21.6395L31.2117 21.6723V21.7381L31.1787 21.771V21.8039L31.1458 21.8367V21.8696L30.981 22.034H30.9151L30.8821 22.0669H30.7174L30.6844 22.0998H30.4867L30.4537 22.1327H30.3878L30.3219 22.1984H30.289V22.2313L30.256 22.2642V22.2971L30.2231 22.3299V22.3957L30.1901 22.4286V22.5272L30.1572 22.5601V22.6259L30.1242 22.6587V22.7574L30.0913 22.7902V22.8889L30.0583 22.9218V22.9875L30.0253 23.0204V23.119L29.9924 23.1519V23.2177L29.9594 23.2506V23.3163L29.9265 23.3492V23.415L29.8935 23.4478V23.5136L29.8606 23.5465V23.5794L29.8276 23.6122V23.678L29.7947 23.7109V23.7766L29.7617 23.8095V23.8424L29.7288 23.8753V23.941L29.6958 23.9739V24.0068L29.6629 24.0397V24.0726L29.6299 24.1054V24.1712L29.597 24.2041V24.237L29.564 24.2698V24.3027L29.5311 24.3356V24.3685L29.4981 24.4014V24.4342L29.4651 24.4671V24.5L29.4322 24.5329V24.5658L29.3663 24.6315V24.6644L29.3333 24.6973V24.7302L29.3004 24.763V24.7959L29.2345 24.8617V24.8946L29.2015 24.9274V24.9603L29.1356 25.0261V25.059L29.0697 25.1247V25.1576L29.0038 25.2234V25.2562L28.9379 25.322V25.3549L28.839 25.4535V25.4864L28.7402 25.585V25.6179L28.6084 25.7494V25.7823L28.4436 25.9467V25.9796L27.9493 26.4728H27.9164L27.7186 26.6701H27.6857L27.5868 26.7687H27.5539L27.455 26.8673H27.4221L27.3561 26.9331H27.3232L27.2243 27.0317H27.1914L27.1584 27.0646H27.1255L27.0596 27.1304H27.0266L26.9937 27.1633H26.9607L26.9278 27.1961H26.8948L26.8619 27.229H26.8289L26.7959 27.2619H26.763L26.73 27.2948H26.6971L26.6641 27.3277H26.6312L26.5982 27.3605H26.5653L26.5323 27.3934H26.4994L26.4664 27.4263H26.4005L26.3676 27.4592H26.3016L26.2687 27.4921H26.2028L26.1698 27.5249H26.1039L26.071 27.5578H25.9721L25.9392 27.5907H25.8403L25.8074 27.6236H25.7085L25.6755 27.6565H25.4778L25.4449 27.6893H24.5881L24.5551 27.6565H24.3245L24.2915 27.6236H24.1597L24.1267 27.5907H24.0279L23.9949 27.5578H23.8961L23.8631 27.5249H23.7972L23.7643 27.4921H23.6984L23.6654 27.4592H23.6324L23.5995 27.4263H23.5336L23.5006 27.3934H23.4677L23.4347 27.3605H23.3688L23.3359 27.3277H23.3029L23.27 27.2948H23.237L23.2041 27.2619H23.1711L23.1381 27.229H23.1052L23.0722 27.1961H23.0393L22.9734 27.1304H22.9404L22.9075 27.0975H22.8745L22.8086 27.0317H22.7757L22.7098 26.966H22.6768L22.6109 26.9002H22.5779L22.512 26.8345H22.4791L22.3473 26.7029H22.3143L22.1496 26.5385H22.1166L21.5234 25.9467V25.9138L21.3587 25.7494V25.7166L21.2269 25.585V25.5522L21.128 25.4535V25.4206L21.0621 25.3549V25.322L20.9632 25.2234V25.1905L20.8973 25.1247V25.0918L20.8644 25.059V25.0261L20.7985 24.9603V24.9274L20.7326 24.8617V24.8288L20.6996 24.7959V24.763L20.6667 24.7302V24.6973L20.6337 24.6644V24.6315L20.5678 24.5658V24.5329L20.5349 24.5V24.4671L20.5019 24.4342V24.4014L20.4689 24.3685V24.3356L20.436 24.3027V24.2698L20.403 24.237V24.1712L20.3701 24.1383V24.1054L20.3371 24.0726V24.0397L20.3042 24.0068V23.9739L20.2712 23.941V23.8753L20.2383 23.8424V23.8095L20.2053 23.7766V23.7109L20.1724 23.678V23.6122L20.1394 23.5794V23.5465L20.1065 23.5136V23.4478L20.0735 23.415V23.3492L20.0406 23.3163V23.2506L20.0076 23.2177V23.1519L19.9747 23.119V23.0533L19.9417 23.0204V22.9218L19.9087 22.8889V22.8231L19.8758 22.7902V22.6916L19.8428 22.6587V22.5601L19.8099 22.5272V22.4286L19.7769 22.3957V22.3299L19.744 22.2971V22.2642L19.6451 22.1655H19.6122L19.5792 22.1327H19.5463L19.5133 22.0998H19.3156L19.2826 22.0669H19.1179L19.0849 22.034H19.052L19.019 22.0011H18.9861L18.8542 21.8696V21.8367L18.8213 21.8039V21.771L18.7883 21.7381V21.6723L18.7554 21.6395V21.5408L18.7224 21.5079V21.2449L18.6895 21.212V20.8175L18.6565 20.7846V19.9626L18.6895 19.9297V19.8311L18.7224 19.7982V19.7653L18.8872 19.6009H18.9531L18.9861 19.568H19.2497L19.2826 19.5351H19.3815L19.4144 19.5023H19.4474L19.5133 19.4365V19.4036L19.5463 19.3707V19.3379L19.5792 19.305V19.1077L19.6122 19.0748V18.5159ZM19.5792 15.5238L19.6122 15.4909H19.6781L19.711 15.5238H19.7769L19.8099 15.5567H19.8758L19.9087 15.5896H19.9747L20.0076 15.6224H20.0735L20.1065 15.6553H20.1724L20.2053 15.6882H20.2712L20.3042 15.7211H20.3701L20.403 15.754H20.4689L20.5019 15.7868H20.6008L20.6337 15.8197H20.6996L20.7326 15.8526H20.7985L20.8314 15.8855H20.8973L20.9303 15.9184H20.9962L21.0292 15.9512H21.0951L21.128 15.9841H21.1939L21.2269 16.017H21.2928L21.3257 16.0499H21.4246L21.4575 16.0828H21.5234L21.5564 16.1156H21.6223L21.6553 16.1485H21.7212L21.7541 16.1814H21.82L21.853 16.2143H21.9189L21.9518 16.2472H22.0177L22.0507 16.28H22.1166L22.1496 16.3129H22.2155L22.2484 16.3458H22.3473L22.3802 16.3787H22.4461L22.4791 16.4116H22.545L22.5779 16.4444H22.6439L22.6768 16.4773H22.7427L22.7757 16.5102H22.8416L22.8745 16.5431H22.9404L22.9734 16.576H23.0393L23.0722 16.6088H23.1381L23.1711 16.6417H23.27L23.3029 16.6746H23.3688L23.4018 16.7075H23.4677L23.5006 16.7404H23.5665L23.5995 16.7732H23.6654L23.6984 16.8061H23.7643L23.7972 16.839H23.8631L23.8961 16.8719H23.962L23.9949 16.9048H24.0608L24.0938 16.9376H24.1926L24.2256 16.9705H24.2915L24.3245 17.0034H24.3904L24.4233 17.0363H24.4892L24.5222 17.0692H24.5551L24.5881 17.102H24.6869L24.7199 17.1349H24.8188L24.8517 17.1678H25.1483L25.1812 17.1349H25.2801L25.3131 17.102H25.4119L25.4449 17.0692H25.5108L25.5437 17.0363H25.6096L25.6426 17.0034H25.7085L25.7414 16.9705H25.8074L25.8403 16.9376H25.9062L25.9392 16.9048H26.0051L26.038 16.8719H26.1039L26.1369 16.839H26.2028L26.2357 16.8061H26.3016L26.3346 16.7732H26.4005L26.4335 16.7404H26.5323L26.5653 16.7075H26.6312L26.6641 16.6746H26.73L26.763 16.6417H26.8289L26.8619 16.6088H26.9278L26.9607 16.576H27.0266L27.0596 16.5431H27.1255L27.1584 16.5102H27.2573L27.2902 16.4773H27.3561L27.3891 16.4444H27.455L27.488 16.4116H27.5539L27.5868 16.3787H27.6527L27.6857 16.3458H27.7516L27.7845 16.3129H27.8504L27.8834 16.28H27.9493L27.9823 16.2472H28.0482L28.0811 16.2143H28.18L28.2129 16.1814H28.2788L28.3118 16.1485H28.3777L28.4106 16.1156H28.4766L28.5095 16.0828H28.5754L28.6084 16.0499H28.6743L28.7072 16.017H28.7731L28.8061 15.9841H28.872L28.9049 15.9512H29.0038L29.0368 15.9184H29.1027L29.1356 15.8855H29.2015L29.2345 15.8526H29.3004L29.3333 15.8197H29.3992L29.4322 15.7868H29.4981L29.5311 15.754H29.597L29.6299 15.7211H29.6958L29.7288 15.6882H29.8276L29.8606 15.6553H29.9265L29.9594 15.6224H30.0253L30.0583 15.5896H30.1242L30.1572 15.5567H30.2231L30.256 15.5238H30.3219L30.3549 15.4909L30.3878 15.5238V17.4637L30.3219 17.5295H30.289L30.256 17.5624H30.2231L30.1901 17.5952H30.1242L30.0913 17.6281H30.0583L30.0253 17.661H29.9594L29.9265 17.6939H29.8935L29.8606 17.7268H29.7947L29.7617 17.7596H29.6958L29.6629 17.7925H29.597L29.564 17.8254H29.4981L29.4651 17.8583H29.3992L29.3663 17.8912H29.3004L29.2674 17.924H29.1686L29.1356 17.9569H29.0697L29.0368 17.9898H28.9379L28.9049 18.0227H28.839L28.8061 18.0556H28.7072L28.6743 18.0884H28.5425L28.5095 18.1213H28.4106L28.3777 18.1542H28.2459L28.2129 18.1871H28.0811L28.0482 18.22H27.9164L27.8834 18.2528H27.7186L27.6857 18.2857H27.5539L27.5209 18.3186H27.3232L27.2902 18.3515H27.0596L27.0266 18.3844H26.763L26.73 18.4172H26.4005L26.3676 18.4501H25.9392L25.9062 18.483H24.2586L24.2256 18.4501H23.6984L23.6654 18.4172H23.3359L23.3029 18.3844H23.0393L23.0063 18.3515H22.7757L22.7427 18.3186H22.545L22.512 18.2857H22.3143L22.2814 18.2528H22.1496L22.1166 18.22H21.9518L21.9189 18.1871H21.7871L21.7541 18.1542H21.6223L21.5894 18.1213H21.4905L21.4575 18.0884H21.3587L21.3257 18.0556H21.2269L21.1939 18.0227H21.0951L21.0621 17.9898H20.9632L20.9303 17.9569H20.8644L20.8314 17.924H20.7326L20.6996 17.8912H20.6337L20.6008 17.8583H20.5349L20.5019 17.8254H20.436L20.403 17.7925H20.3371L20.3042 17.7596H20.2383L20.2053 17.7268H20.1394L20.1065 17.6939H20.0406L20.0076 17.661H19.9747L19.9417 17.6281H19.8758L19.8428 17.5952H19.8099L19.7769 17.5624H19.744L19.711 17.5295H19.6781L19.6122 17.4637V15.5567L19.5792 15.5238ZM24.8847 10.9206L24.9176 10.8878H25.0494L25.0824 10.9206H25.1483L25.1812 10.9535H25.2801L25.3131 10.9864H25.379L25.4119 11.0193H25.4778L25.5108 11.0522H25.5767L25.6096 11.085H25.6755L25.7085 11.1179H25.7744L25.8074 11.1508H25.8733L25.9062 11.1837H25.9721L26.0051 11.2166H26.1039L26.1369 11.2494H26.2028L26.2357 11.2823H26.3016L26.3346 11.3152H26.4005L26.4335 11.3481H26.4994L26.5323 11.381H26.5982L26.6312 11.4138H26.6971L26.73 11.4467H26.7959L26.8289 11.4796H26.9278L26.9607 11.5125H27.0266L27.0596 11.5454H27.1255L27.1584 11.5782H27.2243L27.2573 11.6111H27.3232L27.3561 11.644H27.455L27.488 11.6769H27.5539L27.5868 11.7098H27.6527L27.6857 11.7426H27.7516L27.7845 11.7755H27.8504L27.8834 11.8084H27.9493L27.9823 11.8413H28.0482L28.0811 11.8741H28.147L28.18 11.907H28.2788L28.3118 11.9399H28.3777L28.4106 11.9728H28.4766L28.5095 12.0057H28.5754L28.6084 12.0385H28.6743L28.7072 12.0714H28.7731L28.8061 12.1043H28.9049L28.9379 12.1372H29.0038L29.0368 12.1701H29.1027L29.1356 12.2029H29.2015L29.2345 12.2358H29.3004L29.3333 12.2687H29.3992L29.4322 12.3016H29.4981L29.5311 12.3345H29.597L29.6299 12.3673H29.6958L29.7288 12.4002H29.8276L29.8606 12.4331H29.9265L29.9594 12.466H30.0253L30.0583 12.4989H30.1242L30.1572 12.5317H30.2231L30.256 12.5646H30.3219L30.3549 12.5975H30.4208L30.4537 12.6304H30.5196L30.5526 12.6633H30.6185L30.6515 12.6961H30.7174L30.7503 12.729H30.8492L30.8821 12.7619H30.948L30.981 12.7948H31.0469L31.0798 12.8277H31.1458L31.1787 12.8605H31.2446L31.2776 12.8934H31.3435L31.3764 12.9263H31.4423L31.4753 12.9592H31.5412L31.5741 12.9921H31.6401L31.673 13.0249H31.7389L31.7719 13.0578H31.8378L31.8707 13.0907H31.9366L31.9696 13.1236H32.0355L32.0684 13.1565H32.1343L32.1673 13.1893H32.2332L32.2662 13.2222H32.3321L32.365 13.2551H32.4309L32.4639 13.288H32.5627L32.5957 13.3209H32.6616L32.6946 13.3537H32.7605L32.7934 13.3866H32.8593L32.8923 13.4195H32.9582L32.9911 13.4524H33.057L33.09 13.4853H33.1559L33.1888 13.5181H33.2548L33.2877 13.551H33.3536L33.3866 13.5839L33.3536 13.6168H33.2877L33.2548 13.6497H33.1888L33.1559 13.6825H33.09L33.057 13.7154H32.9582L32.9252 13.7483H32.8593L32.8264 13.7812H32.7605L32.7275 13.8141H32.6616L32.6286 13.8469H32.5627L32.5298 13.8798H32.4639L32.4309 13.9127H32.365L32.3321 13.9456H32.2662L32.2332 13.9785H32.1673L32.1343 14.0113H32.0355L32.0025 14.0442H31.9366L31.9037 14.0771H31.8378L31.8048 14.11H31.7389L31.706 14.1429H31.6401L31.6071 14.1757H31.5412L31.5082 14.2086H31.4423L31.4094 14.2415H31.3435L31.3105 14.2744H31.2446L31.2117 14.3073H31.1128L31.0798 14.3401H31.0139L30.981 14.373H30.9151L30.8821 14.4059H30.8162L30.7833 14.4388H30.7174L30.6844 14.4717H30.6185L30.5856 14.5045H30.5196L30.4867 14.5374H30.4208L30.3878 14.5703H30.3219L30.289 14.6032H30.1901L30.1572 14.6361H30.0913L30.0583 14.6689H29.9924L29.9594 14.7018H29.8935L29.8606 14.7347H29.7947L29.7617 14.7676H29.6958L29.6629 14.8005H29.597L29.564 14.8333H29.4981L29.4651 14.8662H29.3663L29.3333 14.8991H29.2674L29.2345 14.932H29.1686L29.1356 14.9649H29.0697L29.0368 14.9977H28.9708L28.9379 15.0306H28.872L28.839 15.0635H28.7731L28.7402 15.0964H28.6743L28.6413 15.1293H28.5754L28.5425 15.1621H28.4436L28.4106 15.195H28.3447L28.3118 15.2279H28.2459L28.2129 15.2608H28.147L28.1141 15.2937H28.0482L28.0152 15.3265H27.9493L27.9164 15.3594H27.8504L27.8175 15.3923H27.7516L27.7186 15.4252H27.6198L27.5868 15.458H27.5209L27.488 15.4909H27.4221L27.3891 15.5238H27.3232L27.2902 15.5567H27.2243L27.1914 15.5896H27.1255L27.0925 15.6224H27.0266L26.9937 15.6553H26.9278L26.8948 15.6882H26.7959L26.763 15.7211H26.6971L26.6641 15.754H26.5982L26.5653 15.7868H26.4994L26.4664 15.8197H26.4005L26.3676 15.8526H26.3016L26.2687 15.8855H26.2028L26.1698 15.9184H26.1039L26.071 15.9512H25.9721L25.9392 15.9841H25.8733L25.8403 16.017H25.7744L25.7414 16.0499H25.6755L25.6426 16.0828H25.5767L25.5437 16.1156H25.4778L25.4449 16.1485H25.379L25.346 16.1814H25.2801L25.2471 16.2143H25.1812L25.1483 16.2472H25.0824L25.0494 16.28H24.9835L24.9506 16.2472H24.8847L24.8517 16.2143H24.7858L24.7529 16.1814H24.6869L24.654 16.1485H24.5881L24.5551 16.1156H24.4892L24.4563 16.0828H24.3904L24.3574 16.0499H24.2915L24.2586 16.017H24.1597L24.1267 15.9841H24.0608L24.0279 15.9512H23.962L23.929 15.9184H23.8631L23.8302 15.8855H23.7643L23.7313 15.8526H23.6654L23.6324 15.8197H23.5665L23.5336 15.7868H23.4677L23.4347 15.754H23.3688L23.3359 15.7211H23.27L23.237 15.6882H23.1381L23.1052 15.6553H23.0393L23.0063 15.6224H22.9404L22.9075 15.5896H22.8416L22.8086 15.5567H22.7427L22.7098 15.5238H22.6439L22.6109 15.4909H22.545L22.512 15.458H22.4461L22.4132 15.4252H22.3473L22.3143 15.3923H22.2155L22.1825 15.3594H22.1166L22.0837 15.3265H22.0177L21.9848 15.2937H21.9189L21.8859 15.2608H21.82L21.7871 15.2279H21.7212L21.6882 15.195H21.6223L21.5894 15.1621H21.5234L21.4905 15.1293H21.3916L21.3587 15.0964H21.2928L21.2598 15.0635H21.1939L21.161 15.0306H21.0951L21.0621 14.9977H20.9962L20.9632 14.9649H20.8973L20.8644 14.932H20.7985L20.7655 14.8991H20.6667L20.6337 14.8662H20.5678L20.5349 14.8333H20.4689L20.436 14.8005H20.3701L20.3371 14.7676H20.2712L20.2383 14.7347H20.1724L20.1394 14.7018H20.0735L20.0406 14.6689H19.9747L19.9417 14.6361H19.8428L19.8099 14.6032H19.744L19.711 14.5703H19.6451L19.6122 14.5374H19.5463L19.5133 14.5045H19.4474L19.4144 14.4717H19.3485L19.3156 14.4388H19.2497L19.2167 14.4059H19.1179L19.0849 14.373H19.019L18.9861 14.3401H18.9202L18.8872 14.3073H18.8213L18.7883 14.2744H18.7224L18.6895 14.2415H18.6236L18.5906 14.2086H18.5247L18.4918 14.1757H18.4259L18.3929 14.1429H18.294L18.2611 14.11H18.1952L18.1622 14.0771H18.0963L18.0634 14.0442H17.9975L17.9645 14.0113H17.8986L17.8657 13.9785H17.7997L17.7668 13.9456H17.7009L17.6679 13.9127H17.5691L17.5361 13.8798H17.4702L17.4373 13.8469H17.3714L17.3384 13.8141H17.2725L17.2395 13.7812H17.1736L17.1407 13.7483H17.0748L17.0418 13.7154H16.9759L16.943 13.6825H16.8771L16.8441 13.6497H16.7452L16.7123 13.6168H16.6793L16.6464 13.5839L16.6793 13.551H16.7123L16.7452 13.5181H16.8112L16.8441 13.4853H16.91L16.943 13.4524H17.0089L17.0418 13.4195H17.1077L17.1407 13.3866H17.2066L17.2395 13.3537H17.3055L17.3384 13.3209H17.4373L17.4702 13.288H17.5361L17.5691 13.2551H17.635L17.6679 13.2222H17.7338L17.7668 13.1893H17.8327L17.8657 13.1565H17.9316L17.9645 13.1236H18.0304L18.0634 13.0907H18.1293L18.1622 13.0578H18.2281L18.2611 13.0249H18.327L18.3599 12.9921H18.4259L18.4588 12.9592H18.5247L18.5577 12.9263H18.6565L18.6895 12.8934H18.7554L18.7883 12.8605H18.8542L18.8872 12.8277H18.9531L18.9861 12.7948H19.052L19.0849 12.7619H19.1508L19.1838 12.729H19.2497L19.2826 12.6961H19.3485L19.3815 12.6633H19.4474L19.4804 12.6304H19.5792L19.6122 12.5975H19.6781L19.711 12.5646H19.7769L19.8099 12.5317H19.8758L19.9087 12.4989H19.9747L20.0076 12.466H20.0735L20.1065 12.4331H20.1724L20.2053 12.4002H20.2712L20.3042 12.3673H20.3701L20.403 12.3345H20.5019L20.5349 12.3016H20.6008L20.6337 12.2687H20.6996L20.7326 12.2358H20.7985L20.8314 12.2029H20.8973L20.9303 12.1701H20.9962L21.0292 12.1372H21.0951L21.128 12.1043H21.1939L21.2269 12.0714H21.2928L21.3257 12.0385H21.4246L21.4575 12.0057H21.5234L21.5564 11.9728H21.6223L21.6553 11.9399H21.7212L21.7541 11.907H21.82L21.853 11.8741H21.9189L21.9518 11.8413H22.0177L22.0507 11.8084H22.1166L22.1496 11.7755H22.2484L22.2814 11.7426H22.3473L22.3802 11.7098H22.4461L22.4791 11.6769H22.545L22.5779 11.644H22.6439L22.6768 11.6111H22.7427L22.7757 11.5782H22.8416L22.8745 11.5454H22.9404L22.9734 11.5125H23.0393L23.0722 11.4796H23.1381L23.1711 11.4467H23.237L23.27 11.4138H23.3359L23.3688 11.381H23.4677L23.5006 11.3481H23.5665L23.5995 11.3152H23.6654L23.6984 11.2823H23.7643L23.7972 11.2494H23.8631L23.8961 11.2166H23.962L23.9949 11.1837H24.0608L24.0938 11.1508H24.1926L24.2256 11.1179H24.2915L24.3245 11.085H24.3904L24.4233 11.0522H24.4892L24.5222 11.0193H24.5881L24.621 10.9864H24.6869L24.7199 10.9535H24.7858L24.8188 10.9206H24.8847Z" fill="black"/>
</svg>
