<svg width="50" height="50" viewBox="0 0 50 50" fill="none" xmlns="http://www.w3.org/2000/svg">
<circle cx="25" cy="25" r="24.5" fill="#FDFBF3" stroke="#A6A6A6"/>
<path fill-rule="evenodd" clip-rule="evenodd" d="M23.5633 10L23.5283 10.0354H23.283L23.248 10.0708H23.0728L23.0377 10.1063H22.8976L22.8625 10.1417H22.7224L22.6873 10.1771H22.5822L22.5472 10.2125H22.442L22.407 10.2479H22.3019L22.2668 10.2834H22.1968L22.1617 10.3188H22.0916L22.0566 10.3542H21.9865L21.9515 10.3896H21.8814L21.8464 10.425H21.7763L21.7412 10.4604H21.6712L21.6361 10.4959H21.6011L21.566 10.5313H21.531L21.496 10.5667H21.4609L21.4259 10.6021H21.3908L21.3558 10.6375H21.3208L21.2857 10.673H21.2507L21.2156 10.7084H21.1806L21.1456 10.7438H21.1105L21.0755 10.7792H21.0404L20.9704 10.8501H20.9353L20.8652 10.9209H20.8302L20.7601 10.9917H20.7251L20.655 11.0626H20.6199L20.5148 11.1688H20.4798L20.3747 11.2751H20.3396L19.6388 11.9835V12.0189L19.4636 12.196V12.2314L19.2884 12.4085V12.4439L19.1833 12.5502V12.5856L19.0782 12.6919V12.7273L18.973 12.8335V12.8689L18.903 12.9398V12.9752L18.8329 13.046V13.0815L18.7628 13.1523V13.1877L18.6927 13.2586V13.294L18.6226 13.3648V13.4002L18.5876 13.4357V13.4711L18.5175 13.5419V13.5773L18.4825 13.6128V13.6482L18.4474 13.6836V13.719L18.4124 13.7544V13.7898L18.3774 13.8253V13.8607L18.3423 13.8961V13.9315L18.3073 13.9669V14.0024L18.2722 14.0378V14.1086L18.2372 14.144V14.1795L18.2022 14.2149V14.2503L18.1671 14.2857V14.3566L18.1321 14.392V14.4628L18.097 14.4982V14.5691L18.062 14.6045V14.6399L18.027 14.6753V14.7462L17.9919 14.7816V14.8524L17.9569 14.8878V14.9941L17.9218 15.0295V15.1004L17.8868 15.1358V15.2066L17.8518 15.242V15.3483L17.8167 15.3837V15.49L17.7817 15.5254V15.6316L17.7466 15.6671V15.7733L17.7116 15.8087V15.915L17.6765 15.9504V16.0921L17.6415 16.1275V16.2338L17.6065 16.2692V16.4109L17.5714 16.4463V16.588L17.5364 16.6234V16.7651L17.5013 16.8005V16.9421L17.4663 16.9776V17.1901L17.4313 17.2255V17.4026L17.3962 17.438V17.686L17.3612 17.7214V18.0047L17.3261 18.0401V18.3589L17.2911 18.3943V18.8548L17.2561 18.8902V19.634L17.221 19.6694V21.0153L17.2561 21.0508V21.6529L17.2911 21.6883V22.2196L17.3261 22.255V22.8571L17.3612 22.8926V25.3719L17.3261 25.4073V26.1511L17.2911 26.1865V26.7178L17.2561 26.7532V27.1074L17.221 27.1429V27.3908L17.186 27.4262V27.6387L17.1509 27.6741V27.8867L17.1159 27.9221V28.0638L17.0809 28.0992V28.2054L17.0458 28.2408V28.3471L17.0108 28.3825V28.4888L16.9757 28.5242V28.6305L16.9407 28.6659H16.8356L16.8005 28.7013H16.6954L16.6604 28.7367H16.5202L16.4852 28.7721H16.3801L16.345 28.8076H16.2399L16.2049 28.843H16.0997L16.0647 28.8784H15.9946L15.9596 28.9138H15.8895L15.8544 28.9492H15.7844L15.7493 28.9847H15.7143L15.6792 29.0201H15.6092L15.5741 29.0555H15.5391L15.504 29.0909H15.469L15.434 29.1263H15.3989L15.3639 29.1617H15.3288L15.2588 29.2326H15.2237L15.1887 29.268H15.1536L15.0836 29.3388H15.0485L14.9784 29.4097H14.9434L14.8383 29.5159H14.8032L14.6631 29.6576H14.628L13.9623 30.3306V30.366L13.7871 30.5431V30.5785L13.717 30.6493V30.6848L13.6119 30.791V30.8264L13.5418 30.8973V30.9327L13.4717 31.0035V31.039L13.4367 31.0744V31.1098L13.3666 31.1806V31.2161L13.3315 31.2515V31.2869L13.2965 31.3223V31.3577L13.2615 31.3932V31.4286L13.2264 31.464V31.4994L13.1563 31.5702V31.6057L13.1213 31.6411V31.6765L13.0863 31.7119V31.7473L13.0512 31.7828V31.8536L13.0162 31.889V31.9244L12.9811 31.9599V31.9953L12.9461 32.0307V32.0661L12.9111 32.1015V32.137L12.876 32.1724V32.2078L12.841 32.2432V32.314L12.8059 32.3495V32.3849L12.7709 32.4203V32.4557L12.7358 32.4911V32.562L12.7008 32.5974V32.6328L12.6658 32.6682V32.7391L12.6307 32.7745V32.8099L12.5957 32.8453V32.9162L12.5606 32.9516V32.987L12.5256 33.0224V33.0933L12.4906 33.1287V33.1995L12.4555 33.2349V33.2704L12.4205 33.3058V33.3766L12.3854 33.412V33.4829L12.3504 33.5183V33.5891L12.3154 33.6246V33.6954L12.2803 33.7308V33.8371L12.2453 33.8725V33.9433L12.2102 33.9787V34.085L12.1752 34.1204V34.2267L12.1402 34.2621V34.3684L12.1051 34.4038V34.5455L12.0701 34.5809V34.758L12.035 34.7934V35.0767L12 35.1122V35.5372L12.035 35.5726V35.7851L12.0701 35.8205V35.9268L12.1051 35.9622V36.0331L12.1402 36.0685V36.1393L12.1752 36.1747V36.2456L12.2102 36.281V36.3164L12.2453 36.3518V36.3872L12.2803 36.4227V36.4581L12.3504 36.5289V36.5643L12.4205 36.6352V36.6706L12.4906 36.7414V36.7769L12.6307 36.9185V36.954L12.841 37.1665H12.876L13.0512 37.3436H13.0863L13.1914 37.4498H13.2264L13.3315 37.5561H13.3666L13.4367 37.6269H13.4717L13.5418 37.6978H13.5768L13.6119 37.7332H13.6469L13.717 37.804H13.752L13.7871 37.8394H13.8221L13.8571 37.8749H13.8922L13.9623 37.9457H13.9973L14.0323 37.9811H14.0674L14.1024 38.0165H14.1375L14.1725 38.0519H14.2075L14.2426 38.0874H14.2776L14.3127 38.1228H14.3477L14.3827 38.1582H14.4178L14.4528 38.1936H14.5229L14.558 38.229H14.593L14.628 38.2645H14.6631L14.6981 38.2999H14.7332L14.7682 38.3353H14.8383L14.8733 38.3707H14.9084L14.9434 38.4061H14.9784L15.0135 38.4416H15.0836L15.1186 38.477H15.1887L15.2237 38.5124H15.2588L15.2938 38.5478H15.3639L15.3989 38.5832H15.469L15.504 38.6187H15.5391L15.5741 38.6541H15.6442L15.6792 38.6895H15.7493L15.7844 38.7249H15.8544L15.8895 38.7603H15.9596L15.9946 38.7957H16.0647L16.0997 38.8312H16.1698L16.2049 38.8666H16.31L16.345 38.902H16.4151L16.4501 38.9374H16.5202L16.5553 38.9728H16.6604L16.6954 39.0083H16.8005L16.8356 39.0437H16.9057L16.9407 39.0791H17.0458L17.0809 39.1145H17.186L17.221 39.1499H17.3261L17.3612 39.1854H17.4663L17.5013 39.2208H17.6415L17.6765 39.2562H17.7817L17.8167 39.2916H17.9569L17.9919 39.327H18.1321L18.1671 39.3625H18.2722L18.3073 39.3979H18.4825L18.5175 39.4333H18.6577L18.6927 39.4687H18.8329L18.8679 39.5041H19.0431L19.0782 39.5396H19.2534L19.2884 39.575H19.4636L19.4987 39.6104H19.7089L19.7439 39.6458H19.9542L19.9892 39.6812H20.1995L20.2345 39.7166H20.4798L20.5148 39.7521H20.7951L20.8302 39.7875H21.1105L21.1456 39.8229H21.4259L21.4609 39.8583H21.8464L21.8814 39.8937H22.3019L22.3369 39.9292H22.8625L22.8976 39.9646H23.6685L23.7035 40H26.5067L26.5418 39.9646H27.3477L27.3827 39.9292H27.8733L27.9084 39.8937H28.3639L28.3989 39.8583H28.7493L28.7844 39.8229H29.0997L29.1348 39.7875H29.4151L29.4501 39.7521H29.7305L29.7655 39.7166H29.9757L30.0108 39.6812H30.2561L30.2911 39.6458H30.5013L30.5364 39.6104H30.7116L30.7466 39.575H30.9218L30.9569 39.5396H31.1321L31.1671 39.5041H31.3073L31.3423 39.4687H31.4825L31.5175 39.4333H31.6577L31.6927 39.3979H31.8679L31.903 39.3625H32.0081L32.0431 39.327H32.1833L32.2183 39.2916H32.3234L32.3585 39.2562H32.4987L32.5337 39.2208H32.6388L32.6739 39.1854H32.779L32.814 39.1499H32.9191L32.9542 39.1145H33.0593L33.0943 39.0791H33.1644L33.1995 39.0437H33.3046L33.3396 39.0083H33.4447L33.4798 38.9728H33.5499L33.5849 38.9374H33.655L33.69 38.902H33.7951L33.8302 38.8666H33.9003L33.9353 38.8312H34.0054L34.0404 38.7957H34.1105L34.1456 38.7603H34.2156L34.2507 38.7249H34.3208L34.3558 38.6895H34.4259L34.4609 38.6541H34.531L34.566 38.6187H34.6361L34.6712 38.5832H34.7062L34.7412 38.5478H34.8113L34.8464 38.5124H34.8814L34.9164 38.477H34.9865L35.0216 38.4416H35.0566L35.0916 38.4061H35.1617L35.1968 38.3707H35.2318L35.2668 38.3353H35.3019L35.3369 38.2999H35.407L35.442 38.2645H35.4771L35.5121 38.229H35.5472L35.5822 38.1936H35.6173L35.6523 38.1582H35.6873L35.7224 38.1228H35.7574L35.7925 38.0874H35.8275L35.8625 38.0519H35.8976L35.9326 38.0165H35.9677L36.0027 37.9811H36.0377L36.1078 37.9103H36.1429L36.1779 37.8749H36.2129L36.248 37.8394H36.283L36.3531 37.7686H36.3881L36.4582 37.6978H36.4933L36.5633 37.6269H36.5984L36.6685 37.5561H36.7035L36.8086 37.4498H36.8437L36.9838 37.3081H37.0189L37.4043 36.9185V36.8831L37.5094 36.7769V36.7414L37.6146 36.6352V36.5998L37.6496 36.5643V36.5289L37.7197 36.4581V36.4227L37.7547 36.3872V36.3518L37.7898 36.3164V36.2456L37.8248 36.2102V36.1747L37.8598 36.1393V36.0685L37.8949 36.0331V35.9268L37.9299 35.8914V35.7851L37.965 35.7497V35.5726L38 35.5372V35.0059L37.965 34.9705V34.7225L37.9299 34.6871V34.51L37.8949 34.4746V34.3329L37.8598 34.2975V34.1913L37.8248 34.1558V34.0496L37.7898 34.0142V33.9079L37.7547 33.8725V33.8017L37.7197 33.7662V33.6954L37.6846 33.66V33.5891L37.6496 33.5537V33.4829L37.6146 33.4475V33.3766L37.5795 33.3412V33.2704L37.5445 33.2349V33.1641L37.5094 33.1287V33.0933L37.4744 33.0579V32.987L37.4394 32.9516V32.9162L37.4043 32.8808V32.8099L37.3693 32.7745V32.7391L37.3342 32.7037V32.6682L37.2992 32.6328V32.562L37.2642 32.5266V32.4911L37.2291 32.4557V32.4203L37.1941 32.3849V32.314L37.159 32.2786V32.2432L37.124 32.2078V32.1724L37.0889 32.137V32.1015L37.0539 32.0661V32.0307L37.0189 31.9953V31.9599L36.9838 31.9244V31.889L36.9488 31.8536V31.7828L36.8787 31.7119V31.6765L36.8437 31.6411V31.6057L36.8086 31.5702V31.5348L36.7736 31.4994V31.464L36.7385 31.4286V31.3932L36.7035 31.3577V31.3223L36.6685 31.2869V31.2515L36.5984 31.1806V31.1452L36.5633 31.1098V31.0744L36.4933 31.0035V30.9681L36.4582 30.9327V30.8973L36.3881 30.8264V30.791L36.3181 30.7202V30.6848L36.2129 30.5785V30.5431L36.1078 30.4368V30.4014L35.9677 30.2597V30.2243L35.4771 29.7285H35.442L35.3019 29.5868H35.2668L35.1617 29.4805H35.1267L35.0216 29.3743H34.9865L34.9164 29.3034H34.8814L34.8464 29.268H34.8113L34.7763 29.2326H34.7412L34.6712 29.1617H34.6361L34.6011 29.1263H34.566L34.531 29.0909H34.4609L34.4259 29.0555H34.3908L34.3558 29.0201H34.3208L34.2857 28.9847H34.2156L34.1806 28.9492H34.1105L34.0755 28.9138H34.0054L33.9704 28.8784H33.9003L33.8652 28.843H33.7601L33.7251 28.8076H33.6199L33.5849 28.7721H33.4798L33.4447 28.7367H33.3396L33.3046 28.7013H33.1644L33.1294 28.6659H33.0943L33.0243 28.595V28.4888L32.9892 28.4534V28.3471L32.9542 28.3117V28.2054L32.9191 28.17V28.0638L32.8841 28.0283V27.8158L32.8491 27.7804V27.5679L32.814 27.5325V27.2491L32.779 27.2137V26.8949L32.7439 26.8595V26.4345L32.7089 26.3991V25.6907L32.6739 25.6553V22.7509L32.7089 22.7155V22.1842L32.7439 22.1488V21.6529L32.779 21.6175V21.0508L32.814 21.0153V19.5632L32.779 19.5277V18.7485L32.7439 18.7131V18.2881L32.7089 18.2527V17.9339L32.6739 17.8985V17.6151L32.6388 17.5797V17.3672L32.6038 17.3318V17.1547L32.5687 17.1192V16.9421L32.5337 16.9067V16.7651L32.4987 16.7296V16.588L32.4636 16.5525V16.4109L32.4286 16.3754V16.2692L32.3935 16.2338V16.0921L32.3585 16.0567V15.9504L32.3234 15.915V15.8087L32.2884 15.7733V15.6316L32.2534 15.5962V15.5254L32.2183 15.49V15.3837L32.1833 15.3483V15.242L32.1482 15.2066V15.1358L32.1132 15.1004V15.0295L32.0782 14.9941V14.9233L32.0431 14.8878V14.817L32.0081 14.7816V14.7107L31.973 14.6753V14.6045L31.938 14.5691V14.4982L31.903 14.4628V14.4274L31.8679 14.392V14.3211L31.8329 14.2857V14.2503L31.7978 14.2149V14.144L31.7628 14.1086V14.0732L31.7278 14.0378V14.0024L31.6927 13.9669V13.9315L31.6577 13.8961V13.8607L31.6226 13.8253V13.7544L31.5876 13.719V13.6836L31.5526 13.6482V13.6128L31.4825 13.5419V13.5065L31.4474 13.4711V13.4357L31.4124 13.4002V13.3648L31.3774 13.3294V13.294L31.3073 13.2231V13.1877L31.2722 13.1523V13.1169L31.2022 13.046V13.0106L31.1321 12.9398V12.9044L31.062 12.8335V12.7981L30.9919 12.7273V12.6919L30.8868 12.5856V12.5502L30.7817 12.4439V12.4085L30.6065 12.2314V12.196L30.3612 11.9481V11.9126L30.0458 11.5939H30.0108L29.7655 11.3459H29.7305L29.5903 11.2043H29.5553L29.4501 11.098H29.4151L29.345 11.0272H29.31L29.2399 10.9563H29.2049L29.1698 10.9209H29.1348L29.0647 10.8501H29.0296L28.9946 10.8146H28.9596L28.9245 10.7792H28.8895L28.8544 10.7438H28.8194L28.7844 10.7084H28.7493L28.7143 10.673H28.6792L28.6442 10.6375H28.6092L28.5741 10.6021H28.5391L28.504 10.5667H28.469L28.434 10.5313H28.3639L28.3288 10.4959H28.2938L28.2588 10.4604H28.1887L28.1536 10.425H28.0836L28.0485 10.3896H27.9784L27.9434 10.3542H27.8733L27.8383 10.3188H27.7682L27.7332 10.2834H27.628L27.593 10.2479H27.5229L27.4879 10.2125H27.3827L27.3477 10.1771H27.2426L27.2075 10.1417H27.1024L27.0674 10.1063H26.9272L26.8922 10.0708H26.6819L26.6469 10.0354H26.3666L26.3315 10H23.5633ZM30.3962 28.6659L30.4313 28.7013H30.5013L30.5364 28.7367H30.6065L30.6415 28.7721H30.7116L30.7466 28.8076H30.8167L30.8518 28.843H30.9569L30.9919 28.8784H31.062L31.097 28.9138H31.2022L31.2372 28.9492H31.3423L31.3774 28.9847H31.4825L31.5175 29.0201H31.6226L31.6577 29.0555H31.7628L31.7978 29.0909H31.938L31.973 29.1263H32.1132L32.1482 29.1617H32.3234L32.3585 29.1972H32.5337L32.5687 29.2326H32.7439L32.779 29.268H32.9542L32.9892 29.3034H33.1294L33.1644 29.3388H33.3046L33.3396 29.3743H33.4447L33.4798 29.4097H33.5499L33.5849 29.4451H33.69L33.7251 29.4805H33.7601L33.7951 29.5159H33.8652L33.9003 29.5514H33.9704L34.0054 29.5868H34.0404L34.0755 29.6222H34.1105L34.1456 29.6576H34.1806L34.2156 29.693H34.2507L34.2857 29.7285H34.3208L34.3908 29.7993H34.4259L34.4609 29.8347H34.496L34.566 29.9055H34.6011L34.7062 30.0118H34.7412L34.8814 30.1535H34.9164L35.442 30.6848V30.7202L35.6173 30.8973V30.9327L35.7224 31.039V31.0744L35.8275 31.1806V31.2161L35.8976 31.2869V31.3223L35.9677 31.3932V31.4286L36.0377 31.4994V31.5348L36.0728 31.5702V31.6057L36.1429 31.6765V31.7119L36.1779 31.7473V31.7828L36.2129 31.8182V31.8536L36.248 31.889V31.9244L36.283 31.9599V31.9953L36.3181 32.0307V32.0661L36.3531 32.1015V32.137L36.3881 32.1724V32.2078L36.4232 32.2432V32.2786L36.4582 32.314V32.3495L36.4933 32.3849V32.4203L36.5283 32.4557V32.5266L36.5633 32.562V32.5974L36.5984 32.6328V32.6682L36.6334 32.7037V32.7745L36.6685 32.8099V32.8453L36.7035 32.8808V32.9516L36.7385 32.987V33.0224L36.7736 33.0579V33.1287L36.8086 33.1641V33.1995L36.8437 33.2349V33.3058L36.8787 33.3412V33.3766L36.9137 33.412V33.4829L36.9488 33.5183V33.5891L36.9838 33.6246V33.6954L37.0189 33.7308V33.7662L37.0539 33.8017V33.8725L37.0889 33.9079V33.9787L37.124 34.0142V34.1204L37.159 34.1558V34.2267L37.1941 34.2621V34.3684L37.2291 34.4038V34.51L37.2642 34.5455V34.6871L37.2992 34.7225V34.8996L37.3342 34.9351V35.5018L37.2992 35.5372V35.6434L37.2642 35.6789V35.7497L37.2291 35.7851V35.856L37.1941 35.8914V35.9268L37.159 35.9622V35.9976L37.124 36.0331V36.0685L37.0539 36.1393V36.1747L36.9488 36.281V36.3164L36.4232 36.8477H36.3881L36.248 36.9894H36.2129L36.1078 37.0956H36.0728L36.0027 37.1665H35.9677L35.8976 37.2373H35.8625L35.8275 37.2727H35.7925L35.7224 37.3436H35.6873L35.6523 37.379H35.6173L35.5472 37.4498H35.5121L35.4771 37.4852H35.442L35.407 37.5207H35.372L35.3369 37.5561H35.3019L35.2668 37.5915H35.2318L35.1968 37.6269H35.1617L35.1267 37.6623H35.0916L35.0566 37.6978H35.0216L34.9865 37.7332H34.9164L34.8814 37.7686H34.8464L34.8113 37.804H34.7763L34.7412 37.8394H34.6712L34.6361 37.8749H34.6011L34.566 37.9103H34.496L34.4609 37.9457H34.4259L34.3908 37.9811H34.3208L34.2857 38.0165H34.2156L34.1806 38.0519H34.1105L34.0755 38.0874H34.0404L34.0054 38.1228H33.9353L33.9003 38.1582H33.8302L33.7951 38.1936H33.69L33.655 38.229H33.5849L33.5499 38.2645H33.4798L33.4447 38.2999H33.3396L33.3046 38.3353H33.2345L33.1995 38.3707H33.0943L33.0593 38.4061H32.9892L32.9542 38.4416H32.8491L32.814 38.477H32.7089L32.6739 38.5124H32.5687L32.5337 38.5478H32.4286L32.3935 38.5832H32.2884L32.2534 38.6187H32.1132L32.0782 38.6541H31.973L31.938 38.6895H31.7978L31.7628 38.7249H31.6226L31.5876 38.7603H31.4474L31.4124 38.7957H31.2722L31.2372 38.8312H31.062L31.027 38.8666H30.8518L30.8167 38.902H30.6415L30.6065 38.9374H30.4313L30.3962 38.9728H30.186L30.1509 39.0083H29.9407L29.9057 39.0437H29.6604L29.6253 39.0791H29.3801L29.345 39.1145H29.0647L29.0296 39.1499H28.7493L28.7143 39.1854H28.3288L28.2938 39.2208H27.8733L27.8383 39.2562H27.3477L27.3127 39.2916H26.6469L26.6119 39.327H23.4933L23.4582 39.2916H22.7574L22.7224 39.2562H22.2318L22.1968 39.2208H21.7763L21.7412 39.1854H21.3558L21.3208 39.1499H21.0054L20.9704 39.1145H20.69L20.655 39.0791H20.4097L20.3747 39.0437H20.1294L20.0943 39.0083H19.8841L19.8491 38.9728H19.6388L19.6038 38.9374H19.4286L19.3935 38.902H19.2183L19.1833 38.8666H19.0081L18.973 38.8312H18.7978L18.7628 38.7957H18.6226L18.5876 38.7603H18.4474L18.4124 38.7249H18.2722L18.2372 38.6895H18.1321L18.097 38.6541H17.9569L17.9218 38.6187H17.7817L17.7466 38.5832H17.6415L17.6065 38.5478H17.5013L17.4663 38.5124H17.3612L17.3261 38.477H17.221L17.186 38.4416H17.1159L17.0809 38.4061H16.9757L16.9407 38.3707H16.8356L16.8005 38.3353H16.7305L16.6954 38.2999H16.5903L16.5553 38.2645H16.4852L16.4501 38.229H16.3801L16.345 38.1936H16.2749L16.2399 38.1582H16.1698L16.1348 38.1228H16.0647L16.0296 38.0874H15.9596L15.9245 38.0519H15.8544L15.8194 38.0165H15.7493L15.7143 37.9811H15.6442L15.6092 37.9457H15.5741L15.5391 37.9103H15.469L15.434 37.8749H15.3989L15.3639 37.8394H15.2938L15.2588 37.804H15.2237L15.1887 37.7686H15.1536L15.1186 37.7332H15.0485L15.0135 37.6978H14.9784L14.9434 37.6623H14.9084L14.8733 37.6269H14.8383L14.8032 37.5915H14.7682L14.7332 37.5561H14.6981L14.6631 37.5207H14.628L14.593 37.4852H14.558L14.5229 37.4498H14.4879L14.4528 37.4144H14.4178L14.3477 37.3436H14.3127L14.2776 37.3081H14.2426L14.2075 37.2727H14.1725L14.1024 37.2019H14.0674L13.9973 37.131H13.9623L13.8922 37.0602H13.8571L13.752 36.954H13.717L13.5768 36.8123H13.5418L13.0863 36.3518V36.3164L12.9811 36.2102V36.1747L12.9111 36.1039V36.0685L12.841 35.9976V35.9622L12.8059 35.9268V35.856L12.7709 35.8205V35.7851L12.7358 35.7497V35.6789L12.7008 35.6434V35.4664L12.6658 35.4309V35.0059L12.7008 34.9705V34.7225L12.7358 34.6871V34.5455L12.7709 34.51V34.4038L12.8059 34.3684V34.2621L12.841 34.2267V34.1204L12.876 34.085V34.0142L12.9111 33.9787V33.9079L12.9461 33.8725V33.8017L12.9811 33.7662V33.7308L13.0162 33.6954V33.6246L13.0512 33.5891V33.5183L13.0863 33.4829V33.4475L13.1213 33.412V33.3412L13.1563 33.3058V33.2704L13.1914 33.2349V33.1641L13.2264 33.1287V33.0933L13.2615 33.0579V32.987L13.2965 32.9516V32.9162L13.3315 32.8808V32.8099L13.3666 32.7745V32.7391L13.4016 32.7037V32.6328L13.4367 32.5974V32.562L13.4717 32.5266V32.4911L13.5067 32.4557V32.3849L13.5418 32.3495V32.314L13.5768 32.2786V32.2432L13.6119 32.2078V32.1724L13.6469 32.137V32.1015L13.6819 32.0661V32.0307L13.717 31.9953V31.9599L13.752 31.9244V31.889L13.7871 31.8536V31.8182L13.8221 31.7828V31.7473L13.8922 31.6765V31.6411L13.9272 31.6057V31.5702L13.9623 31.5348V31.4994L14.0323 31.4286V31.3932L14.1024 31.3223V31.2869L14.1725 31.2161V31.1806L14.2426 31.1098V31.0744L14.3477 30.9681V30.9327L14.4879 30.791V30.7556L15.1536 30.0826H15.1887L15.2938 29.9764H15.3288L15.3989 29.9055H15.434L15.504 29.8347H15.5391L15.6092 29.7639H15.6442L15.6792 29.7285H15.7143L15.7493 29.693H15.7844L15.8194 29.6576H15.8544L15.8895 29.6222H15.9596L15.9946 29.5868H16.0296L16.0647 29.5514H16.1348L16.1698 29.5159H16.2399L16.2749 29.4805H16.345L16.3801 29.4451H16.4852L16.5202 29.4097H16.6253L16.6604 29.3743H16.7655L16.8005 29.3388H16.9057L16.9407 29.3034H17.1159L17.1509 29.268H17.3261L17.3612 29.2326H17.5364L17.5714 29.1972H17.7466L17.7817 29.1617H17.9218L17.9569 29.1263H18.097L18.1321 29.0909H18.2722L18.3073 29.0555H18.4124L18.4474 29.0201H18.5526L18.5876 28.9847H18.6927L18.7278 28.9492H18.8329L18.8679 28.9138H18.938L18.973 28.8784H19.0782L19.1132 28.843H19.1833L19.2183 28.8076H19.2884L19.3235 28.7721H19.3935L19.4286 28.7367H19.4987L19.5337 28.7013H19.6038L19.6739 28.7721V28.8076L19.7089 28.843V28.8784L19.779 28.9492V28.9847L19.8841 29.0909V29.1263L20.0243 29.268V29.3034L20.4097 29.693H20.4447L20.655 29.9055H20.69L20.7951 30.0118H20.8302L20.9353 30.1181H20.9704L21.0404 30.1889H21.0755L21.1456 30.2597H21.1806L21.2507 30.3306H21.2857L21.3558 30.4014H21.3908L21.4609 30.4723H21.496L21.531 30.5077H21.566L21.6011 30.5431H21.6361L21.6712 30.5785H21.7062L21.7763 30.6493H21.8113L21.8464 30.6848H21.8814L21.9164 30.7202H21.9515L21.9865 30.7556H22.0566L22.0916 30.791H22.1267L22.1617 30.8264H22.1968L22.2318 30.8619H22.2668L22.3019 30.8973H22.372L22.407 30.9327H22.442L22.4771 30.9681H22.5472L22.5822 31.0035H22.6173L22.6523 31.039H22.7224L22.7574 31.0744H22.8275L22.8625 31.1098H22.9326L22.9677 31.1452H23.0377L23.0728 31.1806H23.1779L23.2129 31.2161H23.283L23.3181 31.2515H23.4582L23.4933 31.2869H23.5984L23.6334 31.3223H23.8086L23.8437 31.3577H24.0189L24.0539 31.3932H24.2642L24.2992 31.4286H24.7547L24.7898 31.464H25.2453L25.2803 31.4286H25.7358L25.7709 31.3932H26.0162L26.0512 31.3577H26.2264L26.2615 31.3223H26.4016L26.4367 31.2869H26.5418L26.5768 31.2515H26.6819L26.717 31.2161H26.8221L26.8571 31.1806H26.9623L26.9973 31.1452H27.0674L27.1024 31.1098H27.1725L27.2075 31.0744H27.2776L27.3127 31.039H27.3827L27.4178 31.0035H27.4528L27.4879 30.9681H27.558L27.593 30.9327H27.628L27.6631 30.8973H27.6981L27.7332 30.8619H27.8032L27.8383 30.8264H27.8733L27.9084 30.791H27.9434L27.9784 30.7556H28.0135L28.0485 30.7202H28.0836L28.1186 30.6848H28.1536L28.1887 30.6493H28.2237L28.2588 30.6139H28.2938L28.3639 30.5431H28.3989L28.434 30.5077H28.469L28.5391 30.4368H28.5741L28.6092 30.4014H28.6442L28.7143 30.3306H28.7493L28.8194 30.2597H28.8544L28.9596 30.1535H28.9946L29.0997 30.0472H29.1348L29.2399 29.941H29.2749L29.5202 29.693H29.5553L29.8005 29.4451V29.4097L30.0108 29.1972V29.1617L30.1509 29.0201V28.9847L30.221 28.9138V28.8784L30.2911 28.8076V28.7721L30.3962 28.6659ZM21.8814 26.5053L21.9164 26.4699L22.1267 26.6824H22.1617L22.2668 26.7887H22.3019L22.407 26.8949H22.442L22.5121 26.9658H22.5472L22.6173 27.0366H22.6523L22.7224 27.1074H22.7574L22.7925 27.1429H22.8275L22.8976 27.2137H22.9326L22.9677 27.2491H23.0027L23.0377 27.2845H23.0728L23.1078 27.32H23.1429L23.1779 27.3554H23.2129L23.248 27.3908H23.283L23.3181 27.4262H23.3531L23.3881 27.4616H23.4232L23.4582 27.497H23.5283L23.5633 27.5325H23.5984L23.6334 27.5679H23.7035L23.7385 27.6033H23.8086L23.8437 27.6387H23.9137L23.9488 27.6741H24.0539L24.0889 27.7096H24.1941L24.2291 27.745H24.4043L24.4394 27.7804H24.6496L24.6846 27.8158H25.4205L25.4555 27.7804H25.6658L25.7008 27.745H25.841L25.876 27.7096H25.9811L26.0162 27.6741H26.1213L26.1563 27.6387H26.2264L26.2615 27.6033H26.3315L26.3666 27.5679H26.4367L26.4717 27.5325H26.5418L26.5768 27.497H26.6119L26.6469 27.4616H26.6819L26.717 27.4262H26.7871L26.8221 27.3908H26.8571L26.8922 27.3554H26.9272L26.9623 27.32H26.9973L27.0323 27.2845H27.0674L27.1375 27.2137H27.1725L27.2075 27.1783H27.2426L27.2776 27.1429H27.3127L27.3827 27.072H27.4178L27.4879 27.0012H27.5229L27.593 26.9303H27.628L27.7332 26.8241H27.7682L27.8733 26.7178H27.9084L28.1186 26.5053H28.1536L28.1887 26.5407V26.6116L28.2237 26.647V26.7178L28.2588 26.7532V26.8241L28.2938 26.8595V26.9303L28.3288 26.9658V27.0366L28.3639 27.072V27.1074L28.3989 27.1429V27.1783L28.434 27.2137V27.2845L28.469 27.32V27.3554L28.504 27.3908V27.4262L28.5391 27.4616V27.497L28.6092 27.5679V27.6033L28.6442 27.6387V27.6741L28.7493 27.7804V27.8158L29.0997 28.17H29.1348L29.2049 28.2408H29.2399L29.2749 28.2763H29.31L29.3801 28.3471H29.4501L29.4852 28.3825H29.5202L29.5553 28.4179H29.6253L29.6604 28.4534H29.6954L29.7305 28.4888L29.6954 28.5242V28.5596L29.6253 28.6305V28.6659L29.4852 28.8076V28.843L29.0647 29.268H29.0296L28.8544 29.4451H28.8194L28.7143 29.5514H28.6792L28.5741 29.6576H28.5391L28.469 29.7285H28.434L28.3639 29.7993H28.3288L28.2588 29.8701H28.2237L28.1887 29.9055H28.1536L28.0836 29.9764H28.0485L28.0135 30.0118H27.9784L27.9434 30.0472H27.9084L27.8733 30.0826H27.8383L27.8032 30.1181H27.7682L27.7332 30.1535H27.6981L27.6631 30.1889H27.628L27.593 30.2243H27.558L27.5229 30.2597H27.4879L27.4528 30.2952H27.4178L27.3827 30.3306H27.3127L27.2776 30.366H27.2426L27.2075 30.4014H27.1375L27.1024 30.4368H27.0323L26.9973 30.4723H26.9272L26.8922 30.5077H26.8221L26.7871 30.5431H26.6819L26.6469 30.5785H26.5768L26.5418 30.6139H26.4016L26.3666 30.6493H26.2615L26.2264 30.6848H26.0512L26.0162 30.7202H25.841L25.8059 30.7556H25.4906L25.4555 30.791H24.6146L24.5795 30.7556H24.2642L24.2291 30.7202H24.0189L23.9838 30.6848H23.8437L23.8086 30.6493H23.6685L23.6334 30.6139H23.5283L23.4933 30.5785H23.3881L23.3531 30.5431H23.248L23.2129 30.5077H23.1429L23.1078 30.4723H23.0377L23.0027 30.4368H22.9326L22.8976 30.4014H22.8275L22.7925 30.366H22.7574L22.7224 30.3306H22.6523L22.6173 30.2952H22.5822L22.5472 30.2597H22.4771L22.442 30.2243H22.407L22.372 30.1889H22.3369L22.3019 30.1535H22.2668L22.2318 30.1181H22.1968L22.1617 30.0826H22.1267L22.0916 30.0472H22.0566L22.0216 30.0118H21.9865L21.9164 29.941H21.8814L21.8464 29.9055H21.8113L21.7412 29.8347H21.7062L21.6712 29.7993H21.6361L21.566 29.7285H21.531L21.4609 29.6576H21.4259L21.3208 29.5514H21.2857L21.1806 29.4451H21.1456L21.0054 29.3034H20.9704L20.4447 28.7721V28.7367L20.3396 28.6305V28.595L20.2695 28.5242V28.4888L20.3046 28.4534H20.3747L20.4097 28.4179H20.4447L20.4798 28.3825H20.5499L20.5849 28.3471H20.655L20.69 28.3117H20.7251L20.7951 28.2408H20.8302L20.8652 28.2054H20.9003L21.0404 28.0638H21.0755L21.2156 27.9221V27.8867L21.3208 27.7804V27.745L21.3908 27.6741V27.6387L21.4609 27.5679V27.5325L21.496 27.497V27.4616L21.531 27.4262V27.3908L21.566 27.3554V27.32L21.6011 27.2845V27.2491L21.6361 27.2137V27.1783L21.6712 27.1429V27.072L21.7062 27.0366V27.0012L21.7412 26.9658V26.8949L21.7763 26.8595V26.7887L21.8113 26.7532V26.6824L21.8464 26.647V26.5762L21.8814 26.5407V26.5053ZM21.4609 16.3046L21.496 16.2692H21.8814L21.9164 16.3046H21.9865L22.0216 16.34H22.0916L22.1267 16.3754H22.1617L22.1968 16.4109H22.2318L22.3019 16.4817H22.3369L22.372 16.5171H22.407L22.442 16.5525H22.4771L22.5121 16.588H22.5472L22.5822 16.6234H22.6173L22.6523 16.6588H22.6873L22.7224 16.6942H22.7574L22.7925 16.7296H22.8275L22.8625 16.7651H22.8976L22.9326 16.8005H22.9677L23.0027 16.8359H23.0377L23.0728 16.8713H23.1078L23.1779 16.9421H23.2129L23.248 16.9776H23.283L23.3181 17.013H23.3531L23.3881 17.0484H23.4232L23.4582 17.0838H23.4933L23.5283 17.1192H23.5633L23.5984 17.1547H23.6334L23.6685 17.1901H23.7035L23.7385 17.2255H23.7736L23.8086 17.2609H23.8437L23.8787 17.2963H23.9137L23.9488 17.3318H23.9838L24.0189 17.3672H24.0539L24.0889 17.4026H24.124L24.159 17.438H24.1941L24.2291 17.4734H24.2642L24.2992 17.5089H24.3342L24.3693 17.5443H24.4043L24.4394 17.5797H24.4744L24.5445 17.6505H24.5795L24.6146 17.686H24.6496L24.6846 17.7214H24.7197L24.7547 17.7568H24.7898L24.8248 17.7922H24.8598L24.8949 17.8276H24.9299L24.965 17.863H25L25.035 17.8985H25.0701L25.1051 17.9339H25.1402L25.1752 17.9693H25.2102L25.2453 18.0047H25.2803L25.3154 18.0401H25.3504L25.3854 18.0756H25.4205L25.4555 18.111H25.4906L25.5256 18.1464H25.5606L25.5957 18.1818H25.6307L25.6658 18.2172H25.7008L25.7358 18.2527H25.7709L25.8059 18.2881H25.841L25.876 18.3235H25.9111L25.9461 18.3589H25.9811L26.0162 18.3943H26.0512L26.0863 18.4298H26.1213L26.1563 18.4652H26.1914L26.2264 18.5006H26.2615L26.2965 18.536H26.3315L26.3666 18.5714H26.4016L26.4367 18.6068H26.4717L26.5067 18.6423H26.5418L26.5768 18.6777H26.6119L26.6469 18.7131H26.6819L26.717 18.7485H26.752L26.7871 18.7839H26.8221L26.8571 18.8194H26.8922L26.9272 18.8548H26.9623L26.9973 18.8902H27.0323L27.0674 18.9256H27.1024L27.1375 18.961H27.1725L27.2075 18.9965H27.2426L27.2776 19.0319H27.3127L27.3477 19.0673H27.3827L27.4178 19.1027H27.4528L27.4879 19.1381H27.5229L27.558 19.1736H27.593L27.628 19.209H27.6631L27.6981 19.2444H27.7332L27.7682 19.2798H27.8032L27.8733 19.3506H27.9084L27.9434 19.3861H27.9784L28.0135 19.4215H28.0485L28.0836 19.4569H28.1186L28.1536 19.4923H28.1887L28.2237 19.5277H28.2588L28.2938 19.5632H28.3288L28.3639 19.5986H28.3989L28.434 19.634H28.469L28.504 19.6694H28.5391L28.5741 19.7048H28.6092L28.6792 19.7757H28.7143L28.7493 19.8111H28.7844L28.8194 19.8465H28.8544L28.8895 19.8819H28.9245L28.9596 19.9174H28.9946L29.0296 19.9528H29.0647L29.0997 19.9882H29.1348L29.1698 20.0236H29.2049L29.2399 20.059H29.2749L29.31 20.0945H29.345L29.3801 20.1299H29.4151L29.4501 20.1653H29.4852L29.5202 20.2007H29.5553L29.5903 20.2361H29.6604L29.6954 20.2715H29.7305L29.7655 20.307H29.8356L29.8706 20.3424H29.9757L30.0108 20.3778H30.2561L30.2911 20.3424H30.3612L30.4313 20.2715H30.4663L30.5714 20.1653H30.6065L30.7466 20.0236H30.7817L30.8167 19.9882H30.8868L30.9218 20.0236V20.059L30.9569 20.0945V20.1653L30.9919 20.2007V20.6966L30.9569 20.732V20.9091L30.9218 20.9445V21.0862L30.8868 21.1216V21.2279L30.8518 21.2633V21.3695L30.8167 21.405V21.4758L30.7817 21.5112V21.5821L30.7466 21.6175V21.6883L30.7116 21.7237V21.7946L30.6765 21.83V21.8654L30.5364 22.0071H30.3612L30.3261 22.0425H30.1159L29.9757 22.1842V22.255L29.9407 22.2904V22.3259L29.9057 22.3613V22.4321L29.8706 22.4675V22.5384L29.8356 22.5738V22.6446L29.8005 22.68V22.7509L29.7655 22.7863V22.8571L29.7305 22.8926V22.9634L29.6954 22.9988V23.0342L29.6604 23.0697V23.1405L29.6253 23.1759V23.2113L29.5903 23.2468V23.3176L29.5553 23.353V23.3884L29.5202 23.4238V23.4593L29.4852 23.4947V23.5301L29.4501 23.5655V23.6364L29.4151 23.6718V23.7072L29.3801 23.7426V23.778L29.345 23.8135V23.8489L29.31 23.8843V23.9197L29.2749 23.9551V23.9906L29.2399 24.026V24.0614L29.2049 24.0968V24.1322L29.1348 24.2031V24.2385L29.0997 24.2739V24.3093L29.0647 24.3447V24.3802L28.9946 24.451V24.4864L28.9245 24.5573V24.5927L28.8895 24.6281V24.6635L28.8194 24.7344V24.7698L28.7143 24.876V24.9115L28.6442 24.9823V25.0177L28.5391 25.124V25.1594L28.3639 25.3365V25.3719L27.7332 26.0094H27.6981L27.5229 26.1865H27.4879L27.3827 26.2928H27.3477L27.2426 26.3991H27.2075L27.1375 26.4699H27.1024L27.0323 26.5407H26.9973L26.9272 26.6116H26.8922L26.8571 26.647H26.8221L26.752 26.7178H26.717L26.6819 26.7532H26.6469L26.6119 26.7887H26.5768L26.5418 26.8241H26.4717L26.4367 26.8595H26.4016L26.3666 26.8949H26.3315L26.2965 26.9303H26.2264L26.1914 26.9658H26.1213L26.0863 27.0012H26.0162L25.9811 27.0366H25.876L25.841 27.072H25.7358L25.7008 27.1074H25.5606L25.5256 27.1429H25.2102L25.1752 27.1783H24.9299L24.8949 27.1429H24.5795L24.5445 27.1074H24.3693L24.3342 27.072H24.2291L24.1941 27.0366H24.0889L24.0539 27.0012H23.9838L23.9488 26.9658H23.8787L23.8437 26.9303H23.7736L23.7385 26.8949H23.7035L23.6685 26.8595H23.6334L23.5984 26.8241H23.5283L23.4933 26.7887H23.4582L23.3881 26.7178H23.3531L23.3181 26.6824H23.283L23.248 26.647H23.2129L23.1779 26.6116H23.1429L23.0728 26.5407H23.0377L22.9677 26.4699H22.9326L22.8625 26.3991H22.8275L22.7224 26.2928H22.6873L22.5822 26.1865H22.5472L22.407 26.0449H22.372L21.9515 25.6198H21.9164L21.8464 25.549V25.5136L21.566 25.2302V25.1948L21.4259 25.0531V25.0177L21.3208 24.9115V24.876L21.2507 24.8052V24.7698L21.1806 24.6989V24.6635L21.1105 24.5927V24.5573L21.0404 24.4864V24.451L21.0054 24.4156V24.3802L20.9353 24.3093V24.2739L20.9003 24.2385V24.2031L20.8652 24.1677V24.1322L20.7951 24.0614V24.026L20.7601 23.9906V23.9551L20.7251 23.9197V23.8843L20.69 23.8489V23.8135L20.655 23.778V23.7426L20.6199 23.7072V23.6364L20.5849 23.6009V23.5655L20.5499 23.5301V23.4947L20.5148 23.4593V23.3884L20.4798 23.353V23.3176L20.4447 23.2822V23.2468L20.4097 23.2113V23.1405L20.3747 23.1051V23.0697L20.3396 23.0342V22.9634L20.3046 22.928V22.8571L20.2695 22.8217V22.7863L20.2345 22.7509V22.68L20.1995 22.6446V22.5738L20.1644 22.5384V22.4675L20.1294 22.4321V22.3613L20.0943 22.3259V22.255L20.0593 22.2196V22.1842L19.9191 22.0425H19.7089L19.6739 22.0071H19.4987L19.3585 21.8654V21.83L19.3235 21.7946V21.7591L19.2884 21.7237V21.6529L19.2534 21.6175V21.5466L19.2183 21.5112V21.4404L19.1833 21.405V21.2987L19.1482 21.2633V21.157L19.1132 21.1216V20.9799L19.0782 20.9445V20.732L19.0431 20.6966V20.1299L19.0782 20.0945V20.059L19.1132 20.0236L19.1482 20.059H19.3585L19.3935 20.0236H19.4636L19.5337 19.9528H19.5687V19.9174L19.6388 19.8465V19.7403L19.6739 19.7048V19.4923L19.7089 19.4569V19.2444L19.7439 19.209V19.0673L19.779 19.0319V18.8902L19.814 18.8548V18.7131L19.8491 18.6777V18.5714L19.8841 18.536V18.4298L19.9191 18.3943V18.3235L19.9542 18.2881V18.1818L19.9892 18.1464V18.0756L20.0243 18.0401V17.9693L20.0593 17.9339V17.863L20.0943 17.8276V17.7922L20.1294 17.7568V17.7214L20.1644 17.686V17.6151L20.2345 17.5443V17.5089L20.2695 17.4734V17.438L20.3396 17.3672V17.3318L20.3747 17.2963V17.2609L20.4798 17.1547V17.1192L20.5849 17.013V16.9776L21.0054 16.5525H21.0404L21.1456 16.4463H21.1806L21.2507 16.3754H21.2857L21.3208 16.34H21.3558L21.3908 16.3046H21.4609ZM23.7385 10.7084L23.7736 10.673H26.2615L26.2965 10.7084H26.6119L26.6469 10.7438H26.8221L26.8571 10.7792H26.9973L27.0323 10.8146H27.1375L27.1725 10.8501H27.2776L27.3127 10.8855H27.3827L27.4178 10.9209H27.5229L27.558 10.9563H27.628L27.6631 10.9917H27.6981L27.7332 11.0272H27.8032L27.8383 11.0626H27.9084L27.9434 11.098H27.9784L28.0135 11.1334H28.0485L28.0836 11.1688H28.1186L28.1536 11.2043H28.2237L28.2588 11.2397H28.2938L28.3288 11.2751H28.3639L28.3989 11.3105H28.434L28.469 11.3459H28.504L28.5391 11.3813H28.5741L28.6442 11.4522H28.6792L28.7143 11.4876H28.7493L28.8194 11.5584H28.8544L28.9245 11.6293H28.9596L29.0647 11.7355H29.0997L29.2049 11.8418H29.2399L30.0458 12.6564V12.6919L30.221 12.8689V12.9044L30.3261 13.0106V13.046L30.4313 13.1523V13.1877L30.5364 13.294V13.3294L30.6065 13.4002V13.4357L30.6765 13.5065V13.5419L30.7116 13.5773V13.6128L30.7817 13.6836V13.719L30.8167 13.7544V13.7898L30.8868 13.8607V13.8961L30.9218 13.9315V13.9669L30.9569 14.0024V14.0378L30.9919 14.0732V14.1086L31.027 14.144V14.1795L31.062 14.2149V14.2503L31.097 14.2857V14.3566L31.1321 14.392V14.4274L31.1671 14.4628V14.4982L31.2022 14.5336V14.6045L31.2372 14.6399V14.6753L31.2722 14.7107V14.7816L31.3073 14.817V14.8524L31.3423 14.8878V14.9587L31.3774 14.9941V15.0649L31.4124 15.1004V15.1712L31.4474 15.2066V15.242L31.4825 15.2774V15.3483L31.5175 15.3837V15.4545L31.5526 15.49V15.5608L31.5876 15.5962V15.7025L31.6226 15.7379V15.8087L31.6577 15.8442V15.915L31.6927 15.9504V16.0567L31.7278 16.0921V16.1983L31.7628 16.2338V16.34L31.7978 16.3754V16.5171L31.8329 16.5525V16.6942L31.8679 16.7296V16.9067L31.903 16.9421V17.1547L31.938 17.1901V17.3318L31.973 17.3672V17.5797L32.0081 17.6151V17.8276L32.0431 17.863V18.111L32.0782 18.1464V18.4652L32.1132 18.5006V18.961L32.1482 18.9965V20.0236L32.1833 20.059V20.732L32.1482 20.7674V21.6529L32.1132 21.6883V22.1133L32.0782 22.1488V22.5738L32.0431 22.6092V23.2113L32.0081 23.2468V25.4782L32.0431 25.5136V26.1511L32.0782 26.1865V26.6116L32.1132 26.647V27.0012L32.1482 27.0366V27.32L32.1833 27.3554V27.5679L32.2183 27.6033V27.8158L32.2534 27.8512V28.0992L32.2884 28.1346V28.3117L32.3234 28.3471V28.4534L32.2884 28.4888H32.1482L32.1132 28.4534H31.973L31.938 28.4179H31.7978L31.7628 28.3825H31.6577L31.6226 28.3471H31.5175L31.4825 28.3117H31.3774L31.3423 28.2763H31.2372L31.2022 28.2408H31.1321L31.097 28.2054H30.9919L30.9569 28.17H30.8868L30.8518 28.1346H30.7817L30.7466 28.0992H30.6765L30.6415 28.0638H30.5714L30.5364 28.0283H30.4663L30.4313 27.9929H30.3612L30.3261 27.9575H30.2561L30.221 27.9221H30.186L30.1509 27.8867H30.1159L30.0809 27.8512H30.0108L29.9757 27.8158H29.9407L29.9057 27.7804H29.8706L29.8356 27.745H29.8005L29.7655 27.7096H29.7305L29.6954 27.6741H29.6604L29.6253 27.6387H29.5903L29.5202 27.5679H29.4852L29.345 27.4262V27.3908L29.1698 27.2137V27.1783L29.0997 27.1074V27.072L29.0296 27.0012V26.9658L28.9946 26.9303V26.8949L28.9596 26.8595V26.7887L28.9245 26.7532V26.647L28.8895 26.6116V26.5407L28.8544 26.5053V26.3991L28.8194 26.3636V26.222L28.7844 26.1865V26.0094L28.7493 25.974V25.9386L28.8544 25.8323V25.7969L29.0647 25.5844V25.549L29.1698 25.4427V25.4073L29.2749 25.3011V25.2656L29.345 25.1948V25.1594L29.4151 25.0885V25.0531L29.4852 24.9823V24.9469L29.5202 24.9115V24.876L29.5903 24.8052V24.7698L29.6604 24.6989V24.6635L29.6954 24.6281V24.5927L29.7305 24.5573V24.5218L29.8005 24.451V24.4156L29.8356 24.3802V24.3447L29.8706 24.3093V24.2739L29.9407 24.2031V24.1677L29.9757 24.1322V24.0968L30.0108 24.0614V24.026L30.0458 23.9906V23.9551L30.0809 23.9197V23.8843L30.1159 23.8489V23.8135L30.1509 23.778V23.7426L30.186 23.7072V23.6718L30.221 23.6364V23.5655L30.2561 23.5301V23.4947L30.2911 23.4593V23.4238L30.3261 23.3884V23.3176L30.3612 23.2822V23.2113L30.3962 23.1759V23.1051L30.4313 23.0697V23.0342L30.4663 22.9988V22.928L30.5013 22.8926V22.7863L30.5364 22.7509V22.7155L30.5714 22.68H30.7116L30.7466 22.6446H30.7817L30.8518 22.5738H30.8868L31.1321 22.3259V22.2904L31.2022 22.2196V22.1842L31.2722 22.1133V22.0779L31.3073 22.0425V22.0071L31.3423 21.9717V21.9008L31.3774 21.8654V21.83L31.4124 21.7946V21.7237L31.4474 21.6883V21.6175L31.4825 21.5821V21.5112L31.5175 21.4758V21.3695L31.5526 21.3341V21.1924L31.5876 21.157V21.0153L31.6226 20.9799V20.732L31.6577 20.6966V20.2715L31.6226 20.2361V20.0945L31.5876 20.059V19.9528L31.5526 19.9174V19.8465L31.5175 19.8111V19.7403L31.4474 19.6694V19.634L31.2372 19.4215H31.2022L31.1671 19.3861H31.1321L31.097 19.3506H31.062L31.027 19.3152H30.9218L30.8868 19.2798H30.6415L30.5714 19.3506H30.5364L30.4663 19.4215V19.4569L30.3261 19.5986H30.2911L30.221 19.6694H30.186L30.1509 19.7048H29.9757L29.9407 19.6694H29.8706L29.8356 19.634H29.7655L29.7305 19.5986H29.6954L29.6253 19.5277H29.5903L29.5553 19.4923H29.5202L29.4852 19.4569H29.4501L29.4151 19.4215H29.3801L29.345 19.3861H29.31L29.2749 19.3506H29.2399L29.2049 19.3152H29.1698L29.1348 19.2798H29.0997L29.0296 19.209H28.9946L28.9596 19.1736H28.9245L28.8895 19.1381H28.8544L28.8194 19.1027H28.7844L28.7493 19.0673H28.7143L28.6792 19.0319H28.6442L28.6092 18.9965H28.5741L28.5391 18.961H28.504L28.469 18.9256H28.434L28.3989 18.8902H28.3639L28.3288 18.8548H28.2938L28.2588 18.8194H28.2237L28.1887 18.7839H28.1536L28.1186 18.7485H28.0836L28.0485 18.7131H28.0135L27.9784 18.6777H27.9434L27.8733 18.6068H27.8383L27.8032 18.5714H27.7682L27.7332 18.536H27.6981L27.6631 18.5006H27.628L27.593 18.4652H27.558L27.5229 18.4298H27.4879L27.4528 18.3943H27.4178L27.3827 18.3589H27.3477L27.3127 18.3235H27.2776L27.2426 18.2881H27.2075L27.1725 18.2527H27.1375L27.1024 18.2172H27.0674L27.0323 18.1818H26.9973L26.9623 18.1464H26.9272L26.8922 18.111H26.8571L26.8221 18.0756H26.7871L26.752 18.0401H26.717L26.6819 18.0047H26.6469L26.6119 17.9693H26.5768L26.5418 17.9339H26.5067L26.4717 17.8985H26.4367L26.4016 17.863H26.3666L26.3315 17.8276H26.2965L26.2264 17.7568H26.1914L26.1563 17.7214H26.1213L26.0863 17.686H26.0512L26.0162 17.6505H25.9811L25.9461 17.6151H25.9111L25.876 17.5797H25.841L25.8059 17.5443H25.7709L25.7358 17.5089H25.7008L25.6658 17.4734H25.6307L25.5957 17.438H25.5606L25.5256 17.4026H25.4906L25.4555 17.3672H25.4205L25.3854 17.3318H25.3504L25.3154 17.2963H25.2803L25.2453 17.2609H25.2102L25.1752 17.2255H25.1402L25.1051 17.1901H25.0701L25.035 17.1547H25L24.965 17.1192H24.9299L24.8949 17.0838H24.8598L24.8248 17.0484H24.7898L24.7547 17.013H24.7197L24.6846 16.9776H24.6496L24.6146 16.9421H24.5795L24.5445 16.9067H24.5094L24.4744 16.8713H24.4394L24.4043 16.8359H24.3693L24.2992 16.7651H24.2642L24.2291 16.7296H24.1941L24.159 16.6942H24.124L24.0889 16.6588H24.0539L24.0189 16.6234H23.9838L23.9488 16.588H23.9137L23.8787 16.5525H23.8437L23.8086 16.5171H23.7385L23.7035 16.4817H23.6685L23.6334 16.4463H23.5984L23.5633 16.4109H23.5283L23.4933 16.3754H23.4582L23.4232 16.34H23.3881L23.3181 16.2692H23.283L23.248 16.2338H23.2129L23.1779 16.1983H23.1429L23.1078 16.1629H23.0728L23.0377 16.1275H23.0027L22.9326 16.0567H22.8976L22.8625 16.0213H22.8275L22.7925 15.9858H22.7574L22.7224 15.9504H22.6873L22.6523 15.915H22.6173L22.5822 15.8796H22.5472L22.5121 15.8442H22.4771L22.442 15.8087H22.407L22.372 15.7733H22.3369L22.3019 15.7379H22.2668L22.2318 15.7025H22.1617L22.1267 15.6671H22.0566L22.0216 15.6316H21.8814L21.8464 15.5962H21.4259L21.3908 15.6316H21.2857L21.2507 15.6671H21.1806L21.1456 15.7025H21.1105L21.0755 15.7379H21.0404L21.0054 15.7733H20.9704L20.9003 15.8442H20.8652L20.7951 15.915H20.7601L20.655 16.0213H20.6199L20.0593 16.588V16.6234L19.9542 16.7296V16.7651L19.8841 16.8359V16.8713L19.814 16.9421V16.9776L19.7439 17.0484V17.0838L19.7089 17.1192V17.1547L19.6739 17.1901V17.2255L19.6388 17.2609V17.2963L19.6038 17.3318V17.3672L19.5687 17.4026V17.438L19.5337 17.4734V17.5089L19.4987 17.5443V17.6151L19.4636 17.6505V17.686L19.4286 17.7214V17.7922L19.3935 17.8276V17.863L19.3585 17.8985V17.9693L19.3235 18.0047V18.0756L19.2884 18.111V18.1818L19.2534 18.2172V18.3235L19.2183 18.3589V18.4652L19.1833 18.5006V18.6068L19.1482 18.6423V18.7485L19.1132 18.7839V18.961L19.0782 18.9965V19.3861L19.0431 19.4215H18.7628L18.7278 19.4569H18.6927L18.5876 19.5632V19.5986L18.5526 19.634V19.6694L18.5175 19.7048V19.7757L18.4825 19.8111V19.8819L18.4474 19.9174V20.0236L18.4124 20.059V20.2361L18.3774 20.2715V20.732L18.4124 20.7674V21.0153L18.4474 21.0508V21.1924L18.4825 21.2279V21.3695L18.5175 21.405V21.5112L18.5526 21.5466V21.6175L18.5876 21.6529V21.7237L18.6226 21.7591V21.83L18.6577 21.8654V21.9008L18.6927 21.9362V21.9717L18.7278 22.0071V22.0425L18.7628 22.0779V22.1133L18.7978 22.1488V22.1842L18.8679 22.255V22.2904L19.1833 22.6092H19.2183L19.2534 22.6446H19.2884L19.3235 22.68H19.4636L19.4987 22.7155V22.7863L19.5337 22.8217V22.8926L19.5687 22.928V22.9988L19.6038 23.0342V23.1051L19.6388 23.1405V23.2113L19.6739 23.2468V23.3176L19.7089 23.353V23.3884L19.7439 23.4238V23.4947L19.779 23.5301V23.5655L19.814 23.6009V23.6364L19.8491 23.6718V23.7426L19.8841 23.778V23.8135L19.9191 23.8489V23.8843L19.9542 23.9197V23.9551L19.9892 23.9906V24.026L20.0243 24.0614V24.0968L20.0593 24.1322V24.1677L20.1294 24.2385V24.2739L20.1644 24.3093V24.3447L20.1995 24.3802V24.4156L20.2345 24.451V24.4864L20.3046 24.5573V24.5927L20.3396 24.6281V24.6635L20.4097 24.7344V24.7698L20.4447 24.8052V24.8406L20.5148 24.9115V24.9469L20.5849 25.0177V25.0531L20.655 25.124V25.1594L20.7601 25.2656V25.3011L20.8652 25.4073V25.4427L21.0054 25.5844V25.6198L21.2156 25.8323V25.8678L21.2857 25.9386V26.0449L21.2507 26.0803V26.222L21.2156 26.2574V26.3991L21.1806 26.4345V26.5053L21.1456 26.5407V26.647L21.1105 26.6824V26.7532L21.0755 26.7887V26.8595L21.0404 26.8949V26.9303L21.0054 26.9658V27.0012L20.9353 27.072V27.1074L20.8652 27.1783V27.2137L20.69 27.3908V27.4262L20.5499 27.5679H20.5148L20.4447 27.6387H20.4097L20.3747 27.6741H20.3396L20.3046 27.7096H20.2695L20.2345 27.745H20.1995L20.1644 27.7804H20.1294L20.0943 27.8158H20.0593L20.0243 27.8512H19.9892L19.9542 27.8867H19.8841L19.8491 27.9221H19.814L19.779 27.9575H19.7089L19.6739 27.9929H19.6038L19.5687 28.0283H19.4987L19.4636 28.0638H19.3935L19.3585 28.0992H19.3235L19.2884 28.1346H19.1833L19.1482 28.17H19.0782L19.0431 28.2054H18.973L18.938 28.2408H18.8329L18.7978 28.2763H18.6927L18.6577 28.3117H18.5876L18.5526 28.3471H18.4124L18.3774 28.3825H18.2722L18.2372 28.4179H18.097L18.062 28.4534H17.9218L17.8868 28.4888H17.7116L17.6765 28.4534L17.7116 28.4179V28.2763L17.7466 28.2408V28.0638L17.7817 28.0283V27.8158L17.8167 27.7804V27.5679L17.8518 27.5325V27.32L17.8868 27.2845V26.9658L17.9218 26.9303V26.5407L17.9569 26.5053V25.974L17.9919 25.9386V25.0531L18.027 25.0177V23.6009L17.9919 23.5655V22.7863L17.9569 22.7509V22.255L17.9218 22.2196V21.7237L17.8868 21.6883V20.6966L17.8518 20.6612V20.1653L17.8868 20.1299V19.1736L17.9218 19.1381V18.6423L17.9569 18.6068V18.2527L17.9919 18.2172V17.9693L18.027 17.9339V17.7214L18.062 17.686V17.4734L18.097 17.438V17.2609L18.1321 17.2255V17.0484L18.1671 17.013V16.8005L18.2022 16.7651V16.588L18.2372 16.5525V16.3754L18.2722 16.34V16.2338L18.3073 16.1983V16.0567L18.3423 16.0213V15.915L18.3774 15.8796V15.7733L18.4124 15.7379V15.6671L18.4474 15.6316V15.5254L18.4825 15.49V15.4191L18.5175 15.3837V15.3129L18.5526 15.2774V15.2066L18.5876 15.1712V15.1004L18.6226 15.0649V15.0295L18.6577 14.9941V14.9233L18.6927 14.8878V14.817L18.7278 14.7816V14.7462L18.7628 14.7107V14.6399L18.7978 14.6045V14.5691L18.8329 14.5336V14.4982L18.8679 14.4628V14.4274L18.903 14.392V14.3566L18.938 14.3211V14.2857L18.973 14.2503V14.2149L19.0081 14.1795V14.144L19.0431 14.1086V14.0732L19.0782 14.0378V14.0024L19.1132 13.9669V13.9315L19.1482 13.8961V13.8607L19.1833 13.8253V13.7898L19.2534 13.719V13.6836L19.2884 13.6482V13.6128L19.3585 13.5419V13.5065L19.4286 13.4357V13.4002L19.4987 13.3294V13.294L19.5687 13.2231V13.1877L19.6739 13.0815V13.046L19.779 12.9398V12.9044L19.9542 12.7273V12.6919L20.1294 12.5148V12.4793L20.7251 11.8772H20.7601L20.9003 11.7355H20.9353L21.0404 11.6293H21.0755L21.1456 11.5584H21.1806L21.2507 11.4876H21.2857L21.3558 11.4168H21.3908L21.4259 11.3813H21.4609L21.531 11.3105H21.566L21.6011 11.2751H21.6361L21.6712 11.2397H21.7062L21.7412 11.2043H21.7763L21.8113 11.1688H21.8814L21.9164 11.1334H21.9515L21.9865 11.098H22.0216L22.0566 11.0626H22.1267L22.1617 11.0272H22.2318L22.2668 10.9917H22.3369L22.372 10.9563H22.442L22.4771 10.9209H22.5472L22.5822 10.8855H22.6873L22.7224 10.8501H22.8275L22.8625 10.8146H23.0027L23.0377 10.7792H23.1779L23.2129 10.7438H23.4232L23.4582 10.7084H23.7385Z" fill="black"/>
</svg>
